<svg width="1800" height="3200" viewBox="0 0 1800 3200" fill="none" xmlns="http://www.w3.org/2000/svg">
<path fill-rule="evenodd" clip-rule="evenodd" d="M902.725 571.193C910.821 552.226 928.492 538.286 948.836 533.189C963.777 529.456 979.456 529.576 994.686 531.057C1002.66 531.828 1011.22 532.46 1018.74 535.423C1025.17 537.955 1030.4 542.74 1034.33 548.357C1039.02 555.013 1042.2 562.631 1044.44 570.439C1044.76 571.549 1045.06 572.668 1045.33 573.792C1044.36 579.683 1042.3 584.697 1036.84 588.401C1031.51 592.018 1025.16 593.498 1018.83 594.023C1018.21 593.725 1017.61 593.419 1017.06 593.104C1007.19 587.454 1000.24 574.102 987.782 575.909C976.665 577.523 969.346 591.511 962.735 599.714C941.513 602.186 920.307 595.809 903.04 583.674C902.163 579.521 902.113 575.332 902.725 571.193M1059.76 556.805C1058.06 552.041 1055.92 547.427 1053.39 543.08C1045.01 528.706 1032.15 517.252 1016.88 510.705C980.754 495.239 934.016 506.142 904.845 531.508C894.88 540.179 884.805 552.922 881.758 566.628C880.848 566.808 879.989 567.282 879.282 567.949C858.206 554.679 836.502 541.913 819.518 523.519C807.185 510.155 798.606 494.339 793.353 476.959C792.924 475.529 790.617 475.738 790.687 477.321C790.707 477.691 790.727 478.061 790.747 478.431C790.527 477.75 789.488 478.101 789.408 478.761C786.582 499.874 783.047 522.258 786.302 543.48C788.25 556.144 794.002 565.415 801.692 575.426C809.931 586.156 819.259 596.137 828.796 605.708C834.848 611.783 841.17 618.791 848.58 623.246C857.198 628.421 866.975 632.356 876.173 636.35C885.531 640.424 895.028 644.188 904.705 647.451C924.049 653.998 944.043 658.523 964.386 660.505C980.674 662.087 999.289 663.81 1014.9 657.682C1026.86 652.987 1036.52 644.499 1044.18 634.287C1052.52 623.166 1059.11 610.497 1062.76 597.138C1066.54 583.261 1060.56 559.042 1059.76 556.805" fill="black"/>
</svg>
