<svg width="1800" height="3200" viewBox="0 0 1800 3200" fill="none" xmlns="http://www.w3.org/2000/svg">
<path fill-rule="evenodd" clip-rule="evenodd" d="M1054.39 514.722C1053.06 510.74 1046.2 511.087 1046.62 515.774C1047.11 521.129 1045.27 527.101 1040.14 529.701C1034.77 532.423 1028.73 529.976 1025.45 525.306C1022.6 521.247 1020.64 516.832 1017.05 513.292C1013.72 510 1009.66 507.461 1005.23 505.954C1001.77 504.781 998.191 504.469 994.716 504.854C986.056 502.897 976.022 507.348 970.625 514.1C970.277 514.535 969.954 514.982 969.642 515.433C969.107 514.705 968.547 513.984 967.954 513.273C966.425 511.441 964.527 511.048 962.813 511.547C953.052 504.288 939.373 503.326 928.287 509.877C919.405 515.126 912.058 522.862 901.136 523.464C892.485 523.941 883.062 519.005 882.452 509.498C882.132 504.534 875.368 500.396 871.573 504.992C863.595 514.656 861.999 527.493 866.413 539.178C871.071 551.507 880.561 560.192 892.577 565.301C905.553 570.818 920.759 572.734 934.796 572.297C948.79 571.861 961.514 566.48 969.949 555.033C970.956 553.667 971.841 552.279 972.617 550.875C980.807 561.303 993.645 565.686 1006.72 566.001C1020.4 566.329 1036.57 563.928 1046.25 553.304C1055.57 543.064 1058.78 527.836 1054.39 514.722" fill="black"/>
</svg>
