<svg width="1800" height="3200" viewBox="0 0 1800 3200" fill="none" xmlns="http://www.w3.org/2000/svg">
<path d="M813.524 582.667C810.866 582.918 808.27 583.186 805.853 583.459L805.73 584.183C805.24 585.969 804.842 587.807 804.262 589.542C801.383 598.161 796.796 606.724 792.061 613.567C790.549 615.754 788.894 617.749 787.31 619.839C785.607 621.786 783.949 623.817 782.197 625.681C779.68 628.357 775.254 632.463 772.505 634.916C772.112 635.266 771.677 635.655 771.212 636.061C771.106 636.11 770.998 636.155 770.891 636.198C769.35 636.809 767.772 637.16 766.181 637.396C765.919 637.435 765.656 637.472 765.394 637.501H760.997C702.733 637.501 645.253 657.822 597.721 695.225C581.866 707.701 559.995 729.256 541.697 750.444C520.382 775.125 476.659 835.128 453.193 871.899C360.869 1016.57 314.993 1145 308.112 1278.07L307.08 1298.03L302.387 1299.3C293.451 1301.72 289.438 1304.87 288.318 1310.35C286.575 1318.88 287.521 1359.05 289.993 1381.61C292.023 1400.12 292.71 1402.75 296.867 1407.85C300.005 1411.71 303.13 1413.53 306.618 1413.53H311.749L311.006 1475.79C310.597 1510.04 309.598 1545.7 308.787 1555.04C307.976 1564.38 304.054 1587.07 300.071 1605.47C288.809 1657.49 287.197 1672.54 287.33 1724.35C287.434 1765.13 287.745 1770.15 291.294 1788.32C296.183 1813.34 302.236 1829.81 311.877 1844.32C320.372 1857.1 329.655 1864.32 337.586 1864.32C341.903 1864.32 343.692 1865.76 347.529 1872.33C352.867 1881.46 365.679 1891.08 372.504 1891.08C375.041 1891.08 378.652 1889.6 380.532 1887.79C383.632 1884.8 384.193 1884.79 386.535 1887.71C391.367 1893.72 403.269 1899.74 407.48 1898.31C412.13 1896.72 418.199 1889.51 418.199 1885.57C418.199 1883.55 419.648 1883.91 423.789 1886.96C432.123 1893.1 439.912 1892.41 445.258 1885.06C451.505 1876.47 451.168 1865.25 443.74 1834.85C440.498 1821.58 436.684 1803.1 435.267 1793.78C432.518 1775.7 431.604 1733.25 433.668 1719.5L434.861 1711.57L442.235 1727.01C451.071 1745.52 462.459 1760.2 473.343 1767.1C479.788 1771.18 483.043 1771.99 490.163 1771.28C500.12 1770.29 505.34 1765.34 507.969 1754.38C510.1 1745.5 508.188 1737.69 498.396 1715.33C492.986 1702.98 488.054 1687.77 483.977 1670.85C473.263 1626.39 465.624 1608.3 443.644 1575.31L432.803 1559.04L433.741 1546.49C435.055 1528.94 442.664 1479.1 448.301 1451.11C452.561 1429.96 453.339 1427.71 456.055 1428.69C459.015 1429.75 466.619 1425.6 468.215 1422.05C470.341 1417.32 485.564 1343.85 485.564 1338.32C485.564 1334.85 484.786 1330.94 483.836 1329.64C481.938 1327.03 481.763 1327.79 495.482 1279.25C506.122 1241.6 527.802 1182.74 529.943 1185.68C530.329 1186.21 528.884 1197.17 526.733 1210.03C504.631 1342.19 482.044 1508.61 478.597 1564.67L477.638 1580.31L483.567 1588C486.829 1592.23 495.518 1600.54 502.876 1606.45C510.233 1612.36 519.057 1619.47 522.485 1622.24C528.167 1626.84 528.866 1628.34 530.42 1639.28C535.695 1676.41 545.553 1712.4 560.768 1750.06C580.836 1799.75 597.351 1832.49 647.995 1922.98C683.308 1986.09 696.634 2010.78 696.634 2013.13C696.634 2017.15 681.381 2095.69 677.106 2113.67C667.181 2155.44 664.706 2160.15 601.516 2257.48C475.684 2451.3 431.674 2521.93 431.674 2530.04C431.674 2532.68 432.711 2538.89 433.978 2543.83L436.282 2552.81L416.234 2580.17C396.645 2606.91 396.086 2607.48 391.85 2605.26C376.033 2596.97 352.037 2620.9 318.488 2678.42C306.677 2698.68 301.161 2706.44 295.8 2710.33C286.457 2717.12 278.98 2732.11 279 2744.01C279.02 2755.35 284.253 2770.22 293.958 2786.51C298.336 2793.86 319.176 2823.96 340.267 2853.39C361.358 2882.83 389.374 2922.23 402.525 2940.97C435.563 2988.02 444.081 2996.72 468.349 3008.16C511.01 3028.26 611.095 3029.52 653.222 3010.49C659.407 3007.69 664.8 3003.55 668.022 2999.14C672.821 2992.56 673.047 2991.6 672.268 2981.22C670.354 2955.73 657.779 2924.67 639.817 2901.08C630.337 2888.62 624.855 2883.42 612.521 2875.2C604.032 2869.54 591.698 2862.79 585.111 2860.2C578.525 2857.61 572.337 2854.09 571.361 2852.38C570.385 2850.67 565.773 2835.38 561.11 2818.4C556.448 2801.42 550.763 2782.88 548.477 2777.2C545.548 2769.93 543.8 2761.43 542.556 2748.39C540.286 2724.58 536.521 2713.73 527.988 2706.43L521.389 2700.78L526.081 2692.69C531.348 2683.6 532.07 2683.57 543.887 2691.75C552.904 2698 575.297 2708.27 579.895 2708.27C581.68 2708.27 590.238 2696.9 602.645 2678.03C613.584 2661.4 639.712 2621.8 660.707 2590.03C740.9 2468.69 756.498 2444.88 776.054 2413.92C796.717 2381.2 819.937 2343.11 831.008 2323.77L837.248 2312.86L839.683 2320.68C846.46 2342.43 871.532 2431.26 883.72 2476.7C934.634 2666.52 982.936 2837.89 986.6 2841.7C990.396 2845.64 1004.19 2843.4 1015.71 2836.96C1020.81 2834.11 1025.58 2831.78 1026.32 2831.78C1027.9 2831.78 1036.83 2857.87 1039.51 2870.34C1041.33 2878.78 1041.26 2879.2 1037.23 2883.56C1031.37 2889.9 1027.53 2902.76 1027.49 2916.17C1027.44 2936.35 1034.89 2984.13 1043.22 3017.04C1047.39 3033.52 1047.49 3034.57 1046.05 3046.22C1044.24 3060.97 1050.57 3076.59 1061.02 3083.12C1073.03 3090.62 1091.29 3087.5 1128.5 3071.59C1235.66 3025.78 1368.75 2937.56 1435.16 2868.32C1451.75 2851.03 1470.75 2824.52 1474.75 2813.11C1482.9 2789.84 1475.02 2757.74 1458.99 2748.86C1455.88 2747.14 1451.66 2743.19 1449.6 2740.09C1443.35 2730.66 1428.61 2718.67 1417.48 2713.95C1409.22 2710.45 1403.37 2709.52 1390.47 2709.64C1369.29 2709.84 1353.62 2714.51 1316.14 2731.82C1275.86 2750.42 1253.72 2755.63 1209.34 2756.96C1185.47 2757.68 1174.41 2758.83 1169.16 2761.13C1165.17 2762.88 1161.39 2763.51 1160.75 2762.53C1157.71 2757.92 1147.05 2728.3 1147.65 2726.13C1148.03 2724.78 1152.97 2721.99 1158.63 2719.92C1168.88 2716.18 1174.16 2711.88 1174.16 2707.26C1174.16 2705.93 1171.44 2695.65 1168.11 2684.43C1156.29 2644.53 1140.48 2584.28 1111.98 2470.52C1059.07 2259.39 1035.13 2169.08 1024.19 2139.44C1021.34 2131.74 1021.33 2130.5 1023.62 2091.07C1026.58 2040.05 1026.62 1975.44 1023.71 1933.09C1018.43 1856.18 1004.51 1778.68 980.601 1693.05L976.747 1679.24L986.478 1669.69C995.972 1660.38 1005.01 1646.23 1005.01 1640.68C1005.01 1639.16 1002.07 1628.88 998.479 1617.84C989.259 1589.46 986.141 1577.24 980.288 1546.52C971.55 1500.67 968.87 1473.42 968.014 1421.76C966.958 1358.02 971.423 1308.05 983.37 1249.88C987.559 1229.48 1009.68 1130.88 1010.3 1129.85C1010.51 1129.49 1019.68 1137.46 1030.67 1147.55C1128 1236.95 1212.25 1305.5 1246.01 1322.77C1270.75 1335.42 1301.69 1339.27 1321.53 1332.16C1351.48 1321.43 1376.08 1285.83 1384.78 1240.62C1389.74 1214.89 1387.73 1170.9 1380.48 1146.4C1379.56 1143.31 1378.96 1133.84 1379.13 1125.35C1380.29 1070.04 1354.85 1016.77 1323.58 1008.98C1320.54 1008.23 1317.15 1006.08 1316.04 1004.21C1314.92 1002.34 1299.07 969.781 1280.82 931.855L1247.63 862.898L1243.86 834.08C1236.7 779.405 1225.32 722.395 1215.18 690.408C1202.62 650.79 1188.98 630.697 1168.05 620.957C1159.41 616.94 1156.05 616.567 1134.83 617.294C1119.12 617.832 1113.73 617.802 1112.38 616.554H1112.38C1111.31 617.001 1110.24 617.563 1109.19 617.853C1108.56 618.026 1107.9 617.681 1107.27 617.853C1104.73 618.552 1102.18 620.662 1099.59 621.375C1096.82 622.137 1094.4 623.183 1091.91 624.897C1090.93 625.566 1089.68 625.108 1088.71 625.777C1088.17 626.148 1087.95 627.107 1087.43 627.534C1084.45 629.992 1080.33 630.656 1077.19 632.817C1075.16 634.211 1074.51 634.687 1074.44 634.799L1074.43 634.803L1074.43 634.807V634.811V634.815V634.819L1074.43 634.824H1074.44H1074.44H1074.44C1074.56 634.824 1075.22 634.503 1075.34 634.59L1075.34 634.595L1075.34 634.599L1075.35 634.603V634.607L1075.35 634.611V634.615L1075.35 634.619V634.623V634.627C1075.35 634.629 1075.35 634.638 1075.35 634.64C1075.34 634.743 1075.15 634.982 1074.63 635.456C1073.43 636.555 1072.63 636.118 1071.43 637.217C1069.66 638.841 1068 640.76 1066.31 642.5C1065.48 643.354 1065.13 643.636 1065.02 643.621H1065.02H1065.01L1065.01 643.617H1065.01H1065.01H1065L1065 643.613L1065 643.609L1064.99 643.605L1064.99 643.601L1064.99 643.597V643.592L1064.99 643.588V643.584C1064.95 643.378 1065.52 642.437 1065.48 642.237V642.233V642.229L1065.48 642.225L1065.47 642.221L1065.47 642.217L1065.47 642.213L1065.46 642.209H1065.46H1065.46H1065.45L1065.45 642.204H1065.45C1065.29 642.178 1064.56 642.825 1062.46 645.135C1062.09 645.545 1062.16 646.432 1061.82 646.896C1061.34 647.552 1060.38 647.121 1059.9 647.777C1057.89 650.543 1051.56 664.681 1050.94 668.9C1050.82 669.763 1051.07 670.674 1050.94 671.537C1050.75 672.823 1049.89 673.786 1049.66 675.059C1049.32 676.942 1049.2 692.42 1049.02 692.66C1048.56 693.291 1041.8 692.156 1040.7 692.66C1040.42 692.791 1040.33 693.355 1040.06 693.54C1039.34 694.04 1038.42 693.352 1036.86 694.421C1036.01 695.007 1034.52 693.834 1033.66 694.421C1032.61 695.144 1031.74 696.623 1030.46 697.062C1028.24 697.824 1030.08 695.948 1027.9 697.943C1026.15 699.546 1021.32 703.849 1020.22 705.863C1019.65 706.912 1019.47 708.289 1018.94 709.38C1017.89 711.548 1016.24 712.778 1015.74 715.544C1015.64 716.113 1015.87 716.744 1015.74 717.301C1015.55 718.088 1014.73 718.319 1014.46 719.061C1013.99 720.354 1014.07 725.629 1013.82 726.982C1013.75 727.384 1013.28 727.468 1013.18 727.862C1012.84 729.281 1012.75 730.798 1012.54 732.264C1012.05 735.649 1013.03 739.441 1012.54 742.826C1012.33 744.273 1010.78 754.044 1010.62 754.264C1010.47 754.471 1010.19 754.264 1009.98 754.264C1008.49 756.611 1006.99 758.961 1005.5 761.307C1005.54 761.27 1005.57 761.231 1005.62 761.195C1006.14 760.294 1007.59 757.807 1008.06 758.666C1008.68 759.79 1006.55 760.374 1005.62 761.195C1005.52 761.359 1005.45 761.476 1005.43 761.504L1005.43 761.508H1005.42V761.504V761.5L1005.43 761.496C1005.43 761.472 1005.46 761.413 1005.5 761.307L1005.05 760.973C1005.35 763.21 1006.12 767.489 1005.5 768.347C1005.27 768.66 1003.6 769.196 1003.58 769.227C1003.43 769.435 1003.73 769.9 1003.58 770.108C1003.28 770.523 1002.6 769.693 1002.3 770.108C1002.15 770.315 1002.45 770.781 1002.3 770.988C1001.37 772.271 997.2 770.392 995.9 770.988C995.447 771.196 995.074 771.657 994.622 771.865C993.278 772.481 991.484 771.249 990.14 771.865C988.38 772.671 986.777 772.82 985.02 773.626C984.509 773.86 982.82 773.129 982.459 773.626C982.308 773.833 982.61 774.299 982.459 774.506C981.948 775.208 979.932 774.044 979.261 774.506C978.991 774.691 978.89 775.201 978.62 775.386C976.569 776.797 973.139 774.378 970.94 775.386C970.832 775.436 970.728 775.499 970.627 775.572C970.647 775.392 970.634 775.276 970.583 775.234C969.428 775.369 970.095 775.371 968.595 775.057C968.077 774.875 967.548 774.746 967.042 774.51C965.236 773.667 962.845 771.986 961.458 770.132C961.302 769.923 961.189 769.664 961.055 769.428C960.974 769.327 960.76 769.458 960.449 769.762C959.915 769.499 959.037 769.217 958.014 768.954C957.439 766.715 955.855 764.919 955.511 762.558C955.427 761.976 955.348 761.383 955.271 760.777C949.144 749.75 943.617 738.099 939.954 725.1C938.516 719.997 937.588 714.65 936.405 709.425C933.186 689.527 933.295 669.308 935.627 649.445C932.503 647.783 929.774 646.113 928.718 644.661C927.935 643.583 927.543 642.817 927.414 642.273C924.923 665.554 924.194 689.077 928.133 712.319C929.369 717.978 930.355 723.752 931.838 729.297C936.1 745.236 942.988 759.088 949.863 772.978C949.851 773.078 949.837 773.177 949.825 773.276C949.822 773.302 949.819 773.326 949.816 773.352C949.743 773.461 949.669 773.59 949.643 773.674C948.69 776.722 948.349 778.667 948.719 776.673C948.488 777.382 948.424 778.17 948.231 778.896V778.901V778.905H948.228V778.909L948.225 778.913H948.222L948.219 778.917H948.216C948.215 778.917 948.208 778.917 948.207 778.917C948.183 778.916 948.144 778.896 948.119 778.896C948.119 778.896 948.115 778.896 948.113 778.896L948.109 778.901H948.106V778.905H948.103L948.1 778.909V778.913C947.982 779.203 947.898 779.515 947.796 779.817C947.681 780.322 947.589 780.841 947.448 781.333V781.337L947.445 781.341H947.442V781.337V781.333C947.439 781.296 947.447 781.152 947.439 781.108V781.104H947.436V781.1H947.433H947.43L947.427 781.104V781.108C947.078 781.718 946.874 782.537 946.72 783.351C946.733 783.191 946.724 783.086 946.705 783.05L946.702 783.046L946.699 783.042H946.696L946.693 783.037H946.69H946.687H946.684L946.681 783.042H946.678C946.676 783.042 946.67 783.048 946.669 783.05C946.562 783.133 946.312 783.825 945.97 785.201C945.848 785.693 945.817 786.221 945.745 786.732C945.689 786.895 945.631 787.078 945.575 787.267C944.884 788.268 944.539 789.516 944.388 790.829C944.061 791.45 943.8 792.113 943.704 792.831C943.659 793.168 943.63 793.507 943.608 793.848C943.54 793.832 943.474 793.83 943.418 793.869C942.799 794.294 941.169 796.54 940.86 797.391C940.678 797.89 939.079 801.596 938.939 801.789C938.788 801.997 938.449 801.582 938.298 801.789C937.879 802.366 937.979 804.87 937.658 805.311C937.507 805.518 937.169 805.104 937.018 805.311C936.441 806.104 936.119 808.66 935.737 809.709C935.267 811.001 933.236 814.434 932.539 815.872C931.848 817.297 931.744 818.935 931.258 820.271C930.874 821.327 929.721 821.856 929.337 822.912C929.242 823.174 929.337 823.499 929.337 823.793C929.124 824.379 928.913 824.967 928.7 825.553C928.229 826.524 927.157 827.151 926.779 828.191C926.585 828.724 926.407 830.463 926.139 830.832C925.791 831.31 924.907 831.645 924.218 832.593C922.771 834.582 920.912 838.386 919.098 839.633C918.907 839.764 918.609 839.425 918.458 839.633C918.307 839.84 918.609 840.306 918.458 840.513C917.88 841.308 916.022 841.75 915.259 842.274C913.699 843.347 912.337 844.719 910.777 845.792C910.265 846.144 909.371 845.44 908.859 845.792C904.586 848.73 897.884 848.433 892.858 848.433C889.589 848.433 884.753 849.46 881.979 847.553C880.53 846.557 874.29 847.549 872.377 846.672C870.491 845.808 868.47 845.761 866.617 844.911C866.331 844.78 866.247 844.22 865.977 844.035C865.595 843.773 865.11 844.177 864.696 844.035C864.042 843.81 863.437 843.337 862.776 843.155C861.83 842.894 859.577 843.154 858.937 842.274C858.786 842.067 859.088 841.601 858.937 841.394C858.315 840.538 857.162 841.054 856.376 840.513C855.952 840.222 852.664 837.05 852.537 836.991C852.132 836.806 851.661 837.177 851.256 836.991C850.684 836.729 850.515 835.606 849.976 835.234C847.178 833.311 843.874 830.155 841.017 828.191C840.208 827.634 839.82 826.3 839.096 825.553C838.333 824.766 837.329 824.52 836.535 823.793C836.284 823.562 836.111 823.205 835.898 822.912C835.898 822.619 836.049 822.239 835.898 822.032C835.421 821.376 834.454 821.807 833.977 821.151C833.64 820.687 833.674 819.854 833.337 819.39C833.186 819.183 832.887 819.521 832.696 819.39C830.987 818.215 828.139 813.177 825.656 811.47C824.888 810.942 824.503 809.357 823.735 808.829C820.398 806.535 816.855 803.107 813.496 800.028C813.245 799.798 813.069 799.445 812.856 799.152C812.856 798.858 813.007 798.479 812.856 798.271C812.554 797.856 811.957 798.534 811.575 798.271C810.718 797.682 810.688 796.171 810.295 795.63C810.144 795.423 809.805 795.837 809.654 795.63C809.504 795.423 809.805 794.957 809.654 794.749C809.504 794.542 809.208 794.881 809.017 794.749C807.602 793.777 808.818 794.202 808.377 792.989C807.992 791.93 807.832 791.561 807.769 791.529H807.766H807.763H807.76H807.757H807.754L807.751 791.533H807.745V791.537L807.742 791.541C807.67 791.728 807.962 793.303 807.093 792.108C806.942 791.901 807.188 791.49 807.093 791.228C806.459 789.484 804.681 788.459 803.891 786.83C803.312 785.635 803.006 784.388 802.613 783.308C801.481 780.194 798.91 778.314 797.491 775.388C796.82 774.003 795.367 768.945 794.933 768.348C794.782 768.141 794.443 768.556 794.293 768.348C793.991 767.933 794.427 767.144 794.293 766.587C793.904 764.986 792.309 761.137 791.731 759.548C791.462 758.805 790.642 758.574 790.451 757.787C790.316 757.23 790.586 756.582 790.451 756.026C790.246 755.18 789.544 754.153 789.173 753.388C788.374 751.74 788.692 750.634 787.893 748.986C786.834 746.803 785.538 744.277 784.691 741.946C783.52 738.725 782.594 735.295 781.492 732.265C781.236 731.561 781.748 730.328 781.492 729.624C781.03 728.353 780.674 727.377 780.212 726.106C779.715 724.74 780.562 722.27 780.212 720.823C780.116 720.43 779.631 720.35 779.572 719.943C779.404 718.792 779.712 717.583 779.572 716.425C779.306 714.233 778.347 709.539 777.651 707.625C777.457 707.093 777.947 705.39 777.651 704.983C777.5 704.776 777.161 705.191 777.01 704.983C776.5 704.281 777.346 701.504 777.01 700.581C776.876 700.21 776.508 700.072 776.373 699.701C775.778 698.062 776.934 693.324 775.733 690.02C775.048 688.138 776.222 684.999 775.733 682.98C774.777 679.035 775.736 674.191 774.452 670.662C773.777 668.805 775.478 663.272 774.452 661.861C774.301 661.654 773.963 662.068 773.812 661.861C773.242 661.077 774.355 653.675 773.812 652.18C773.677 651.809 773.306 651.671 773.172 651.3C772.981 650.775 773.272 649.483 773.303 648.586C776.219 644.873 779.338 641.452 782.335 637.872C785.831 633.695 788.744 629.987 792.176 625.682C798.1 617.869 804.212 610.024 808.587 600.362C809.305 598.775 812.59 590.133 813.364 588.112L814.984 583.846C815.036 583.618 814.43 583.175 813.522 582.668L813.524 582.667ZM1138.24 632.527C1163.82 632.57 1172.07 636.351 1184.84 653.908C1203.09 679.011 1220.1 745.617 1232.49 840.609L1236.57 871.843L1274.41 949.488C1295.22 992.194 1314.35 1033.25 1316.93 1040.73C1321.03 1052.65 1321.61 1056.49 1321.61 1071.83C1321.61 1087.86 1321.18 1090.42 1316.47 1102.36C1307.11 1126.12 1287.36 1144.28 1263.67 1150.93C1239.52 1157.71 1215.1 1152.27 1200.39 1136.84C1196.98 1133.26 1194.23 1126.63 1189.99 1111.68C1186.81 1100.52 1173.64 1056.65 1160.71 1014.19C1147.77 971.737 1135.38 930.419 1133.18 922.375L1129.16 907.749L1117.71 903.178C1075.82 886.439 1032.5 829.331 1020.89 775.556C1013.39 740.793 1024.15 711.835 1044.78 711.266C1052.49 711.053 1056.14 714.693 1063.47 729.92C1067.12 737.493 1067.89 741.225 1067.91 751.582C1067.95 763.411 1069.25 774.265 1071.55 781.908C1072.34 784.519 1071.51 785.642 1067.98 786.708C1061.47 788.673 1053.13 782.487 1048.01 771.905C1040.7 756.795 1036.13 766.656 1042.49 783.809C1047.79 798.078 1059.6 804.745 1071.48 800.168C1080.15 796.832 1087.34 801.318 1087.34 810.058C1087.34 817.724 1094.17 836.154 1098.9 841.276C1101 843.545 1105.36 846.488 1108.58 847.817C1113.57 849.873 1115 851.864 1118.2 861.145C1125.1 881.208 1136.71 890.686 1154.38 890.686C1163.09 890.686 1163.57 890.963 1166.61 897.746C1173.76 913.636 1189.79 926.269 1197.86 922.367C1204.61 919.1 1202.93 913.544 1193.92 909.349C1189.55 907.316 1183.93 902.979 1181.43 899.712C1175.31 891.722 1169.69 876.058 1168.66 864.108L1167.82 854.314L1174.73 848.742C1179.28 845.078 1181.65 841.765 1181.65 839.073C1181.65 833.237 1178.63 832.403 1171.84 836.359C1168.59 838.251 1162.22 840.364 1157.7 841.055C1150.69 842.125 1149.39 842.988 1148.99 846.852C1148.62 850.465 1149.51 851.744 1153.38 853.12C1157.98 854.759 1158.25 855.404 1158.69 865.563L1159.16 876.277H1151.16C1141.06 876.277 1134.27 870.458 1129.63 857.812C1118.83 828.428 1135.66 795.826 1168.38 782.748C1178.8 778.581 1182.12 775.377 1180.82 770.727C1179.38 765.567 1172.43 766.276 1158.36 773.011C1137.77 782.866 1124.06 798.249 1117.9 818.38C1116.74 822.198 1115.78 827.524 1115.78 830.216C1115.78 836.821 1111.36 836.654 1105.46 829.83C1097.73 820.884 1095.7 801.545 1100.37 781.313C1102.33 772.801 1105.16 767.166 1112.72 756.728C1121.29 744.883 1124.11 742.397 1135.24 736.888C1142.24 733.424 1153.36 729.44 1159.94 728.035C1173.31 725.184 1177.35 722.025 1174.22 716.854C1170.33 710.396 1148.4 713.939 1129.25 724.123C1109.5 734.628 1096.49 751.733 1090.2 775.463C1086.46 789.581 1084.68 789.358 1080.48 774.245C1077.32 762.837 1078.14 738.552 1082.04 728.212C1086.41 716.644 1098.69 701.878 1110.39 694.139C1120.11 687.713 1134.17 682.353 1154.7 677.25C1160.06 675.919 1161.54 674.643 1161.91 671.022C1162.58 664.588 1157.3 663.262 1142.7 666.198C1124.91 669.775 1115 673.82 1103.2 682.303C1093.23 689.465 1078.25 707.413 1074.43 716.75C1072.84 720.639 1072.41 720.355 1066.63 711.604C1063.27 706.509 1060.49 700.728 1060.46 698.759C1060.33 691.152 1068.26 668.741 1074.62 658.744C1086.14 640.635 1105.95 632.474 1138.24 632.527ZM767.21 653.365L765.979 661.386C761.214 692.415 771.426 745.195 789.085 780.806C817.104 837.309 868.257 873.334 903.046 861.064C915.557 856.652 928.268 847.19 936.821 835.921C943.404 827.248 957.552 799.764 960.132 790.64C960.969 787.677 961.635 786.806 964.742 787.198C964.83 787.315 964.951 787.482 965.146 787.741C965.23 787.811 965.397 787.655 965.623 787.331C966.454 787.473 967.431 787.681 968.587 787.942C978.018 790.074 998.09 790.092 1006.05 787.974L1012.32 786.302L1015.57 797.33C1020.94 815.499 1035.44 843.609 1049.24 862.584C1069.3 890.171 1090 907.715 1112.04 915.822L1118.27 918.113L1140.23 990.484C1152.31 1030.29 1162.19 1063.55 1162.19 1064.39C1162.19 1065.23 1160.55 1068.88 1158.55 1072.48C1148.35 1090.88 1144.64 1120.7 1149.43 1145.93C1154.82 1174.35 1168.7 1202.43 1188.52 1225.01C1193.58 1230.76 1201.88 1242.63 1206.98 1251.38C1217.64 1269.64 1224.43 1277.3 1226.92 1273.88C1228.09 1272.26 1226.97 1268.37 1222.9 1259.94C1218.75 1251.35 1217.99 1248.67 1220.03 1249.87C1240.64 1261.98 1274.01 1266.67 1295.72 1260.49C1327.55 1251.44 1354.97 1221.96 1368.5 1182.26C1373.63 1167.2 1374.07 1166.5 1374.95 1171.97C1376.82 1183.59 1376.21 1221.03 1373.93 1234.33C1366.83 1275.77 1345.14 1306.83 1316.97 1315.91C1300.34 1321.27 1275.99 1319.12 1257.99 1310.69C1217.19 1291.59 1145.98 1234.36 1027.25 1125.27L1017.31 1116.14L1029.73 1098.21C1052.05 1065.94 1067.15 1035.32 1074.63 1007.11C1081.2 982.346 1076.49 977.74 1067.81 1000.43C1060.84 1018.67 1047.69 1046.31 1039.72 1059.48C1030.21 1075.18 1018.48 1092.45 1018.48 1090.74C1018.48 1089.96 1020.52 1079.59 1023.01 1067.71C1029.18 1038.27 1037.54 992.642 1041 969.457C1044.43 946.579 1046.19 913.457 1044.19 909.461C1042.05 905.201 1039.67 908.422 1038.6 917.004C1032.91 962.645 1008.24 1086.01 978.844 1215.82C970.894 1250.92 962.791 1298.13 959.041 1331.19C955.257 1364.54 955.304 1449.79 959.123 1483.51C964.754 1533.23 973.748 1578.49 985.571 1616.6L993.135 1640.98L985.706 1650.49C966.566 1674.99 920.838 1697.56 867.289 1708.94C852.323 1712.12 789.736 1714.77 775.227 1712.84C744.539 1708.77 733.577 1706.84 716.097 1702.46C678.72 1693.08 647.736 1680.61 605.484 1657.95C576.315 1642.31 521.854 1605.12 503.846 1588.56C491.269 1576.99 490.058 1575.3 490.064 1569.32C490.08 1552.44 504.188 1433.74 515.676 1353.83C522.174 1308.63 541.61 1186 543.895 1175.78C544.655 1172.38 546.004 1165.72 546.892 1160.97C547.945 1155.35 552.8 1144.92 560.824 1131.04C567.597 1119.32 576.477 1103.66 580.559 1096.23C585.988 1086.36 590.207 1081.14 596.277 1076.8C633.298 1050.37 685.242 983.315 668.698 983.315C667.424 983.315 661.232 989.927 654.939 998.01C636.978 1021.08 617.033 1042.47 602.431 1054.32C601.253 1055.28 602.483 1051.04 605.162 1044.91C620.133 1010.61 633.979 962.319 639.934 923.621C646.076 883.709 644.117 819.671 636.753 819.671C634.859 819.671 634.589 823.63 635.01 845.401C636.218 907.752 625.356 962.158 598.329 1029.11C586.314 1058.87 572.775 1084.73 544.17 1132.55C534.69 1148.4 522.994 1169.71 518.181 1179.89C506.211 1205.24 488.834 1254.28 479.53 1288.99C475.281 1304.84 471.328 1318.51 470.747 1319.36C470.165 1320.21 463.748 1318.15 456.488 1314.77C425.182 1300.22 389.145 1293.42 348.778 1294.43L319.406 1295.17L319.453 1285.9C319.528 1270.97 323.398 1230.95 326.917 1208.71C340.984 1119.82 377.19 1026.08 437.425 922.592C483.276 843.818 547.403 759.032 589.45 721.598C635.073 680.98 689.682 657.328 744.273 654.539L767.21 653.365ZM949.729 773.947C949.689 774.204 949.647 774.461 949.612 774.719C949.502 775.532 949.496 775.989 949.475 776.05L949.472 776.054H949.469H949.466V776.05L949.463 776.046L949.46 776.042C949.443 775.993 949.416 775.823 949.36 775.531C949.381 775.294 949.361 775.044 949.422 774.82C949.504 774.516 949.617 774.233 949.729 773.947ZM945.387 790.451H945.39H945.393H945.396H945.399H945.402V790.455H945.405V790.459H945.408V790.463V790.467C945.419 790.546 945.32 790.884 945.148 791.392C944.97 791.574 944.812 791.801 944.701 792.108C944.698 792.118 944.692 792.126 944.689 792.136C944.701 791.944 944.712 791.776 944.721 791.625C945.108 790.866 945.315 790.506 945.385 790.455L945.387 790.451ZM944.291 792.606C944.29 792.88 944.294 793.154 944.303 793.426C944.242 793.576 944.167 793.722 944.06 793.868L944.057 793.872C943.964 793.471 943.964 793.4 944.291 792.606ZM1325.66 1024.75C1325.69 1024.75 1325.73 1024.75 1325.76 1024.75C1328.29 1024.89 1342 1037.79 1346.23 1044.39C1370.29 1081.99 1372.98 1141.83 1352.71 1188.91C1341.69 1214.53 1321.04 1235.63 1299.05 1243.76C1267.51 1255.43 1228.97 1244.27 1198.63 1214.68C1173.73 1190.4 1157.56 1149.09 1159.64 1115.05C1160.47 1101.5 1165.68 1081.03 1167.82 1082.85C1168.47 1083.4 1172.35 1095.72 1176.44 1110.23C1184.89 1140.14 1189.99 1149.11 1203.38 1157.53C1220.46 1168.29 1248.06 1171.61 1269.22 1165.45C1294.52 1158.09 1319.09 1134.02 1328.71 1107.17C1333.28 1094.39 1333.59 1092.16 1333.59 1071.87C1333.59 1052.55 1333.14 1048.91 1329.47 1038.13C1327.21 1031.48 1325.35 1025.63 1325.35 1025.14C1325.35 1024.89 1325.46 1024.77 1325.66 1024.75ZM407.144 1154.97C404.876 1155.08 403.831 1156.65 403.536 1159.49C402.983 1164.81 406.968 1168.54 436.916 1190.7C449.266 1199.83 462.402 1209.72 466.107 1212.66C473.617 1218.64 479.193 1218.83 481.673 1213.21C484.049 1207.81 479.964 1203.88 444.939 1177.88C423.046 1161.63 412.133 1154.74 407.144 1154.97ZM610.539 1181.74C606.772 1182.04 609.077 1202.42 616.699 1234.2C623.516 1262.63 642.776 1316.14 656.129 1343.76C683.044 1399.43 718.913 1445.13 753.667 1468.03C761.79 1473.38 765.018 1474.62 766.49 1472.94C767.572 1471.7 768.096 1469.89 767.654 1468.91C767.212 1467.92 759.976 1460.68 751.577 1452.82C688.629 1393.89 649.541 1321.24 620.249 1208.71C616.712 1195.13 613.091 1183.35 612.202 1182.55C611.555 1181.97 611.001 1181.7 610.539 1181.74ZM342.907 1309.25C357.315 1308.7 372.61 1309.01 382.962 1310.41C407.585 1313.73 433.541 1321.03 454.88 1330.63L472.843 1338.71L472.58 1346.78C472.435 1351.23 469.4 1367.83 465.835 1383.68C459.452 1412.05 459.284 1412.5 454.871 1412.87C452.406 1413.08 447.021 1411.89 442.904 1410.23C428.968 1404.61 399.583 1397.34 380.781 1394.86C360.636 1392.21 328.809 1393.28 314.351 1397.1C309.125 1398.48 305.007 1398.67 304.205 1397.56C301.795 1394.25 299.678 1369.88 299.434 1342.62L299.197 1315.97L308.179 1313.26C314.977 1311.21 328.498 1309.8 342.907 1309.25ZM590.85 1387.79C590.19 1387.83 589.77 1388.52 589.444 1389.69C587.58 1396.37 602.304 1425.91 620.158 1451.3C645.385 1487.17 681.718 1522.26 714.6 1542.48C728.385 1550.96 736.026 1553.33 737.68 1549.65C738.916 1546.9 734.61 1542.75 718.343 1530.97C677.308 1501.26 638.455 1459.34 610.191 1414.29C597.741 1394.45 593.009 1387.65 590.85 1387.79ZM324.16 1408.89L358.084 1409.96C383.51 1410.76 396.133 1412.1 408.474 1415.31C426.983 1420.12 440.659 1425.3 440.659 1427.5C440.659 1428.31 439.304 1435.46 437.647 1443.38C433.246 1464.43 424.699 1520.85 422.765 1541.63C420.739 1563.4 421.605 1566.47 435.49 1586.79C454.404 1614.46 465.545 1640.02 472.124 1670.83C476.35 1690.62 482.464 1709.14 490.976 1727.92C498.761 1745.09 499.3 1752.91 492.906 1755.99C479.054 1762.64 461.634 1743.59 443.808 1702.28C440.017 1693.49 435.779 1686.01 434.39 1685.64C427.425 1683.82 422.192 1711.2 422.073 1750.08C421.971 1783.14 424.091 1799.83 433.382 1839.17C440.255 1868.27 440.434 1875.32 434.323 1876.29C429.156 1877.11 418.024 1862.43 411.193 1845.79C401.516 1822.22 394.253 1784.1 394.253 1756.88C394.253 1743.72 392.429 1736.7 389.014 1736.7C384.64 1736.7 383.321 1745.01 384.304 1766.43C385.882 1800.82 391.954 1829.53 403.305 1856.25C406.56 1863.91 409.223 1872.46 409.223 1875.23C409.223 1887.64 400.922 1886.13 390.607 1871.85C375.324 1850.7 364.097 1811.01 360.818 1766.54C359.03 1742.31 358.924 1741.84 355.292 1741.84H351.59L351.734 1766.54C351.938 1801.57 358.492 1832.84 371.919 1862.85C375.536 1870.93 376.097 1873.51 374.536 1874.87C371.807 1877.25 370.78 1877.11 366.033 1873.74C348.425 1861.22 331.517 1809.29 329.118 1760.37C327.889 1735.29 327.382 1732.58 323.92 1732.58C318.741 1732.58 317.466 1739.72 318.625 1762.23C319.896 1786.9 324.752 1814.7 331.218 1834.31C333.792 1842.12 335.548 1848.99 335.118 1849.58C333.58 1851.69 321.586 1838.24 316.07 1828.22C302.936 1804.35 297.672 1773.57 297.773 1721.26C297.856 1678.46 300.437 1656.3 310.491 1612.16C321.027 1565.91 320.964 1566.56 321.768 1495.86C322.174 1460.2 322.878 1426.04 323.332 1419.96L324.16 1408.89ZM543.226 1638.38C544.069 1638.37 547.431 1640.25 551.187 1642.87C586.221 1667.28 648.641 1698.29 687.655 1710.66C729.584 1723.95 785.789 1732.3 817.89 1730L832.111 1728.98L841.256 1748.79C846.285 1759.69 859.81 1788.52 871.312 1812.86C946.341 1971.64 1001.56 2104.36 1023.69 2179.07C1033.88 2213.47 1062.21 2321.12 1091.71 2437.59C1106.63 2496.46 1123.3 2562.23 1128.76 2583.74C1134.22 2605.25 1143.89 2640.91 1150.26 2662.99L1161.85 2703.13L1157.15 2704.75C1130.1 2714.13 1088.93 2735.61 1063.97 2753.36C1045.91 2766.21 1014.3 2794.45 999.386 2811.06C994.236 2816.79 989.795 2821.49 989.518 2821.49C989.241 2821.49 988.17 2817.55 987.138 2812.74C986.106 2807.93 976.969 2773.88 966.83 2737.09C956.691 2700.3 930.551 2604.89 908.741 2525.07C834.904 2254.86 831.221 2243.96 778.715 2140.15C752 2087.33 707.872 2004.55 673.405 1942.61C623.614 1853.12 597.657 1804.18 586.243 1778.26C574.035 1750.54 558.093 1707.2 552.403 1686.27C548.097 1670.42 542.096 1639.75 543.048 1638.44C543.079 1638.4 543.139 1638.38 543.226 1638.38ZM965.406 1687.3C965.627 1687.3 967.988 1694.47 970.651 1703.25C1001.5 1804.89 1017.77 1927.62 1014.79 2036.2C1014.2 2057.71 1013.26 2081.79 1012.69 2089.72L1011.66 2104.13L1006.63 2090.75C983.415 2028.99 924.494 1895.19 868.511 1777.1C856.236 1751.21 846.392 1729.75 846.636 1729.42C846.879 1729.09 855.164 1727.3 865.043 1725.44C900.113 1718.84 933.301 1707.02 955.442 1693.25C960.702 1689.97 965.185 1687.3 965.406 1687.3ZM706.098 2029.7C706.593 2029.02 746.323 2104.25 769.034 2148.86C797.181 2204.16 820.158 2257.3 828.286 2285.91L831.391 2296.85L824.278 2309.58C796.531 2359.26 754.824 2424.27 619.626 2628.58C596.618 2663.36 577.082 2691.75 576.214 2691.68C571.895 2691.35 553.274 2681.01 541.501 2672.39C501.65 2643.24 468.695 2600.57 451.284 2555.57C442.549 2533 442.52 2532.57 449.088 2521.37C471.23 2483.64 517.087 2411.56 614.43 2261.48C656.972 2195.89 669.29 2175.03 676.171 2156.96C683.098 2138.77 690.532 2108.87 698.87 2065.66C702.629 2046.18 705.881 2030 706.098 2029.7ZM441.857 2567.74L445.965 2576.77C453.006 2592.25 468.343 2618.23 477.521 2630.2C486.217 2641.55 507.038 2663.64 515.582 2670.58C518.01 2672.55 519.993 2674.66 519.988 2675.26C519.984 2675.87 516.72 2681.23 512.737 2687.17L505.495 2697.98H495.546C484.076 2697.98 473.47 2702.79 465.028 2711.83C461.916 2715.16 458.36 2718.33 457.125 2718.89C449.507 2722.3 428.342 2709.33 417.181 2694.42C407.005 2680.82 402.73 2666.11 402.063 2642.4L401.513 2622.85L421.687 2595.29L441.857 2567.74ZM384.628 2619.76H389.385L390.11 2642.92C390.993 2671.09 394.418 2684.97 404.162 2699.88C416.698 2719.05 439.778 2735.03 454.929 2735.03C459.802 2735.03 463.402 2733.02 471.337 2725.85C477.626 2720.17 484.032 2716.15 488.134 2715.3C498.953 2713.07 517.727 2715.33 522.257 2719.42C527.251 2723.92 531.344 2736.64 532.636 2751.68L533.624 2763.19L525.143 2761.07C519.105 2759.57 512.646 2759.66 502.721 2761.38C484.993 2764.46 480.78 2766.95 481.377 2774C481.883 2779.98 482.007 2779.99 509.863 2777.14C519.859 2776.11 526.474 2776.43 530.943 2778.15C536.72 2780.37 537.91 2781.93 541.451 2791.86C543.647 2798.01 545.441 2803.72 545.436 2804.55C545.432 2805.37 538.527 2806.07 530.093 2806.1C514.071 2806.14 496.2 2811.12 492.996 2816.43C492.078 2817.95 491.546 2821.34 491.815 2823.95C492.392 2829.54 493.688 2829.61 509.828 2824.87C516.174 2823.01 528.042 2821.49 536.2 2821.49H551.035L554.742 2835.79L558.447 2850.09L550.076 2851.25C525.853 2854.6 504.527 2862.29 502.858 2868.27C502.345 2870.11 502.955 2873.03 504.215 2874.77C506.209 2877.51 507.622 2877.57 515.123 2875.22C548.26 2864.85 552.751 2864.69 576.404 2872.95C603.044 2882.26 619.581 2894.19 634.625 2914.94C641.315 2924.17 648.753 2936.85 651.284 2943.35L655.857 2955.09L648.126 2957.3C643.874 2958.51 636.715 2960.43 632.215 2961.56C620.969 2964.38 549.387 2965.71 532.057 2963.42C499.049 2959.07 475.99 2950.24 460.388 2935.97C450.697 2927.11 405.714 2864.57 344.611 2774.99C328.83 2751.86 313.418 2723.26 313.418 2717.1C313.418 2713.1 325.879 2689.82 339.773 2667.86C358.491 2638.27 375.751 2619.76 384.628 2619.76ZM302.15 2724.75C302.996 2724.75 305.896 2730.63 308.594 2737.8C311.292 2744.98 316.594 2755.86 320.377 2761.98C332.59 2781.75 438.074 2930.9 447.372 2941.54C473.269 2971.19 509.482 2981.34 582.12 2979.31C613.319 2978.44 626.465 2977.23 639.753 2973.99C649.221 2971.68 657.445 2969.76 658.029 2969.74C658.613 2969.71 659.92 2973.49 660.932 2978.14C662.67 2986.11 662.571 2986.79 659.137 2990.36C654.65 2995.01 643.403 2999.4 624.783 3003.78C611.018 3007.01 547.008 3009.54 530.476 3007.51C498.164 3003.54 472.338 2994.85 453.456 2981.6C440.152 2972.26 431.84 2961.23 341.082 2832.48C305.73 2782.33 297.993 2770.29 294.016 2759.18C289.469 2746.48 289.354 2745.56 291.449 2738.67C293.557 2731.73 298.938 2724.73 302.15 2724.75ZM1396.42 2725.04C1400.87 2725.23 1404.86 2725.76 1408.01 2726.67C1417.62 2729.42 1432.85 2739.19 1436.73 2745.09C1439.2 2748.85 1438.95 2749.06 1429.1 2751.41C1398.08 2758.83 1363.29 2786.13 1284.94 2864.54C1184.42 2965.12 1128.85 3008.42 1077.04 3026.54V3026.56C1069.32 3029.26 1061.81 3031.46 1060.35 3031.46C1058.36 3031.46 1056.86 3027.74 1054.36 3016.54C1046.23 2980.11 1040.73 2945.4 1039.89 2925.13C1039.04 2904.64 1039.1 2904.12 1042.91 2898.89C1047.36 2892.76 1050.42 2892.4 1061.89 2896.63C1075.28 2901.58 1089.04 2900.69 1098.24 2894.3C1113.98 2883.37 1131.84 2863.42 1136.15 2851.95C1137.33 2848.81 1139.24 2838.82 1140.39 2829.76C1142.8 2810.82 1146.13 2802.35 1155.74 2790.71C1166.35 2777.87 1176.08 2772.25 1190.32 2770.74C1197.08 2770.01 1202.61 2770.01 1202.61 2770.72C1202.61 2771.43 1199.67 2775.73 1196.08 2780.28C1189.17 2789.03 1181.54 2806.78 1178.79 2820.46C1177.3 2827.9 1177.45 2829.05 1180.36 2832.35C1183.26 2835.66 1183.82 2835.7 1186.12 2832.83C1187.52 2831.09 1189.52 2825.74 1190.57 2820.95C1193.49 2807.48 1198.83 2796.38 1208.5 2783.7C1214.95 2775.25 1218.5 2772.08 1221.58 2772.06C1223.91 2772.04 1227.43 2771.44 1229.41 2770.71C1232.94 2769.41 1232.92 2769.57 1228.18 2779.04C1217.23 2800.92 1211.8 2826.05 1216.79 2831.75C1220.77 2836.28 1223.5 2832.23 1227.19 2816.32C1231.55 2797.53 1234.51 2790 1241.77 2779.17C1247.9 2770.03 1252.17 2767.26 1263.98 2764.79L1270.72 2763.39L1267.45 2768.26C1263.4 2774.29 1255.32 2797.52 1254.06 2806.75C1253.38 2811.69 1253.81 2814.57 1255.58 2817.01C1259.01 2821.72 1262.18 2818.49 1265.38 2807.04C1276.34 2767.83 1279.16 2764.4 1312.94 2749.07C1327.59 2742.42 1345.64 2734.65 1353.05 2731.8C1365.41 2727.04 1383.04 2724.5 1396.42 2725.05V2725.04ZM1135.26 2728.96L1143.39 2751.25L1151.52 2773.55L1145.02 2782.31C1136.02 2794.46 1131.17 2807.72 1129.15 2825.74C1128.2 2834.15 1126.52 2843.46 1125.42 2846.41C1122.79 2853.43 1103.78 2873.33 1093.33 2880C1083.69 2886.16 1075.94 2886.48 1062.06 2881.31L1052.5 2877.75L1047.71 2859.4C1045.07 2849.3 1039.77 2832.49 1035.93 2822.04C1032.1 2811.59 1028.97 2802.33 1028.98 2801.46C1029.01 2799.07 1048.81 2781.86 1065.03 2770.13C1082.49 2757.51 1106.26 2743.07 1122.9 2734.98L1135.26 2728.96ZM1451.77 2764.11C1458.55 2764.62 1460.8 2768.1 1464.73 2778.69C1468.83 2789.75 1468.5 2790.44 1459.71 2789.22C1451.14 2788.03 1438.88 2791.59 1422.62 2799.98C1401.14 2811.07 1366.77 2840.68 1304.4 2901.82C1204.5 2999.75 1141.48 3050.32 1100.61 3065.38C1087.47 3070.22 1067.66 3072.18 1062.23 3069.18C1059.79 3067.82 1055.9 3057.52 1055.9 3052.41C1055.9 3049.1 1058 3047.91 1069 3044.92C1121.23 3030.72 1189.38 2980.25 1277.34 2890.62C1368.84 2797.38 1407.49 2767.99 1443.25 2764.46C1446.74 2764.11 1449.51 2763.95 1451.77 2764.11Z" fill="black"/>
<path d="M833.623 581.034C827.951 581.171 820.527 581.701 813.525 582.361C814.434 582.868 815.04 583.311 814.987 583.539L813.368 587.805C812.593 589.826 809.309 598.467 808.59 600.055C804.216 609.717 798.104 617.562 792.179 625.375C788.747 629.68 785.834 633.388 782.338 637.564C779.341 641.145 776.223 644.566 773.307 648.279C773.275 649.176 772.984 650.468 773.175 650.992C773.31 651.364 773.681 651.502 773.815 651.873C774.359 653.368 773.245 660.77 773.815 661.554C773.966 661.761 774.305 661.346 774.456 661.554C775.482 662.965 773.781 668.498 774.456 670.354C775.739 673.884 774.78 678.728 775.736 682.673C776.226 684.692 775.052 687.83 775.736 689.712C776.938 693.017 775.781 697.755 776.377 699.393C776.511 699.765 776.879 699.903 777.014 700.274C777.35 701.197 776.503 703.974 777.014 704.676C777.165 704.884 777.503 704.469 777.654 704.676C777.95 705.083 777.461 706.786 777.654 707.318C778.35 709.232 779.31 713.926 779.575 716.118C779.715 717.276 779.408 718.485 779.575 719.636C779.634 720.043 780.12 720.123 780.215 720.516C780.566 721.963 779.718 724.432 780.215 725.799C780.677 727.07 781.034 728.046 781.496 729.317C781.752 730.021 781.24 731.254 781.496 731.958C782.598 734.988 783.523 738.418 784.695 741.639C785.542 743.969 786.837 746.496 787.896 748.679C788.695 750.327 788.378 751.433 789.177 753.081C789.547 753.846 790.249 754.873 790.454 755.719C790.589 756.275 790.319 756.923 790.454 757.48C790.645 758.267 791.465 758.498 791.735 759.24C792.313 760.83 793.908 764.679 794.296 766.28C794.431 766.837 793.994 767.626 794.296 768.041C794.447 768.248 794.786 767.834 794.936 768.041C795.37 768.638 796.823 773.696 797.495 775.081C798.913 778.007 801.485 779.887 802.617 783.001C803.01 784.081 803.316 785.328 803.895 786.523C804.685 788.152 806.462 789.177 807.096 790.921C807.192 791.183 806.945 791.594 807.096 791.801C807.965 792.996 807.674 791.421 807.745 791.234L807.748 791.23V791.226H807.754L807.757 791.222H807.76H807.763H807.766H807.769H807.772C807.835 791.254 807.995 791.623 808.38 792.681C808.822 793.895 807.605 793.469 809.021 794.442C809.211 794.573 809.507 794.235 809.658 794.442C809.809 794.65 809.507 795.115 809.658 795.323C809.809 795.53 810.147 795.115 810.298 795.323C810.692 795.864 810.722 797.375 811.579 797.964C811.961 798.227 812.558 797.549 812.859 797.964C813.01 798.172 812.859 798.551 812.859 798.845C813.073 799.138 813.249 799.491 813.5 799.721C816.859 802.8 820.402 806.228 823.739 808.522C824.507 809.05 824.892 810.635 825.66 811.163C828.142 812.87 830.991 817.908 832.7 819.083C832.891 819.214 833.189 818.876 833.34 819.083C833.677 819.547 833.643 820.38 833.98 820.844C834.457 821.5 835.424 821.069 835.901 821.724C836.052 821.932 835.901 822.312 835.901 822.605C836.115 822.898 836.288 823.255 836.539 823.485C837.333 824.213 838.337 824.459 839.1 825.246C839.824 825.993 840.211 827.327 841.021 827.884C843.878 829.848 847.181 833.004 849.979 834.927C850.519 835.298 850.687 836.422 851.26 836.684C851.664 836.87 852.136 836.499 852.54 836.684C852.668 836.743 855.955 839.915 856.379 840.206C857.166 840.747 858.318 840.231 858.94 841.087C859.091 841.294 858.789 841.76 858.94 841.967C859.58 842.847 861.833 842.587 862.779 842.847C863.441 843.029 864.046 843.503 864.7 843.728C865.114 843.87 865.599 843.465 865.981 843.728C866.251 843.913 866.335 844.473 866.621 844.604C868.474 845.453 870.494 845.501 872.381 846.365C874.294 847.242 880.534 846.25 881.982 847.246C884.756 849.153 889.593 848.126 892.861 848.126C897.888 848.126 904.59 848.423 908.863 845.485C909.375 845.133 910.269 845.837 910.781 845.485C912.341 844.412 913.703 843.04 915.263 841.967C916.026 841.443 917.884 841.001 918.462 840.206C918.612 839.999 918.311 839.533 918.462 839.326C918.612 839.118 918.911 839.457 919.102 839.326C920.915 838.079 922.775 834.275 924.221 832.286C924.911 831.338 925.795 831.003 926.142 830.525C926.41 830.156 926.589 828.417 926.782 827.884C927.161 826.844 928.233 826.217 928.703 825.246C928.917 824.66 929.127 824.072 929.341 823.485C929.341 823.192 929.245 822.867 929.341 822.605C929.725 821.549 930.878 821.02 931.262 819.964C931.747 818.628 931.852 816.99 932.542 815.565C933.24 814.127 935.271 810.694 935.741 809.402C936.122 808.353 936.445 805.797 937.021 805.004C937.172 804.796 937.511 805.211 937.662 805.004C937.982 804.563 937.882 802.059 938.302 801.482C938.453 801.275 938.791 801.689 938.942 801.482C939.083 801.289 940.682 797.583 940.863 797.084C941.172 796.233 942.803 793.987 943.421 793.562C943.612 793.431 943.911 793.769 944.062 793.562C944.442 793.039 944.438 792.526 944.702 791.801C945.131 790.622 946.23 790.581 946.623 790.04C946.774 789.833 946.472 789.371 946.623 789.164C946.994 788.654 948.81 787.913 949.181 787.403C949.332 787.195 949.03 786.73 949.181 786.522C949.332 786.315 949.631 786.653 949.821 786.522C951.101 785.642 951.743 783 953.023 782.12C953.39 781.868 953.758 781.614 954.128 781.36C945.968 764.453 936.989 748.243 931.841 728.991C930.357 723.446 929.372 717.672 928.136 712.013C924.197 688.771 924.926 665.247 927.417 641.966C927.323 641.568 927.37 641.288 927.51 641.094C927.614 640.141 927.72 639.188 927.829 638.236C927.322 637.873 926.729 637.459 926.04 636.985C920.829 633.403 915.116 629.475 909.965 625.933C907.706 624.38 906.865 620.117 904.606 618.564C897.271 613.521 890.166 608.634 883.172 603.825C881.575 602.727 879.076 605.562 877.813 603.825C877.181 602.957 878.445 601.011 877.813 600.143C876.55 598.406 873.717 601.88 872.454 600.143C871.822 599.274 873.085 597.324 872.454 596.456C871.215 594.753 866.034 597.568 864.416 596.456C860 593.42 855.338 592.059 851.02 589.091C847.899 586.945 846.104 583.867 842.983 581.721C842.065 581.091 838.488 580.917 833.623 581.034ZM1135.98 631.333C1118.59 632.205 1097.06 637.143 1088.74 643.052C1072.84 654.362 1056.55 690.548 1061.57 703.434C1067.94 719.818 1071.54 719.962 1083.27 704.314C1099.27 682.96 1118.83 670.908 1141.76 668.264C1167.11 665.342 1166.96 671.811 1141.51 679.714C1102.95 691.69 1080.71 715.475 1078.58 747.023C1077.38 764.78 1081.02 785.019 1085.41 785.019C1086.7 785.019 1089.97 778.248 1092.69 769.971C1102.4 740.369 1134.72 715.021 1162.77 715.021C1175.65 715.021 1178.32 721.053 1166.94 724.44C1137.78 733.118 1123.6 741.397 1113.05 755.908C1099.73 774.225 1094.71 795.004 1098.95 814.351C1102.32 829.776 1112.04 840.222 1115.68 832.335C1116.93 829.615 1117.98 824.866 1118 821.781C1118.12 804.707 1150.08 772.72 1170.11 769.625C1181.58 767.852 1181.28 775.821 1169.69 780.597C1144.59 790.939 1126.06 815.829 1126.09 839.181C1126.11 861.454 1140.56 880.294 1154.67 876.442C1160.78 874.773 1159.93 859.085 1153.36 852.115C1147.65 846.062 1151.71 842.072 1167 838.711C1180.56 835.728 1182.95 838.926 1173.92 847.974C1167.58 854.323 1167.07 856.475 1169.05 868.574C1172.04 886.778 1179.34 899.699 1191.22 907.825C1202.13 915.277 1204.09 921.341 1195.61 921.341C1187.62 921.341 1176.71 912.669 1168.26 899.603C1162.62 890.891 1158.61 888.181 1151.38 888.181C1138.2 888.181 1127.19 879.412 1119.6 862.865C1116.05 855.136 1109.51 846.743 1105.06 844.211C1097.5 839.904 1091.76 828.188 1087.34 808.048C1085.45 799.43 1083.6 798.703 1065.79 799.633C1054.22 800.237 1044.93 791.723 1041.64 777.501C1039.06 766.311 1042.63 763.555 1047.89 772.672C1058.06 790.28 1073.81 793.058 1071.36 776.813C1070.67 772.21 1069.36 760.574 1068.46 750.959C1064.97 713.931 1043.48 699.075 1026.74 722.104C1020.2 731.094 1018.91 735.877 1018.91 751.031C1018.91 773.566 1022.58 788.709 1034.1 813.716C1051.83 852.184 1085.57 889.229 1114.16 901.621L1128.24 907.724L1160.86 1016.77C1178.8 1076.75 1196.2 1129.65 1199.52 1134.33C1202.85 1139.01 1210.29 1145.16 1216.06 1147.98C1221.83 1150.81 1233.9 1153.2 1242.87 1153.29C1272.87 1153.58 1298.47 1137.42 1313.65 1108.61C1320.29 1096.01 1321.67 1089.83 1321.67 1072.71C1321.67 1047.28 1320.93 1045.32 1273.55 945.745C1236.65 868.174 1236.51 867.808 1232.2 834.759C1229.82 816.522 1224.82 785.848 1221.1 766.598C1202.89 672.296 1184.96 637.71 1151.33 631.932C1147.1 631.206 1141.77 631.042 1135.98 631.333ZM323.62 1409.5L321.547 1486.88C319.562 1560.91 319.042 1566.31 309.49 1612.14C299.723 1659 299.508 1661.39 299.508 1722.67C299.508 1780.24 300.008 1786.82 305.701 1804.12C311.526 1821.82 331.349 1853.27 334.204 1849.35C334.922 1848.36 332.365 1835.2 328.52 1820.11C321.271 1791.65 318.187 1739.36 323.532 1735.56C325.006 1734.52 327.52 1748.06 329.362 1766.97C335.04 1825.25 354.282 1875.19 371.177 1875.48C377.28 1875.59 377.266 1875.49 367.616 1849.2C358.44 1824.21 351.87 1787.21 351.799 1760.13C351.722 1730.54 357.82 1741.54 361.634 1777.87C365.533 1815 376.904 1852.4 389.942 1870.96C398.255 1882.8 406.208 1886.27 409.294 1879.4C410.169 1877.45 407.327 1866.17 402.982 1854.34C389.12 1816.58 379.05 1747.5 386.486 1741.18C391.332 1737.06 392.326 1740.45 394.766 1769.41C398.96 1819.2 413.206 1863.22 428.155 1872.58C440.377 1880.24 441.464 1872.47 433.222 1836.35C421.378 1784.46 421.171 1687.13 432.906 1687.87C434.691 1687.99 442.18 1699.95 449.548 1714.46C468.361 1751.51 487.387 1767.14 496.105 1752.69C498.405 1748.88 496.932 1742.07 489.819 1723.64C484.709 1710.4 476.863 1685.76 472.385 1668.89C463.385 1634.98 456.228 1618.4 437.537 1588.19C430.642 1577.05 424.323 1565.36 423.495 1562.21C421.655 1555.22 426.857 1509.75 434.736 1463.95C437.951 1445.27 439.863 1428.38 438.984 1426.43C435.531 1418.74 397.227 1410.77 360.746 1410.14L323.62 1409.5ZM442.13 2567.53L421.1 2596.28L400.067 2625.03L401.736 2645.44C402.654 2656.66 404.934 2670.02 406.803 2675.13C411.981 2689.28 424.244 2704.83 436.151 2712.34C450.276 2721.25 454.5 2720.98 467.827 2710.28C473.984 2705.34 485.263 2700.16 492.892 2698.79C503.217 2696.92 508.646 2693.58 514.13 2685.71C518.183 2679.89 520.984 2674.63 520.355 2674.03C484.603 2639.45 466.113 2615.28 448.317 2579.84L442.13 2567.53ZM1132.07 2730.35C1125.03 2730.4 1071.05 2763.51 1049.05 2781.28C1038.36 2789.9 1029.62 2799.42 1029.62 2802.43C1029.62 2805.44 1033.07 2817.38 1037.29 2828.98C1041.51 2840.57 1046.42 2856.26 1048.21 2863.84C1050.72 2874.49 1053.39 2878.39 1059.96 2881.01C1075.58 2887.22 1086.7 2885.4 1100.62 2874.36C1119.33 2859.53 1125.5 2849.1 1130.17 2824.47C1134.12 2803.6 1140.48 2787.77 1148.64 2778.46C1152.2 2774.39 1151.73 2771.22 1144.7 2752.08C1139.56 2738.05 1135.07 2730.33 1132.07 2730.35Z" fill="white"/>
</svg>
