<svg width="1800" height="3200" viewBox="0 0 1800 3200" fill="none" xmlns="http://www.w3.org/2000/svg">
<path fill-rule="evenodd" clip-rule="evenodd" d="M1308.53 3004.67C1314.57 2980.27 1305.69 2960.81 1280.19 2946.44C1277.99 2940.63 1228.7 2921.8 1189.54 2894.17C1154.35 2869.34 1128.83 2835.26 1127.76 2833.37C1127.76 2833.37 1119.85 2814.96 1118.95 2806.65C1114.62 2766.81 1117.13 2740.69 1114.45 2728.3C1132.45 2725.94 1176.69 1557.16 1169.54 1518.42C1181.26 1515.84 1193.68 1513.13 1204.86 1506.52C1205.75 1506.29 1204.28 1503.7 1204.32 1503.21C1232.35 1448.18 1189.36 1261.07 1162.41 1209.27C1183.81 1208.71 1212 1205.8 1225.24 1187.93C1231.52 1185.86 1235.47 1182.27 1238.51 1176.49C1242.02 1170.98 1245.27 1165.21 1248.2 1159.29C1262.46 1129.67 1271.26 1096.78 1266.5 1064.14C1267.41 1063.85 1272.07 1063.82 1272.31 1062.52C1272.76 1054.49 1271.29 1047.42 1268.88 1039.85C1244.4 954.491 1214.92 870.457 1175.96 790.099C1156.44 747.09 1116.05 731.395 1074.2 715.249C1054.06 707.337 1033.92 698.206 1012.91 693.025C1012.64 691.555 1013.9 687.082 1011.14 687.446C1007.74 688.156 1008.41 693.625 1007.15 696.694C958.561 656.915 989.374 636.418 960.076 614.632C929.76 598.895 892.788 598.256 859.363 601.662C847.032 602.018 837.165 607.577 834.257 619.991C823.657 645.675 798.82 664.579 771.724 670.374C769.485 666.388 763.329 654.957 759.881 658.565C720.748 659.901 661.415 674.268 624.787 685.017C588.017 694.408 550.819 711.554 541.199 751.51C523.744 822.709 551.514 1115.32 597.064 1171.67L598.545 1171.7C606.62 1179.96 617.596 1186.02 630.034 1190.08C629.755 1216.42 621.452 1242.14 617.32 1267.91C608.017 1314.63 600.867 1361.41 590.504 1408.38C590.458 1413.62 570.741 1485.24 590.18 1470.87C594.192 1472.85 599.107 1475 603.428 1476.84C582.776 1523.91 573.326 1599.86 574.79 1658.01C575.156 1692.63 573.724 1722.97 565.957 1758.43C508.494 2058.89 457.83 2730.93 456.639 2739.91C455.544 2748.5 462.816 2795.11 456.639 2807.4C451.158 2818.32 427.778 2811.87 423.306 2816.08C411.691 2835 417.008 2847.06 407.481 2865.94C402.595 2870.32 391.671 2879.88 388.087 2886.6C380.832 2893.59 260.677 2972.44 265.547 2984.41C265.547 2984.41 264.999 2990.15 264.815 2991.39C254.571 3051 271.629 3050.51 326.819 3059.28C407.441 3073.5 467.695 3046.14 535.831 3009.58C558.473 2994.31 590.655 2965.15 580.18 2930.62C579.891 2928.51 573.678 2892.19 571.214 2873.75C571.214 2873.75 577.892 2858.98 552.048 2860.82C556.298 2856.16 565.634 2795.71 562.449 2787.72C560.426 2767.12 563.567 2748.43 562.573 2727.23C573.399 2728.04 763.466 1826.88 882.684 1770.88C883.421 1776.87 881.991 1788.01 889.935 1789.12C926.81 2076.83 1015.47 2721.35 1019.54 2722.48C1013.43 2755.34 1013.62 2831.5 1013.5 2864.12C1012.57 2864.99 1008.28 2868.82 1007.58 2869.75C1007.44 2869.51 1004.65 2872.3 1004.5 2872.37L1004.12 2871.51C991.566 2899.83 973.263 2929 989.44 2956.75C977.434 2955.88 979.361 2978.98 978.824 2989.61C985.663 3010.42 1180.06 3066.56 1223.51 3069.23C1237.78 3071.72 1304.25 3050.57 1317.04 3047.53C1333.62 3044.43 1317.36 3013.62 1308.53 3004.67Z" fill="white"/>
<path fill-rule="evenodd" clip-rule="evenodd" d="M842.346 612.998C848.638 612.803 849.84 620.721 845.538 624.003L845.361 624.134C841.694 626.735 839.974 629.061 837.984 633.211C828.281 658.892 800.919 673.621 774.158 668.167C783.453 685.507 789.695 702.289 799 719.336C841.844 807.597 982.548 836.31 999.376 715.21C973.594 710.228 958.315 652.248 974.858 634.95L975.305 637.055C980.074 659.765 983.336 683.015 1000.55 700.138C1001.07 700.291 1001.58 700.338 1002.07 700.338C1002.73 697.229 1003.48 694.154 1004.42 691.138C1006.71 683.779 1018.18 685.163 1017.86 693.124C1052.19 703.586 1085.19 718.405 1118.02 732.721C1145.33 744.631 1167.65 765.935 1180.37 792.913C1216.02 866.708 1243.25 944.606 1266.99 1022.97C1268.58 1033.56 1286.33 1072.92 1272.01 1076.7C1275.52 1109.12 1266.54 1141.92 1252.66 1171.03C1246.22 1181.97 1241.67 1197.14 1228.73 1201.7C1215.3 1218.57 1190.74 1222.95 1170.29 1224.14C1197.79 1288.89 1235.16 1453.83 1209.89 1518.17C1212.13 1528.72 1183.01 1533.74 1175.22 1536.15C1181.5 1573.68 1180.13 1612.34 1177.42 1650.14C1152.06 1972.55 1147.25 2296.73 1173.93 2619.23C1175.5 2639.33 1177.19 2659.43 1178.98 2679.52L1180.06 2691.56C1181.48 2707.6 1182.69 2723.58 1182.32 2739.75C1182.2 2745.36 1177.55 2748.73 1172.9 2749.02C1157.28 2758.98 1136.31 2759.06 1118.24 2761.47C1121.43 2778.89 1123.22 2806.06 1128.8 2820.72C1140.43 2817.68 1147.92 2828.52 1136.34 2834.64C1150.6 2842.55 1157.94 2857.7 1169.35 2868.34C1200.72 2855.6 1206.56 2874.63 1180.93 2878.98C1187.9 2884.79 1195.29 2890.17 1202.94 2895.27L1203.48 2895.19C1212.53 2893.82 1229.57 2886.34 1233.85 2896.25C1235.77 2903.41 1226.92 2905.69 1220.51 2906.56C1226.2 2910.15 1231.91 2913.72 1237.62 2917.28C1242.61 2915.08 1247.57 2912.33 1252.66 2910.57C1265.2 2907.78 1266.28 2924.05 1249.92 2924.97C1260.17 2932.54 1274.31 2928.18 1280.87 2938.87C1304.84 2948.55 1316.17 2977.78 1310.57 3001.14C1318.99 3008.63 1324.9 3019.85 1325.58 3031.12C1327.2 3043.2 1317.59 3054.56 1304.57 3057.74C1289.9 3062.62 1275.02 3067.08 1260.18 3071.27L1258.63 3071.8C1246.4 3075.97 1233.04 3079.71 1220.32 3078.98C1144.89 3074.48 1044.31 3043.49 983.934 3004.94C968.876 2993.62 966.243 2965.63 986.967 2956.67C977.417 2939.36 981.98 2926.78 986.028 2907.92C988.839 2895.62 992.656 2883 999.565 2871.63C1000.18 2870.62 1001.65 2870.92 1001.73 2871.91C1002.64 2884.78 1001.44 2897.94 1000.48 2910.9L1000.37 2912.34C999.516 2924.29 997.58 2928.69 1000.82 2940C1008.58 2968.86 1083.38 2983.28 1112.77 2995.18C1135.85 3002.33 1159.28 3008.73 1183.03 3014.36L1184.77 3014.74C1204.83 3019.15 1225.48 3025.83 1246.6 3022.36C1257.55 3014.39 1273.99 3016.63 1284.76 3007.52C1300.99 2989.99 1288.23 2964.29 1276.85 2948.36C1265.85 2951.86 1256.45 2942.42 1248.35 2937.43L1248.05 2937.24C1239.78 2932.01 1231.53 2935.68 1223.25 2930.46L1221.38 2930.81C1190.95 2936.61 1167.4 2943.23 1215.92 2925.87C1207.93 2920.88 1199.92 2915.84 1192.15 2910.54C1176.22 2912.46 1158.76 2920.83 1143.94 2921.59C1153.91 2912.3 1167.51 2907.16 1180.33 2902.05C1172.87 2896.39 1165.77 2890.32 1159.42 2883.65L1153.35 2885.17C1116.08 2894.42 1101.44 2897.1 1151.61 2874.53C1141.74 2863.57 1140.14 2847.35 1129.29 2837.04C1111.84 2840.7 1095.81 2848.37 1081.6 2858.28C1075.86 2862.39 1071.53 2867.53 1066.98 2872.68C1045.41 2900.42 1012 2904.7 1001.8 2868.72C1001.62 2867.98 1002.78 2867.52 1003.1 2868.15L1003.14 2868.23C1008.02 2879.29 1023.77 2888.25 1036.93 2881.38L1037.33 2881.16C1050.19 2874.46 1056.17 2860.78 1066.3 2851.46C1079.98 2839.11 1097.12 2830.83 1114.81 2824.62C1110.52 2808.95 1109.07 2780.43 1109.56 2762.05C1079.78 2763.45 1049.8 2762.02 1020.55 2756.36C1025.24 2790.53 1022.16 2835 1024.31 2865.48C1027.42 2875.7 1008.48 2882.09 1006.47 2871.91C1005.35 2838.93 1008.58 2791.37 1013.6 2754.58L1011.5 2754.07C1009.51 2753.57 1007.43 2752.98 1005.73 2752.02C986.955 2754.14 992.076 2706.44 988.924 2693.02C967.743 2397.14 923.126 2103.91 885.209 1809.98C879.951 1807.97 879.018 1801.51 878.149 1796.12C830.369 1828.46 820.847 1893.1 799.459 1943.2C706.052 2202.62 664.318 2476.31 599.58 2743.45L599.936 2743.54C600.19 2743.62 600.193 2743.65 599.661 2743.62L599.539 2743.61V2743.63C603.539 2744.16 606.69 2748.36 604.249 2752.27C596.961 2766.98 576.758 2761.77 563.459 2760.84C564.75 2783.49 559.899 2832.37 562.973 2852.56C579.378 2852.86 580.421 2870.92 582.593 2881.65L582.762 2882.75C585.661 2901.09 595.404 2935.47 588.125 2950.3C599.376 2963.69 591.283 2981.87 579.611 2991.02C567.112 3000.25 551.554 3005.66 537.425 3012.78C470.926 3039.65 406.591 3091.45 325.101 3071.51L321.553 3070.76C264.44 3058.69 248.031 3053.33 259.373 2996.8C254.715 2985.32 254.684 2972.74 261.238 2962.58C272.926 2947.58 292.564 2939.37 308.19 2927.97C334.657 2910.19 362.826 2894.64 388.677 2876.13C387.716 2875.29 389.05 2874.99 389.834 2875.13C408.078 2860.84 406.371 2836.11 419.099 2818.47C422.282 2809.38 438.355 2807.16 448.94 2808.42C445.633 2791.48 461.788 2714.34 463.84 2768.83L463.839 2769.61C463.879 2778.02 465.257 2806.1 462.78 2811.6C497.914 2822.34 505.49 2856.09 513.009 2883.35L513.493 2883.48C515.893 2884.09 519.108 2884.6 520.308 2886.95C531.606 2879.77 534.763 2865.63 545.705 2858.03C542.636 2855.63 542.474 2851.05 544.04 2847.5C549.136 2828.81 552.191 2781.26 559.889 2760.39C523.72 2754.97 486.873 2752.21 451.549 2742.38C446.959 2746.89 437.539 2745.29 437.909 2737.15C448.849 2559.79 467.665 2382.97 491.384 2206.89C510.886 2042.06 545.194 1879.34 569.091 1715.38L569.294 1692.87C569.939 1625.23 571.746 1556.57 596.969 1492.88C594.749 1491.91 592.549 1490.91 590.379 1489.86C563.028 1501.19 584.577 1432.3 585.583 1419.89C599.024 1347.9 614.857 1275.93 624.952 1203.5C614.37 1199.67 604.599 1194.24 596.448 1186.35C547.03 1146.12 518.382 820.332 536.343 754.825C545.718 713.619 585.447 693.376 623.312 684.062L628.905 682.482C671.194 670.585 714.218 659.805 758.247 657.156C759.815 655.734 764.426 656.143 765.03 657.329C767.788 658.99 770.406 662.233 772.62 665.659C833.734 658.635 817.204 618.686 842.346 612.998ZM988.553 2959.28C979.997 2978.71 991.366 2993.49 1010.43 3001.66C1076.43 3032.27 1150.13 3056.86 1225.78 3061.56C1248.86 3055.98 1271.72 3046.75 1295.11 3041.04L1296.12 3040.86C1304.36 3039.35 1308.22 3037.83 1307.52 3029.28L1307.82 3025.82C1308.35 3019.68 1308.79 3013.54 1308.36 3007.4C1301.17 3024.61 1279.63 3034.07 1260.75 3037.54C1230.81 3051.75 1197.28 3037.3 1167.86 3031.22C1120.09 3016.69 1016.73 2993.86 988.553 2959.28ZM573.871 2959.69L572.883 2959.99C564.314 2962.64 555.602 2965.89 545.998 2963.5C503.098 2978.04 461.341 2994.54 419.898 3011.71C375.182 3033.12 303.18 3058.01 264.43 3006.27C270.001 3033.41 262.125 3042.69 299.122 3049.46C357.826 3068.6 404.995 3058.8 453.707 3032.64C489.396 3015.29 527.782 3001.49 562.327 2982.64L562.793 2982.31C569.588 2977.46 577.787 2968.61 573.871 2959.69ZM484.769 2842.86C473.568 2822.19 443.426 2810.85 421.009 2818.46C418.728 2838.39 424.637 2860.71 411.983 2878.01C423.188 2879.98 434.358 2882.24 445.51 2884.58L455.716 2886.74C460.725 2887.84 467.099 2889.71 466.262 2895.03C465.336 2900.9 457.63 2899.11 452.501 2897.63L450.513 2897.05C436.109 2892.81 421.729 2888.48 407.508 2883.63C400.012 2891.88 389.949 2898.36 380.19 2904.6L384.238 2905.06C398.419 2906.66 412.738 2908.1 426.749 2910.98C432.871 2912.79 431.55 2921.14 425.286 2920.47C408.558 2916.1 391.874 2911.17 374.859 2908.04C366.542 2913.54 358.264 2919.07 349.927 2924.54C366.324 2926.91 382.793 2927.13 399.182 2928.52C409.793 2929.5 409.79 2944.01 399.181 2943.17C380.036 2941.41 360.903 2935.75 342.675 2929.31L333.068 2935.63C321.856 2943 310.618 2950.34 299.269 2957.54C292.44 2961.89 283.62 2966.03 278.848 2972.33C263.778 2996.67 301.434 3019.93 326.88 3019.54C365.527 3019.95 397.715 2999.89 431.569 2987.87C450.296 2983.24 545.507 2935.57 554.171 2948.12C559.618 2945.5 567.194 2944.56 571.116 2940.24C571.91 2920.31 567.711 2899.43 564.187 2879.33C563.469 2875.82 561.753 2871.61 561.561 2868.01C545.701 2873.86 541.185 2896 520.309 2894.11C517.042 2899.33 506.98 2896.9 502.44 2892.76C497.499 2888.25 496.879 2881.9 495.7 2876.24L495.154 2873.64C492.937 2863.22 490.28 2852.54 484.769 2842.86ZM954.731 1152.43L952.18 1153.07C926.203 1159.57 899.028 1164.28 872.331 1162.53C867.716 1179.99 870.122 1221.53 851.351 1228.16C844.938 1230.58 835.288 1228.62 832.348 1222.07C793.521 1221.38 754.422 1217.91 715.593 1215.6C686.364 1213.3 656.038 1213.39 627.901 1204.52C631.31 1221.69 632.484 1238.54 630.576 1256.1C624.012 1330.98 602.406 1403.94 595.164 1478.5L594.83 1482.05L594.62 1481.93C594.62 1482.07 594.61 1482.21 594.599 1482.35C596.709 1482.96 598.819 1483.6 600.919 1484.25C601.669 1483.87 602.69 1484.24 603.229 1484.96C757.865 1533.06 922.002 1553.95 1083.17 1532.78C1111.39 1529.25 1139.42 1524.32 1167.24 1518.47C1167 1515.98 1170.79 1515.33 1171.46 1517.68C1177.63 1516.6 1183.81 1515.42 1189.95 1514.63C1189.21 1512.54 1189.08 1510.28 1189.84 1508.24C1201.82 1472.3 1196.35 1431.32 1192.57 1394.05C1187.75 1336.82 1175.74 1280.69 1166.04 1224.24C1120.12 1222.15 1074.47 1214.65 1028.32 1215.59C1023.46 1228.19 1006.51 1238.77 993.246 1231.57C983.878 1226.51 981.104 1215.48 977.344 1206.37C969.911 1188.34 962.321 1170.39 954.731 1152.43ZM760.144 658.864C711.919 673.111 662.511 683.285 614.725 699.097C575.011 708.993 547.9 733.911 546.226 776.407C542.949 867.44 552.929 958.933 567.993 1048.64L568.779 1052.69C577.137 1095.93 584.629 1139.92 600.413 1181.13C623.455 1191.84 649.617 1194.89 674.826 1196.13C711.613 1198.01 748.398 1199.93 785.153 1202.34L813.971 1204.21C822.332 1204.75 833.958 1203.32 840.241 1209.82C840.798 1210.73 841.931 1210.62 842.792 1211.19L842.96 1211.31C843.877 1211.93 844.801 1213.45 846.123 1213.15C848.273 1212.49 849.098 1208.2 849.603 1206.15L849.649 1205.97C852.448 1195.02 854.476 1183.83 857.061 1172.82C862.953 1151.15 865.491 1128.25 874.446 1107.52C861.627 1099.34 849.553 1089.98 839.199 1078.89L826.715 1074.49C796.847 1064.01 766.643 1053.85 735.513 1047.57C734.767 1054.41 724.961 1058.31 721.304 1051.16C715.242 1032.94 714.118 1013.16 709.938 994.387C700.449 938.366 689.175 882.549 682.612 826.082C700.706 876.094 710.081 937.478 723.91 991.529C724.551 991.156 725.438 991.373 725.465 992.258C774.428 973.741 828.788 974.495 877.108 994.145C889.212 999 901.505 1003.36 913.545 1008.37C917.657 1010.69 925.848 1010.55 927.229 1015.62C928.708 1012.18 930.696 1008.95 933.336 1006.77C934.16 1005.08 943.519 1002.04 944.433 1005.4C999.327 1012.94 1052.7 1036.82 1109.18 1032.79C1102.5 1008.39 1103.29 982.034 1102.84 956.833L1102.98 953.996C1104.14 929.169 1104.98 898.443 1113.4 878.013C1108.01 929.445 1111.92 980.963 1118.5 1031.92C1158.33 1026.78 1139.99 1049.56 1113.46 1048.7C1059.91 1052.56 1010.49 1028.88 961.205 1011.62C934.287 1000.86 931.236 1009.97 932.436 1035.55C932.461 1068.85 947.541 1099.24 961.201 1128.78L967.338 1142.58C977.538 1165.54 987.598 1188.36 997.508 1211.6C1040.81 1197.24 1089.55 1205.12 1134.41 1207.73C1168.63 1212.03 1193.21 1210.51 1222.16 1190.71C1232.61 1170.75 1246.37 1151.83 1251.75 1129.32C1257.99 1108.69 1260.07 1087.09 1261.89 1065.71L1260.25 1059.73C1239.14 982.98 1215.79 906.607 1183.88 833.506L1182.15 829.478C1171.33 804.162 1160.35 777.596 1138.46 759.863C1101.73 732.74 1056.3 720.71 1017.68 696.576L1017.43 698.342C1013.52 726.026 1006.75 754.725 989.028 776.999C956.288 817.201 894.472 818.332 852.575 792.222C808.989 768.123 782.84 723.254 770.118 676.353L769.969 675.838C768.778 671.658 765.462 659.002 760.144 658.864ZM878.51 1110.05C878.483 1124.8 875.574 1139.33 873.606 1153.88C896.265 1149.41 918.857 1146.29 941.143 1140.25C919.434 1132.04 898.338 1122.16 878.51 1110.05ZM823.949 991.148C790.908 984.68 757.08 988.549 724.409 993.759C727.959 1010.26 732.014 1026.62 735.404 1043.14C747.104 1042.61 858.091 1062.26 845.565 1078.04C861.948 1086.8 877.468 1097.1 893.776 1106.05C910.178 1115.05 927.254 1122.79 944.871 1129.07L943.942 1127.01C928.78 1093.13 914.615 1055.02 926.297 1018C910.588 1024.3 889.144 1010.76 873.924 1005.69C857.768 999.208 841.128 994.093 823.949 991.148ZM586.079 859.989C586.189 853.809 605.275 871.528 607.766 873.368L609.272 874.73C627.588 891.352 645.681 909.637 655.885 932.444C656.631 954.859 623.226 900.559 618.595 897.242C608.49 884.236 596.18 872.941 586.079 859.989ZM1114.23 912.749C1109.06 914.449 1123.16 896.935 1128.65 898.213C1130.84 897.894 1132.74 901.064 1130.32 902.154L1129.11 902.685C1123.47 905.132 1117.7 907.221 1114.23 912.749Z" fill="black"/>
</svg>
