<svg width="1800" height="3200" viewBox="0 0 1800 3200" fill="none" xmlns="http://www.w3.org/2000/svg">
<path fill-rule="evenodd" clip-rule="evenodd" d="M488.839 1491.74C488.998 1503.1 490.082 1529.2 492.796 1540.2C462.567 1489.27 417.273 1433.6 410.384 1371.22C412.531 1370.61 422.056 1369.68 423.719 1368.37C439.359 1376.01 436.4 1352.5 438.711 1341.63C444.953 1318.62 458.067 1295.98 463.765 1272.81C478.743 1266 448.665 1263.12 444.295 1262.98C462.462 1241.72 470.819 1212.49 483.754 1187.69C502.761 1145.53 519.784 1102.44 534.984 1058.68C538.306 1086.1 538.902 1113.82 536.877 1141.4C530.627 1259.51 488.416 1373.08 488.839 1491.74ZM1537.96 1281.93C1528.56 1283.59 1512.89 1285.16 1503.5 1285.97C1515.82 1278.25 1552.23 1263.54 1529.29 1250.33C1522.21 1247.61 1514.62 1251.49 1507.49 1252.68C1477.86 1257.81 1441.27 1257.54 1411.3 1254.96C1422.23 1245.53 1436.61 1231.95 1447.28 1222.2C1452.94 1217.01 1458.44 1215.05 1452.06 1207.31C1440.83 1196.31 1420.73 1204.41 1407.74 1209.24C1371.91 1230.35 1331.45 1253.24 1292.98 1269.48C1292.58 1263.81 1292.83 1256.49 1287.63 1252.68C1272.39 1245.13 1261.17 1247.34 1244.96 1245.33C1226.06 1242.35 1209.26 1238.97 1190.54 1233.71C1178.3 1223.9 1170.83 1194.95 1151.26 1198.19C1168.59 1152.32 1142.17 1104.47 1132.24 1060.55C1119.85 1015.61 1113.34 968.934 1113.17 922.202C1113.04 847.383 1071.82 789.975 1012.25 751.583C988.763 734.912 972.994 694.364 943.919 686.242C940.221 671.328 939.997 664.777 936.75 649.749C935.12 645.432 933.909 622.009 929.809 622.806C925.289 599.605 902.25 590.299 882.314 585.44C856.394 579.793 820.221 572.953 796.92 588.887C790.171 594.79 787.206 604.675 786.711 613.505C784.122 625.264 778.736 637.445 772.459 647.647C761.746 643.842 767.809 636.752 757.213 635.101C660.462 620.026 553.069 694.638 490.295 767.425C376.507 890.254 285.606 1057.93 300.486 1232.99C296.484 1232.37 278.747 1229.45 279.003 1235.34C279.871 1260.96 284.355 1282.33 285.593 1307.93C284.363 1341.84 317.878 1345.92 342.09 1354.29C340.599 1452.67 374.602 1551.09 427.823 1631.96C440.753 1647.88 460.154 1703.1 483.755 1681.1C486.536 1677.69 464.967 1654 461.13 1648.14C448.027 1630.81 413.319 1544.95 437.848 1527.81C443.301 1546.34 496.105 1635.45 505.517 1584.87C518.019 1592.5 538.677 1597.7 553.622 1596.92C581.716 1612.91 609.054 1630.19 636.035 1648.14C648.602 1674.09 667.036 1699.01 682.479 1723.92C575.6 1983.44 471.277 2410.59 333.737 2655.02C321.745 2670.99 387.717 2698.12 399.369 2703.97C377.085 2742.01 374.295 2786.09 357.342 2827.04C354.113 2826.5 350.856 2827.22 347.943 2828.86C327.03 2843.74 319.139 2897.04 317.946 2923.32C318.912 2935.04 314.778 2952.77 323.8 2961.4C322.539 2962.84 321.598 2964.59 320.928 2966.38C314.579 2971.57 315.361 2983.06 318.755 2990.17C330.696 3016.23 417.98 3013.81 446.306 3019.38C546.639 3028.32 630.851 3029.73 731.172 3019.96C743.485 3017.25 734.173 2997.05 728.093 2991.58C730.901 2989.78 732.697 2986.5 731.468 2982.29C708.662 2913.72 626.233 2918.36 576.355 2881.75C589.47 2873.77 581.005 2876.32 572.765 2879.42C564.02 2873.64 555.513 2867.14 547.633 2859.96C553.685 2856.03 550.7 2853.43 544.152 2856.72C533.832 2848.02 525.795 2834.58 512.649 2830.36C499.773 2827.04 499.773 2821.26 499.773 2817.61C507.436 2785.22 515.806 2752 520.108 2719.15C524.697 2726.27 564.293 2669.26 572.765 2655.02C605.684 2600.22 605.595 2546.21 628.632 2486.61C675.938 2356.81 772.841 2084.78 831.937 1960.64C970.207 2197.5 902.86 2517.84 988.157 2770.41C991.948 2778 999.077 2806.46 1008.95 2798.25C1012.79 2799.19 1016.87 2799.7 1020.52 2800.24C1019.47 2827.85 1017.5 2855.39 1013.13 2882.71C1009.07 2883.84 1005.61 2886.08 1003.82 2890C996.979 2884.72 983.871 2962.68 982.749 2970.63C982.732 2980.87 974.332 3003.68 982.004 3009.77C970.95 3014.52 969.143 3032.1 976.918 3041.14C1000 3073.75 1112.53 3064.79 1154.04 3070.26C1206.54 3068.89 1426.15 3089.55 1441.4 3037.2C1444.43 3025.25 1439.23 3010.16 1428.67 3005.56C1432.89 2995.18 1422.77 2985.16 1416.57 2977.88C1380.03 2937.93 1323.85 2931.63 1275.2 2914.25C1277.02 2912.29 1211.7 2877.11 1197.54 2868.41C1198.48 2856.6 1175.13 2868.44 1175.06 2868.41C1163.93 2847.73 1156.04 2815.54 1148.57 2793.23C1162.35 2788.74 1195.55 2784.75 1201.7 2770.41C1221.47 2763.44 1201.64 2733.29 1197.54 2719.15C1081.63 2414.28 1191.6 2029.72 1020.52 1741.97C1051.88 1723.09 1087.86 1681.77 1056.88 1647.11C1050.68 1638.78 1035.52 1612.84 1035.77 1617.37C1030.01 1592.67 1017.14 1550.12 1013.13 1525.14C998.417 1433.44 1008.06 1347.57 1020.52 1254.96C1037.82 1324.64 1097.43 1382.7 1158.07 1414.54C1181.74 1424.8 1212.99 1445.99 1238.98 1439.31C1262.43 1432.01 1305.02 1381.4 1310.04 1357.1C1378.4 1365.64 1449.38 1358.78 1514.71 1336.19C1523.1 1332.86 1533.02 1333.14 1530.43 1320.63C1527.85 1310.01 1509.4 1312.72 1501.47 1314.69C1513.59 1307.63 1545.06 1305.78 1544.82 1287.31C1544.41 1283.47 1541.71 1281.27 1537.96 1281.93Z" fill="white"/>
<path fill-rule="evenodd" clip-rule="evenodd" d="M786.948 597.81C787.988 598.253 788.698 599.916 789.118 602.414C790.276 602.794 791.268 603.693 791.566 605.047C792.444 609.028 791.418 613.179 790.628 617.148L790.538 617.605C789.79 621.447 788.875 625.266 787.757 629.01L787.593 629.958C784.872 645.433 779.626 660.146 773.465 657.647L774.888 660.372C799.063 706.496 868.117 830.341 922.032 812.689C953.429 799.459 952.98 756.456 950.684 726.527C927.372 741.559 923.011 626.489 927.79 613.773C931.595 610.831 933.43 637.301 934.846 640.95C937.935 655.47 941.723 669.803 945.279 684.202C952.796 685.767 959.905 688.916 966.191 693.431C966.491 693.612 966.799 693.776 967.093 693.964C970.865 696.377 973.808 699.455 976.432 702.864C979.397 706.352 981.933 710.17 984.329 714.095C989.593 720.384 994.612 726.906 999.799 733.262C1002.26 736.278 1004.78 739.203 1007.36 742.053L1009.34 743.808C1009.67 744.099 1010.01 744.389 1010.34 744.676C1069.9 783.773 1111.14 842.27 1111.26 918.465C1111.43 966.066 1117.94 1013.61 1130.33 1059.39C1140.26 1104.12 1172.33 1149.84 1154.99 1196.56C1174.57 1193.26 1176.38 1219.72 1188.63 1229.72L1192.47 1230.81C1209.67 1235.68 1225.45 1239.74 1243.04 1242.56C1259.26 1244.61 1278.01 1242.36 1293.25 1250.05C1298.44 1253.93 1296.58 1260.92 1296.99 1266.69C1335.45 1250.15 1369.99 1227.3 1405.82 1205.8L1407.02 1205.35C1420.29 1200.4 1443.95 1192.96 1454.85 1203.83C1461.22 1211.72 1454.79 1218.76 1449.12 1224.04C1438.46 1233.97 1427.14 1243.09 1416.22 1252.69C1445.66 1255.27 1475.19 1253.21 1504.3 1248.19L1505.89 1247.91C1513.02 1246.69 1521.43 1243.77 1528.51 1246.54C1551.45 1260 1524.9 1275.72 1512.58 1283.58C1521.97 1282.76 1531.34 1281.53 1540.74 1279.84C1544.49 1279.17 1547.19 1281.41 1547.6 1285.33C1547.84 1304.13 1524.27 1305.15 1512.15 1312.34L1513.13 1312.1C1521.05 1310.17 1532.44 1308.48 1534.92 1318.86C1537.52 1331.6 1521.17 1336.75 1512.79 1340.15C1447.46 1363.16 1376.48 1370.15 1308.12 1361.44C1303.1 1386.2 1260.51 1437.75 1237.06 1445.18C1211.08 1451.99 1179.83 1430.4 1156.16 1419.95C1095.52 1387.52 1039.33 1334.02 1022.04 1263.04C1007.5 1373.1 1013.38 1484.05 1035.2 1592.33C1038.73 1600.77 1042.45 1609.09 1046.65 1617.18C1047.91 1617.4 1048.99 1618.29 1049.23 1620.09C1049.36 1621.08 1049.55 1622.03 1049.77 1622.98C1053.94 1630.44 1058.52 1637.6 1062.76 1645.02C1063.64 1646.55 1064.51 1648.14 1065.3 1649.77C1093.58 1684.83 1059.11 1730.02 1028.28 1748.93C1199.36 2042.03 1088.86 2411.39 1204.77 2721.93L1205.03 2722.82C1209.43 2737.58 1222.83 2767.99 1203.45 2774.94C1197.3 2789.55 1166.29 2791.28 1152.52 2795.85C1159.98 2818.58 1168.28 2841.06 1179.42 2862.13L1179.62 2862.22V2862.22C1184.05 2858.8 1193.56 2855.25 1197.49 2858.99C1198.45 2859.11 1199.4 2859.4 1200.33 2859.88C1206.41 2863.06 1211.3 2869.14 1217.12 2872.96C1220.27 2875.03 1223.54 2876.91 1226.91 2878.55C1230.04 2880.08 1233.37 2881.09 1235.93 2883.6C1236.74 2884.4 1236.94 2885.41 1236.75 2886.34C1238.77 2887.44 1240.78 2888.54 1242.79 2889.66L1243.89 2888.94C1261.66 2877.29 1275.96 2870.98 1250.1 2893.35C1259.37 2897.86 1268.87 2901.8 1278.43 2905.49C1285.7 2901.82 1293.45 2899.14 1301.44 2898.77C1302.88 2900.64 1291.89 2907.86 1290.08 2909.85C1338.73 2927.56 1392.23 2941.43 1428.77 2982.12L1429.17 2982.6C1435.39 2989.98 1445 2999.97 1440.86 3010.32C1451.43 3015 1456.63 3030.37 1453.59 3042.54C1438.35 3095.87 1204.62 3074.82 1152.13 3076.22C1110.62 3070.65 998.096 3079.78 975.011 3046.55C967.239 3037.35 969.044 3019.45 980.098 3014.6C972.426 3008.4 980.826 2985.17 980.845 2974.73L981.021 2973.53C982.196 2965.74 987.29 2935.25 992.577 2913.94C992.685 2912.26 992.897 2910.54 993.153 2908.81L993.319 2907.71C994.37 2900.92 995.983 2894.01 1000.16 2888.55C1003.15 2884.63 1007.3 2882.21 1011.81 2881.33C1013.02 2873.22 1014.01 2865.09 1014.86 2856.94C1015.46 2847.37 1015.69 2837.77 1015.58 2828.18C1015.53 2823.33 1015.41 2818.49 1015.18 2813.65C1015.02 2810.08 1015.21 2805.85 1014.35 2802.21C1013.78 2802.83 1012.96 2803.16 1012.05 2802.83C1010.11 2802.13 1008.32 2800.84 1006.54 2799.78C1006.47 2799.74 1006.42 2799.7 1006.36 2799.65C996.841 2806.15 989.953 2778.34 986.25 2770.8C900.957 2513.53 968.301 2217.46 830.035 1976.2C810.947 2019.28 794.544 2058.79 776.171 2102.17C718.793 2237.63 647.958 2476.23 600.455 2619.66C587.53 2648.98 572.339 2677.32 554.28 2703.5C548.507 2710.38 544.634 2720.51 536.276 2724.21L535.545 2724.33V2724.33C533.315 2728.71 530.218 2732.4 525.614 2732.28C524.485 2732.25 523.333 2732.11 522.17 2731.9C518.089 2761.75 512.958 2791.78 506.137 2821.15L507.057 2820.75C511.522 2818.81 516.217 2817.16 520.799 2817.59C531.92 2820.55 527.802 2830.77 519.012 2834.14C529.954 2837.72 537.358 2847.8 545.482 2856.19C552.349 2852.3 560.046 2850.28 568.27 2851.13C569.529 2851.26 570.489 2851.84 571.157 2852.63C571.628 2852.64 572.086 2852.66 572.521 2852.74L571.626 2853.31V2853.31C573.087 2855.89 572.044 2859.82 568.27 2859.85C565.307 2859.86 562.455 2860.15 559.696 2860.68C557.781 2861.86 555.875 2863.05 553.996 2864.29C560.336 2870.18 567.087 2875.61 574.038 2880.57C577.71 2878.6 581.592 2876.95 585.63 2875.62C590.843 2873.91 593.119 2882.62 587.882 2884.2C586.771 2884.54 585.67 2884.91 584.576 2885.31L583.502 2886C583.251 2886.15 582.989 2886.32 582.716 2886.49C632.593 2923.78 716.901 2919.06 739.707 2988.89C740.462 2991.53 740.073 2993.8 739.013 2995.59C743.956 3000.36 746.236 3008.93 745.123 3015.51L745.218 3016.06C746.065 3021.38 744.846 3026.05 739.41 3027.27C703.138 3030.82 666.954 3033.08 630.524 3033.77L627.584 3033.8C575.39 3034.17 321.519 3032.17 310.067 2996.93C307.013 2990.4 306.072 2980.28 310.541 2974.46C311.059 2971.33 312.08 2968.48 313.896 2966.24C306.543 2958.43 310.159 2938.75 309.26 2928.83C310.874 2895.73 317.26 2860.23 336.501 2833.14C336.815 2832.71 337.195 2832.45 337.588 2832.32C340.948 2828.77 345.362 2826.53 350.411 2826.22C350.568 2825.81 350.728 2825.4 350.881 2824.99C354.806 2815.26 358.534 2805.35 362.237 2795.39C364.985 2784.07 367.852 2772.79 370.723 2761.56C373.593 2750.35 376.4 2739.12 379.146 2727.87C381.333 2718.91 383.215 2708.8 387 2700.23C386.897 2699.87 386.799 2699.5 386.686 2699.14L382.747 2697.46C356.947 2686.43 316.067 2667.83 325.049 2655.55C420.761 2446.4 514.45 2148.64 602.283 1931.81C603.656 1927.56 605.107 1923.33 606.7 1919.14C610.579 1908.95 614.509 1898.77 618.494 1888.62L620.891 1882.53L659.157 1785.71V1785.71C663.162 1775.57 667.678 1765.49 670.834 1755.02C673.876 1744.93 674.693 1734.9 668.915 1725.72C663.744 1717.5 656.458 1710.71 650.628 1702.99C646.22 1697.16 641.923 1690.92 638.072 1684.37C634.575 1679.53 631.651 1673.98 629.044 1669.5C624.864 1662.34 619.549 1654.4 616.516 1646.12C612.604 1643.52 608.684 1640.94 604.75 1638.39C597.956 1634.38 591.271 1630.19 584.764 1625.65C576.546 1620.51 568.276 1615.47 559.94 1610.53C556.931 1608.96 553.921 1607.4 550.906 1605.84C541.875 1606.66 516.926 1594.95 508.426 1587.03C507.455 1586.83 506.489 1586.59 505.528 1586.34C505.144 1591.4 503.572 1595.98 499.91 1599.38C475.556 1612.09 444.516 1554.53 435.961 1535.32C418.961 1552.79 459.525 1639.18 472.629 1656.85L473.328 1657.94C476.833 1663.46 480.507 1669.66 485.478 1673.74L485.98 1674.15C489.387 1676.8 490.02 1680.94 487.24 1684.42C463.639 1706.83 438.865 1657.63 425.935 1641.42C372.718 1559.04 338.714 1458.79 340.205 1358.58C315.995 1350.06 282.48 1345.9 283.71 1311.36C282.472 1285.28 277.989 1259.49 277.117 1233.39C276.865 1227.39 294.602 1230.37 298.604 1231C292.708 1171.05 301.617 1110.18 317.506 1052.56C359.221 905.12 530.998 639.383 700.073 629.789C699.926 629.499 699.995 629.109 700.375 629.005C708.027 626.915 716.484 627.249 724.348 627.512C732.533 627.785 740.853 627.845 748.994 628.817C757.433 629.824 766.368 633.085 772.036 639.539L773.999 635.814C776.279 631.464 778.475 627.071 780.134 622.271C780.974 619.846 781.632 617.332 782.232 614.792C782.911 611.168 783.081 607.396 784.712 604.105C784.755 604.019 784.809 603.948 784.856 603.868C785.442 601.794 786.113 599.763 786.948 597.81ZM994.459 3014.48C992.042 3017.06 987.853 3018.18 984.143 3016.95C971.814 3053.79 1038.71 3051.48 1060.18 3053.55C1083.07 3056.11 1500.08 3078.92 1429.56 3024.91C1346.82 3058.07 1070.08 3061.73 994.459 3014.48ZM1197.54 2868.41C1191.98 2874.45 1183.58 2877.14 1177.61 2882.9C1160.73 2897.91 1147.15 2919.04 1123.82 2923.02C1093.17 2929.03 1065.54 2913.12 1038.12 2900.53C1034.71 2900.36 1031.15 2898.84 1027.65 2897.72C1027.52 2897.98 1027.4 2898.25 1027.26 2898.5C1027.09 2898.43 1026.91 2898.37 1026.7 2898.33C1026.4 2898.28 1026.11 2898.25 1025.81 2898.2C1025.11 2897.61 1024.36 2897.11 1023.6 2896.69C1023.13 2896.62 1022.67 2896.56 1022.21 2896.53C1016.56 2896.16 1010.43 2897.55 1006.8 2902.47C1006.49 2902.89 1006.21 2903.33 1005.94 2903.78C1004.18 2910.33 1003.96 2918.25 1004.8 2923.79C1005.08 2925.6 1004.36 2927.38 1003.15 2928.41C1002.07 2955.81 999.131 2983.33 997.082 3010.37C1007.34 3014.25 1017.98 3017.2 1028.63 3019.07C1102.12 3028.57 1176.39 3032.98 1250.45 3030.59C1294.53 3028.92 1338.55 3024.77 1382.18 3017.89C1396.28 3016.49 1410.72 3010.76 1424.81 3013.07C1425.41 3011.88 1426.35 3010.86 1427.65 3010.17C1391.52 2958.15 1329.78 2944.09 1275.95 2921.29C1267.06 2927.26 1261.58 2939.71 1251.68 2943.41C1247.84 2944.02 1242.49 2941.64 1243.06 2936.51C1244.65 2926.01 1255.44 2921.22 1262.7 2915.13C1254.91 2911.3 1247.26 2907.14 1239.81 2902.52C1232.48 2909.46 1223.81 2914.74 1216.95 2922.15C1220.85 2932.16 1204.6 2931.29 1204.41 2920.64C1205.54 2908.85 1223.3 2903.87 1231.23 2896.99C1218.84 2889.07 1207.78 2879.07 1197.54 2868.41ZM324.784 2971.4C324.352 2972.29 323.647 2973.11 322.603 2973.74C320.796 2974.84 321.665 2980.65 321.755 2982.61L321.761 2982.75C321.86 2986.27 322.069 2989.78 322.358 2993.28C325.408 2996.17 329.307 2998.37 333.639 2999.69C465.571 3021.82 600.035 3023.62 733.241 3015.59C732.628 3011.86 730.039 3008.8 727.747 3005.69C643.537 3013.22 557.301 3005.34 472.95 2998.01C423.636 2991.2 371.968 2988.37 324.784 2971.4ZM516.862 2835.19C495.118 2843.06 474.885 2853.97 455.613 2867.06C448.451 2871.95 441.616 2877.57 433.383 2880.38C404.876 2889.4 362.136 2846.07 361.451 2845.58C351.551 2838.58 341.054 2845.11 335.668 2854.82C335.17 2855.72 326.913 2905.39 327.163 2929.73C325.682 2938 329.634 2951.52 327.531 2960.54C329.184 2962.63 331.542 2963.62 333.13 2965.81C333.705 2966.6 333.542 2967.49 333.045 2968.17C410.026 2974.83 486.558 2987.47 563.905 2990.14C616.842 2993.08 669.879 2992.4 722.824 2991.73C710.779 2954.55 669.749 2944.72 638.41 2932.48C614.731 2923.54 592.93 2910.21 573.748 2893.08C565.43 2899.22 558.87 2907.83 552.977 2916.47C550.299 2919.99 544.8 2922.64 541.933 2917.77C538.979 2912.72 544.745 2906.33 551.863 2900.74C555.607 2894.91 560.329 2889.95 565.766 2885.85C559.755 2880.22 553.967 2874.35 548.545 2868.11C537.301 2876.12 529.041 2887.64 520.953 2898.82C517.066 2903.28 509.797 2897.39 512.985 2892.36C515.54 2888.9 518.417 2885.71 521.496 2882.71C526.138 2873.5 532.821 2865 540.928 2859.12L540.31 2858.29C533.537 2849.15 527.682 2838.19 516.862 2835.19ZM325.282 2965.56C325.095 2965.8 324.899 2966.04 324.691 2966.26C324.877 2966.66 325.02 2967.08 325.125 2967.51L327.101 2967.67V2967.67C326.415 2967.07 325.81 2966.35 325.282 2965.56ZM1145.29 2797.36C1104.95 2805.36 1063.29 2808.44 1022.58 2801.83C1027.29 2829.47 1030.25 2857.29 1028.7 2885.36C1089.57 2903.83 1114.86 2934.63 1165.5 2873.07C1163.05 2869.16 1161.64 2864.35 1160 2859.71C1153 2839.58 1147.22 2818.76 1145.29 2797.36ZM404.494 2706.69C403.919 2708.03 402.881 2709.13 401.387 2709.62C400.854 2712.09 400.304 2714.57 399.716 2717.03C398.728 2729.77 394.156 2742.39 389.428 2754.14C389.103 2754.96 388.784 2755.77 388.463 2756.58C385.344 2766.35 382.075 2776.1 378.85 2785.87C376.407 2796.01 374.254 2806.23 372.005 2816.42C371.571 2823.34 370.637 2830.19 369.202 2836.97C369.135 2837.28 369.046 2837.57 368.947 2837.85C371.201 2838.91 373.377 2840.13 375.429 2841.37C437.182 2890.15 426.517 2857.54 485.809 2830.23C485.468 2827.6 486.718 2825.24 487.737 2822.52L487.868 2822.17C487.93 2821.99 487.992 2821.82 488.054 2821.65C487.956 2820.61 488.013 2819.5 488.274 2818.32C494.279 2792.5 502.641 2767.12 510.468 2741.85C511.72 2738.05 513.171 2734.33 514.653 2730.62C477.059 2730.11 439.873 2719.59 404.494 2706.69ZM637.639 1660.27C978.729 2107.42 904.005 2160.15 977.448 2675.65C984.582 2715.78 999.08 2753.86 1008.67 2793.23L1010 2793.09C1011.31 2792.96 1012.56 2792.88 1013.48 2793.19L1013.52 2793.2V2793.2L1017.3 2793.15C1061.43 2792.52 1105.75 2790.09 1148.85 2779.52C1164.1 2776.7 1178.95 2769.32 1194.2 2767.77C1194.27 2765.69 1195.2 2763.75 1196.48 2762.62C1078.84 2470.08 1160.81 2135.9 1058.74 1838.39C1049.05 1808.62 1037.52 1779.51 1025.58 1750.66C894.4 1833.12 747.791 1739.74 637.639 1660.27ZM388.23 2719.24C387.502 2722.61 386.71 2725.94 385.988 2729.16L384.924 2733.95C386.438 2729.1 387.632 2724.19 388.23 2719.24ZM683.414 1739.46C683.64 1746.85 681.944 1754.3 679.645 1761.26C672.28 1783.53 662.846 1805.24 654.4 1827.09C648.669 1841.91 642.989 1856.76 637.248 1871.59C552.22 2110.39 447.847 2430.49 344.87 2656.8C383.669 2680.41 426.211 2697.11 470.222 2706.16C480.442 2709.76 509.667 2709.92 520.011 2715.61L522.366 2713.18V2713.18C522.774 2702.99 533.76 2695.73 538.158 2686.8C558.012 2657.39 573.838 2625.24 588.195 2592.56L590.541 2585.39C628.708 2468.54 678.519 2307.69 730.997 2171.71L732.621 2167.51C754.368 2111.43 768.663 2059.74 794.91 2017.31C796.341 2015.03 797.788 2012.74 799.245 2010.46C800.318 2008.19 801.401 2005.93 802.502 2003.67C807.208 1994.02 812.283 1984.59 817.071 1974.99C819.112 1970.9 821.137 1966.28 822.209 1961.55C780.516 1884.56 730.832 1812.59 683.414 1739.46ZM745.858 636.09C732.773 639.436 719.365 640.803 706.205 643.579C615.509 654.949 545.975 722.559 486.078 789.688C372.617 914.966 306.603 1069.11 311.475 1243.33C351.994 1251.09 392.094 1262.45 433.377 1264.93C427.377 1255.38 437.425 1243.43 440.883 1234.28C500.595 1113.01 546.7 979.129 584.139 851.45L583.122 857.023C571.366 921.103 557.673 984.911 536.772 1046.47C542.827 1040.21 642.283 957.057 634.51 984.552C604.123 1009.52 569.803 1029.3 537.964 1052.21C575.821 1185.15 521.091 1319.84 510.693 1452.83C508.08 1482.4 508.307 1512.18 504.796 1541.64C503.46 1544.97 504.866 1551.75 502.9 1554.92C504.356 1562.73 507.418 1569.86 513.738 1575.96C516.399 1578.53 519.303 1580.76 522.356 1582.74C529.978 1583.95 537.634 1587.04 543.842 1589.89C557.655 1596.25 569.812 1605.63 582.158 1614.58L582.489 1614.82V1614.82C602.396 1625.57 622.283 1637.79 642.244 1650.53L643.135 1651.02C650.56 1655.11 658.151 1658.81 664.62 1664.49C664.915 1664.75 665.111 1665.04 665.24 1665.35L677.364 1673.22C774.476 1736.22 874.605 1798.53 988.463 1753.56C1020.45 1740.01 1066.96 1712.57 1060.99 1670.14C1059.81 1666.06 1058.02 1662.24 1055.99 1658.52C1055.43 1657.72 1054.85 1656.94 1054.27 1656.16C1049.86 1650.3 1044.92 1644.92 1041.09 1638.59C1039.53 1636.02 1038.13 1633.36 1036.91 1630.63C1036.04 1630.36 1035.28 1629.72 1034.79 1628.61C1029.31 1616.04 1023.94 1603.46 1018.95 1590.67C958.335 1368.56 1031.9 1129.91 1052.72 905.877C1054.16 893.049 1056.28 880.089 1056.28 867.168C1056.28 866.562 1057.11 866.581 1057.16 867.168C1064.5 924.347 1058.93 982.058 1051.95 1038.98C1043.02 1110.19 1031.28 1181.1 1023.21 1252.44C1044.65 1324.34 1104.71 1376.3 1167.77 1407.46C1178.49 1412.82 1189.46 1417.59 1200.65 1421.8L1201.4 1422.07C1213.69 1426.59 1227.56 1433.58 1239.42 1424.42C1262.17 1408.19 1278.24 1383.42 1292.98 1359.56C1287.02 1358.88 1281.04 1358.29 1275.07 1357.86C1260.39 1375.51 1242.4 1390.49 1223.43 1402.73C1215.69 1407.39 1206.91 1405.42 1203.33 1396.3C1199.96 1387.7 1204.09 1377.64 1207.08 1369.35L1207.51 1368.13C1222.66 1325.2 1248.96 1285.85 1284.47 1258.96C1257.68 1253.33 1229.85 1253.51 1204.15 1242.38C1205.55 1243.93 1203.71 1245.66 1202.82 1246.97C1203.14 1249.51 1201.38 1251.37 1199.22 1252.06C1178.25 1280.86 1162.35 1314.96 1159.04 1351.49C1159.92 1363.93 1149.33 1378.3 1139.13 1365.23C1131.15 1328.87 1162.53 1272.05 1190.12 1249.61C1162.45 1229.65 1170.52 1200.84 1153.15 1200.71C1148.66 1209.77 1142.8 1218.44 1135.42 1225.16C1132.09 1228.02 1128.03 1230.16 1124.45 1232.69C1120.69 1235.36 1116.77 1229.5 1119.75 1226.29L1120.53 1225.29C1131.86 1211.05 1145.32 1197.05 1147.66 1177.78C1151.04 1154.05 1140.89 1130.01 1133.11 1108.33C1118.2 1066.78 1108.31 1023.54 1103.5 979.413C1098.04 939.878 1104.68 898.871 1091.8 860.614C1089.24 849.96 1085.56 840.256 1081.05 831.251C1080.94 831.157 1080.84 831.061 1080.74 830.944C1075.38 824.431 1071.1 817.187 1066.11 810.366C1060.89 803.231 1055.23 796.441 1049.23 790.016C1039.21 779.28 1028.14 770.322 1016.61 761.696C1016.39 761.615 1016.18 761.51 1015.96 761.376C1013.8 760.034 1011.73 758.404 1009.72 756.613L1009.53 756.471C1002.82 751.57 995.976 746.252 990.741 739.599C985.602 733.067 981.945 725.45 977.749 718.256C972.014 710.902 966.547 703.023 959.631 696.895C955.718 694.548 951.647 692.335 948.155 689.399C947.584 689.148 947.003 688.909 946.412 688.684C947.9 695.061 950.152 700.928 952.18 707.406C955.118 706.102 959.139 707.547 959.633 712.305L959.816 714.081C962.766 743.218 964.26 778.476 947.958 803.704C912.061 858.412 858.444 811.703 831.327 773.235C806.992 742.555 786.534 708.428 771.426 671.752L771.176 671.267C768.363 665.655 762.266 648.54 760.543 640.315C756.187 637.904 750.886 636.736 745.858 636.09ZM630.931 1655.74C630.822 1655.89 630.698 1656.01 630.563 1656.12C635.654 1663.72 640.505 1671.58 645.504 1679.21C641.405 1672.17 637.552 1665.07 634.141 1657.9C633.073 1657.17 632.001 1656.46 630.931 1655.74ZM346.002 1360.47C365.459 1471.5 393.265 1588.31 470.743 1671.32C446.63 1635.62 427.879 1593.95 422.423 1550.3C422.197 1538.58 426.256 1526.21 438.589 1524.47C440.694 1524.18 442.293 1526.16 443.044 1527.92L443.117 1528.1C447.968 1540.27 454.277 1551.84 461.746 1562.45L462.479 1563.45C468.116 1571.11 492.041 1602.34 495.379 1587.42C492.935 1511.96 418.734 1480.84 406.582 1376.92C385.791 1374.6 366.061 1366.3 346.002 1360.47ZM505.517 1580.7C505.597 1581.88 505.636 1583.05 505.619 1584.21C506.721 1583.73 507.854 1583.35 509.013 1583.05C507.836 1582.28 506.673 1581.5 505.517 1580.7ZM504.417 1572.56C504.825 1574.73 505.169 1576.92 505.381 1579.09C507.498 1579.79 509.593 1580.57 511.677 1581.37C510.414 1580.18 509.212 1578.92 508.086 1577.58C506.773 1576.01 505.542 1574.33 504.417 1572.56ZM533.092 1057.48C517.894 1102.06 500.871 1145.95 481.865 1188.88C469.103 1214.01 460.589 1243.29 442.929 1265.09C442.757 1265.26 442.584 1265.43 442.407 1265.58L442.7 1265.59C447.962 1265.83 476.554 1268.79 461.877 1275.59C456.179 1299.19 448.713 1322.25 442.47 1345.69L442.331 1346.37C440.047 1357.71 437.159 1380.55 421.832 1372.93C420.169 1374.26 418.173 1375.2 416.026 1375.83C422.915 1439.37 461.154 1480.74 491.383 1532.61C484.625 1505.23 486.6 1476.64 488.953 1448.69L489.536 1441.81C502.026 1313.64 547.861 1187.6 533.092 1057.48ZM660.031 1464.9C635.395 1432.62 514.221 1113.09 599.854 1306.67C630.289 1374.07 655.341 1446.22 705.551 1500.82C709.023 1504.74 704.449 1511.63 699.937 1508.47C683.73 1497.09 670.613 1482.01 660.031 1464.9ZM572.332 1078.69C572.23 1078.17 572.862 1077.89 573.139 1078.33C606.063 1146.64 629.57 1220.04 666.771 1286.28C689.226 1327.3 716.171 1365.53 747.027 1400.01C749.345 1402.6 745.858 1406.18 743.347 1403.88C655.264 1318.48 612.44 1194.34 572.332 1078.69ZM1221.53 1359.91L1221.48 1359.92V1359.92L1220.67 1362.12C1220.4 1362.86 1220.12 1363.61 1219.83 1364.37C1219.97 1364.31 1220.1 1364.25 1220.24 1364.19C1220.53 1363.88 1220.82 1363.57 1221.11 1363.25C1221.04 1362.13 1221.17 1361 1221.53 1359.91ZM298.953 1233.69C294.481 1235.53 288.987 1235.88 284.043 1236.33C289.578 1263.73 294.356 1291.34 299.366 1318.82C301.682 1327.25 307.127 1330.21 314.664 1332.89L320.721 1334.92C348.999 1344.44 377.436 1354.22 406.594 1360.06C408.644 1358.66 411.556 1358.73 412.917 1360.98C414.335 1361.12 415.791 1361.2 417.23 1361.34C425.021 1331.11 438.352 1301.81 456.191 1276.73C406.329 1278.42 356.106 1264.6 308.672 1249.15C306.751 1250.13 304.221 1249.52 303.411 1247.2L302.68 1246.98C294.717 1244.5 284.158 1238.4 300.893 1241.5C299.882 1239.02 299.321 1236.36 298.953 1233.69ZM1445.49 1211.31C1412.44 1205.57 1387.18 1233.71 1358.97 1246.63C1342.08 1254.24 1297.08 1277.86 1280.72 1270C1258.28 1292.69 1239.34 1319.2 1226.1 1348.95C1229.71 1348.72 1233.32 1348.55 1236.93 1348.43C1243.47 1346.23 1250.45 1346.11 1257.24 1348.24C1325.26 1349.02 1393.32 1362.91 1461.06 1345.31L1462.62 1345.01C1476.54 1342.23 1524.05 1331.68 1526.76 1321.34C1526.05 1316.83 1513.27 1321.59 1510.81 1322.1C1491.29 1326.14 1471.45 1328.07 1451.67 1330.09C1446.16 1330.65 1446.23 1321.66 1451.67 1321.09C1475.48 1318.6 1498.05 1309.2 1519.9 1299.43C1522.22 1298.35 1528.37 1296.1 1532.63 1293.19C1512.44 1296.8 1491.64 1297.43 1471.21 1296.66C1464.18 1295.71 1463.68 1284.48 1471.21 1284.7C1485 1286.3 1498.18 1279.15 1509.43 1271.6L1511.88 1269.93C1530.65 1257.07 1529.34 1256.51 1505.62 1261.29C1470.77 1267.96 1435.5 1267.71 1400.31 1265.17C1395.28 1265.08 1391.82 1257.98 1395.97 1254.17C1412.18 1239.47 1429.55 1226.35 1445.49 1211.31ZM1285.73 1264.87L1285.35 1265.25C1284.54 1266.07 1283.87 1266.79 1283.5 1267.17L1283.35 1267.32C1282.86 1267.82 1282.37 1268.32 1281.88 1268.82C1284.04 1269.58 1286.42 1269.63 1288.88 1269.23C1287.4 1268.25 1286.3 1266.66 1285.73 1264.87ZM664.788 1147.27L664.708 1147.16L664.894 1147.37C686.154 1171.55 707.703 1210.76 725.317 1241.67C727.639 1267.02 675.561 1161.87 664.788 1147.27ZM1199.79 1240.7C1199.99 1240.97 1200.19 1241.24 1200.38 1241.53L1200.67 1241.95L1201.13 1241.66C1201.29 1241.55 1201.47 1241.49 1201.65 1241.44C1201.03 1241.2 1200.41 1240.95 1199.79 1240.7ZM1102.51 1158.17C1121.64 1161.32 1082.53 1186.3 1077.36 1189.88C1074.06 1191.2 1042.62 1218.47 1044.53 1209.62C1059.25 1189.76 1079.55 1166.62 1102.51 1158.17ZM354.195 1105.83C361.271 1093.86 399.777 1109.62 411.949 1111.51C418.791 1113.41 425.558 1115.65 432.474 1117.25C437.878 1119.31 463.076 1117.31 453.828 1128.54C444.179 1133.99 431.581 1129.77 421.699 1126.88C402.038 1121.23 382.309 1114.65 362.175 1111.52C361.571 1111.2 361.534 1111.42 362.063 1112.16C366.394 1122.28 375.502 1131.77 385.762 1135.02C386.47 1135.24 386.172 1136.38 385.455 1136.19L384.766 1136.03C373.227 1133.33 348.299 1120.5 354.195 1105.83Z" fill="black"/>
</svg>
