<svg width="1800" height="3200" viewBox="0 0 1800 3200" fill="none" xmlns="http://www.w3.org/2000/svg">
<path fill-rule="evenodd" clip-rule="evenodd" d="M1367.24 3016.58C1374.27 2983.82 1342.09 2972.75 1321.8 2965.46C1307.26 2956.03 1253.41 2923.38 1211.74 2883.08C1177.64 2850.1 1154.43 2807.83 1144.77 2803.8C1144.77 2803.8 1134.82 2798.03 1133.79 2793.75C1127.74 2768.63 1132.79 2745.23 1133.79 2730C1153.19 2724.91 1168.73 2718.56 1180.36 2709.67C1183.75 2710.8 1188.83 2712.25 1190.35 2707.29C1200.85 2637.2 1205.39 2567.93 1213.93 2497.78C1246.29 2230.6 1249.94 1918.46 1194.28 1674.43C1193.69 1662.34 1194.75 1651.41 1195.82 1641.02C1203.35 1640.21 1207.9 1632.92 1214.05 1628.57C1223.59 1620.98 1234.88 1615.16 1234.42 1601.91C1236.68 1600.19 1236.42 1599.23 1235.3 1597.04C1242.58 1565.75 1210.12 1532.78 1200.94 1506.98C1217.63 1343.79 1194.93 1189.57 1207.59 1026.34C1223.59 1019.65 1212.83 977.809 1211.74 960.552C1202.88 849.378 1145.09 739.46 1041.02 703.141C1035.07 701.935 1026.13 695.135 1021.2 699.701C1011.69 695.932 999.031 703.363 991.668 694.808L991.742 694.752C985.542 686.155 982.763 675.226 980.725 664.892C981.066 667.804 981.635 670.692 982.336 673.515C964.395 622.951 959.875 609.431 902.118 607.05C876.101 606.702 841.805 607.483 826.635 632.297C820.419 643.832 822.318 657.077 818.46 669.219C811.378 691.5 780.808 680.733 764.759 692.303C636.311 733.501 530.952 817.593 496.321 952.566C489.241 968.834 481.211 985.025 475.292 1001.81C474.376 1004.31 471.856 1012.74 477.908 1016.62L480.835 1018.5C442.281 1198.7 439.723 1350.54 569.25 1470.68C578.97 1522.3 553.965 1592.79 563.577 1642.91C558.1 1650.68 565.045 1656.94 572.047 1657.44C572.722 1657.82 575.45 1659.01 576.194 1659.35C565.051 1816.66 611.835 2028.67 632.457 2112.34C635.264 2162.58 618.117 2203.85 582.843 2231.23C543.87 2255.24 466.82 2363.65 481.104 2477.37C464.411 2480.65 447.839 2482.44 431.824 2488.72C361.75 2476.35 362.445 2611.44 357.98 2658.94C350.418 2738.47 345.718 2853.74 421.271 2904.65C441.175 2919.09 481.533 2935.99 502.214 2912.88C508.991 2904.74 510.688 2896.87 508.022 2888.56C542.172 2840.31 532.969 2777.2 536.106 2720.61C546.009 2720.01 556.37 2724.66 565.949 2722.97C575.781 2714.3 539.913 2716.66 536.193 2716.15C536.574 2707.43 537.276 2698.24 538.182 2689.44C543.808 2690.57 551.015 2693.27 556.425 2693.47C559.627 2694.25 561.89 2689.84 559.957 2687.56C555.735 2683.53 544.97 2684.16 538.912 2683.58C539.935 2676.22 541.186 2668.48 542.576 2661.35C549.987 2661.09 557.64 2665.81 564.657 2664.84C559.346 2661.3 549.377 2662.38 542.903 2660.04C547.113 2637.1 555.691 2615.32 563.666 2593.86C583.234 2601.93 600.115 2602.25 619.218 2599.83C627.032 2601.03 630.842 2599.43 632.107 2589.66L631.608 2589.04C646.749 2498.44 695.607 2412.07 786.36 2314.12C804.286 2294.06 824.543 2270.43 838.04 2244.02C865.161 2189.06 869.793 2128.41 890.69 2071.33C910.2 2013.96 936.877 1959.08 961.924 1904.7C965.597 1932.57 970.531 1961.16 975.66 1988.5C998.234 2085.35 996.046 2188.68 979.433 2286.07C954.853 2422.48 966.701 2559.53 961.234 2696.9C961.309 2704.82 962.291 2712.02 961.129 2720.26C960.975 2720.9 961.275 2721.65 962.027 2721.63L963.446 2721.67C975.26 2730.32 991.576 2731.88 1005.46 2736.58C1011.29 2741.19 1009.65 2748.5 1010.18 2754.2C1011.71 2778.77 1013.66 2803.44 1011.24 2828.76C1000.52 2849.29 987.22 2845.05 984.499 2873.98C982.117 2907.01 977.903 2942.14 993.989 2971.55L987.903 2972.6C978.871 2991.56 984.385 3003.86 1005.61 3011.88C1110.41 3052.97 1257.88 3090.27 1367.24 3059.26C1369.22 3061.23 1372.11 3059.18 1374.37 3056.09C1376.55 3053.11 1378.14 3049.16 1377.78 3046.87C1375.91 3036.81 1378.48 3018.44 1367.24 3016.58Z" fill="white"/>
<path fill-rule="evenodd" clip-rule="evenodd" d="M1372.23 3049.49C1278.06 3091.77 1107.06 3038.42 1014.53 3007.55C989.58 2998.54 981.269 2996.78 988.259 2968.02C1001.34 2993.26 1029.47 2999.36 1056.42 3004.42C1147.71 3025.23 1240.78 3063.65 1338.41 3044.9C1352.74 3042.65 1366.92 3034.89 1371.09 3020.57C1373.66 3026.64 1372.07 3034.86 1373.1 3041.53C1373.29 3044.19 1373.35 3047.07 1372.23 3049.49M991.359 2892.2C993.059 2875.24 995.779 2857.33 1005.43 2842.35C1004.38 2866.58 1018.93 2907.76 1050.81 2894.04C1059.84 2889.26 1064.9 2879.62 1070.71 2871.88C1090.02 2846.42 1114.78 2824.31 1142.75 2808.25C1158.31 2810.93 1165 2839.38 1175.03 2851.29C1163.85 2856.27 1143.59 2867.62 1141.54 2879.37C1155.5 2874.67 1168.35 2865.92 1182.99 2862.85C1187.68 2869.32 1192.65 2875.6 1197.87 2881.66C1191.05 2884.67 1163.55 2898.57 1163.73 2905.51C1178.6 2903.09 1193.01 2895.81 1207.96 2892.82C1214.61 2899.42 1220.66 2906.51 1227.28 2913.13C1217.28 2917.25 1206.72 2921.85 1201.26 2931.45C1201 2931.88 1201.64 2932.37 1201.99 2931.95C1209.48 2922.92 1222.37 2921.26 1233.54 2919.23C1250.68 2935.37 1269.87 2949.6 1291.35 2960.25C1312.84 2972.01 1345.5 2974.69 1354.05 3000.18C1360.89 3025.67 1339.56 3028.39 1319.88 3030.19C1299.97 3033.02 1279.92 3033.45 1260.14 3031.8C1198.31 3029.22 1139.86 3011.02 1081.43 2995.11C1009.99 2981.96 986.809 2971.32 991.359 2892.2M1012.31 2743.17C1012.14 2744.29 1011.99 2745.41 1011.83 2746.54C1011.63 2745.35 1011.49 2744.15 1011.2 2742.98C1011.57 2743.04 1011.94 2743.11 1012.31 2743.17M1127.73 2800.08C1100.36 2820.33 1073.64 2842.88 1054.63 2871.11C1042.05 2894.09 1025.31 2880.1 1021.15 2861.7C1017.78 2820.62 1020.68 2785.14 1016.73 2743.81C1054.58 2748.97 1093.46 2745.79 1130.43 2736.66C1125.98 2755.11 1123.94 2762.11 1123.8 2781.04C1124.04 2787.28 1123.95 2794.89 1127.73 2800.08M1189 1287.86C1189.81 1348.33 1190.19 1408.82 1188.09 1469.27C1134.86 1331.69 1151.15 1182.4 1143.59 1037.79C1159.32 1032.55 1176.22 1030.26 1192.43 1028.02C1185.92 1117.78 1187.6 1197.96 1189 1287.86M888.169 1593.36C757.469 1530.87 739.389 1370.65 635.9 1282.38C632.559 1279.2 629.79 1275.93 628.179 1272.08C635.599 1197.11 635.059 1131.38 643.83 1056.49C653.629 1038.71 657.5 1018.06 664.799 999.138C668.62 987.618 673.259 976.208 674.359 964.118C675.279 960.138 669.059 958.408 667.9 962.168C654.089 989.008 647.219 1018.86 636.91 1047.16C635.459 1047.74 633.529 1047.28 632.959 1045.76C632.87 1046.13 632.769 1046.5 632.679 1046.87C588.309 1029.53 542.559 1013.38 494.219 1013.5C494.25 1013.35 494.29 1013.19 494.32 1013.04C491.339 1013.13 485.089 1012.89 486.959 1008.57C529.449 853.618 605.74 747.408 767.57 696.958C746.879 817.188 1048.02 824.148 1043.86 712.238C1157.3 760.978 1206.17 897.868 1193.31 1013.13C1182.53 1010.22 1154.46 1021.67 1143.51 1028.32C1141.28 981.518 1146.82 925.038 1143.56 883.188C1126.3 1096.57 1094.09 1351.89 1200.54 1545.5C1207.45 1558.48 1218.72 1570.9 1218.44 1586.14C1219.27 1586.98 1219.35 1588.45 1218.34 1589.53C1218.34 1589.6 1218.34 1589.67 1218.33 1589.74C1218.28 1589.75 1218.22 1589.75 1218.16 1589.75C1215.07 1593.43 1208.57 1594.16 1204.1 1594.97C1193.54 1597.1 1182.43 1598.72 1172.76 1603.62C1069.73 1657.71 988.919 1587.98 888.169 1593.36M920.73 1691.68C925.709 1701.19 934.07 1708.84 943.98 1713.62C942.759 1716.02 942.339 1718.72 942.209 1721.25C924.359 1724.9 929.379 1733.37 917.32 1737.41C909.429 1739.59 901.839 1740.52 895.019 1745.3C871.809 1766.92 866.049 1765.33 841.139 1746.31C841.48 1744.59 807.58 1711.48 797.08 1692.97C788.33 1677.53 779.169 1661.98 765.759 1650.04C700.089 1582.8 630.129 1519.34 566.559 1450.24C439.16 1323.29 463.469 1179.34 492.73 1020.77C539.959 1026.41 587.449 1037.74 629.98 1058.54C614.98 1128.53 614.019 1191.97 607.559 1262.99C605.609 1271.77 607.809 1288.68 620.25 1284.78C734.599 1375.57 747.889 1562.14 897.949 1616.09C959.109 1640.95 933.299 1661.13 953.509 1708.07C942.389 1706.03 932.469 1696.71 927.689 1687.79C925.32 1683.36 918.419 1687.26 920.73 1691.68M575.089 1636.6C572.5 1618.81 574.519 1601.1 574.639 1583.28C573.25 1550.83 574.33 1519.2 575.58 1486.64C611.439 1523.79 648.719 1559.68 685.339 1596.14C646.339 1601.06 601.359 1605.11 575.089 1636.6M574.429 1662.77C575.04 1662.57 575.639 1662.3 576.189 1661.97C576.049 1675.93 576.269 1689.89 576.779 1703.83C575.799 1690.15 575.019 1676.46 574.429 1662.77M530.559 2655.07C520.04 2654.26 475.049 2652.71 469.65 2659.77C475.73 2662.34 484.089 2660.92 490.629 2661.21C503.33 2661.73 516 2662.85 528.57 2664.63C527.629 2669.53 526.779 2674.42 526.08 2679.33C513.4 2680.54 488.709 2681.09 480.66 2689.96C495.019 2692.25 509.969 2690.19 524.379 2693.05C523.679 2699.77 523.169 2706.5 522.79 2713.23C517.049 2713.84 483.29 2719.43 483.32 2724.74C495.959 2726.42 509.349 2724.21 522.23 2725.46C519.439 2765.79 528.9 2887.58 473.779 2895.03C425.589 2892.49 404.449 2814.39 397.9 2776.92C383.379 2689.62 385.87 2596.54 414.65 2512.39C424.929 2488.99 452.91 2484.93 476.57 2483.72C477.469 2487.68 478.359 2491.57 479.359 2495.49C469.099 2518.75 465.83 2544.94 465.549 2570.11C467.719 2606.29 512.359 2633.19 544.779 2609.29C538.719 2624.09 534.04 2639.49 530.559 2655.07M466.79 2915.34C371.339 2894.82 355.679 2784.28 362.24 2703C367.589 2646.42 361.16 2527.13 413.389 2493.89C345.889 2555.51 351.75 2975.01 501.339 2901.79C497.609 2913.61 478.429 2917.02 466.79 2915.34M485.49 2520.94C485.66 2519.48 485.849 2518.03 486.049 2516.57C496.639 2545.34 514.779 2572.68 541.79 2589.34C531.449 2602.24 511.309 2606.08 497.719 2595.52C474.019 2577.75 483.9 2545.6 485.49 2520.94M810.849 682.998C810.66 683.328 810.459 683.658 810.259 683.978C808.939 684.068 807.609 684.188 806.259 684.338C807.79 683.878 809.32 683.448 810.849 682.998M992.24 693.558C992.189 693.408 992.139 693.258 992.099 693.118C992.219 693.188 992.339 693.268 992.469 693.348C992.37 693.408 992.309 693.478 992.24 693.558M1381.5 3031.98C1381.24 3024.82 1381.14 3015.58 1372.76 3013.04C1376.56 2982.2 1350.96 2964.64 1324.08 2956.1C1301.16 2942.08 1275.17 2932.28 1254.11 2915.38C1263.89 2913.54 1273.67 2911.32 1282.36 2907.07C1288.92 2903.86 1285.76 2893.17 1278.65 2894.16C1266.06 2895.82 1254.75 2902.22 1242.92 2906.67C1236.2 2901.15 1229.69 2895.39 1223.54 2889.29C1231.2 2887.81 1240.94 2888.35 1245.4 2880.75C1246.79 2878.37 1246.17 2875.9 1244.49 2874.07C1236.73 2866.21 1221.35 2874.06 1211.71 2876.34C1207.08 2871.01 1202.61 2865.56 1198.22 2860.06C1205.5 2859.39 1224.44 2860.72 1220.73 2848.7C1213.62 2839.3 1198.33 2844.94 1188.05 2846.87C1175.01 2830.84 1170.81 2806.24 1150.43 2797.42C1149.7 2793.53 1144.62 2793.83 1141.23 2794.98C1136.24 2771.16 1136.62 2759.05 1138.08 2734.63C1153.21 2730.44 1168.22 2724.94 1180.8 2715.92C1186.58 2717.62 1193.59 2715.66 1194.79 2708.87C1198.39 2684.94 1200.4 2657.33 1202.92 2632.89H1203.84C1208.63 2588.31 1212.49 2543.6 1217.91 2499.14C1248.94 2242.13 1255.7 1928.43 1198.26 1674.52C1197.81 1664.9 1198.49 1655.27 1199.46 1645.72C1206.31 1643.89 1210.39 1637.2 1216.06 1633.33C1226.6 1624.74 1237.32 1619.93 1238.29 1604.94C1240.42 1602.91 1240.67 1599.84 1239.5 1597.18C1242.23 1581.79 1238.21 1566.51 1230.02 1553.21C1221.04 1538.06 1212.56 1522.77 1205.07 1506.87C1221.45 1346.61 1199.23 1191.29 1211.38 1030.23C1226.96 1021.98 1217.18 976.138 1215.73 960.858C1206.63 860.508 1159.78 749.708 1060.17 707.968C1053.18 702.068 1043.42 700.068 1034.88 696.818C1029.11 693.978 1019.72 691.518 1015.77 698.128C1011.58 696.178 998.089 694.688 993.469 691.308C992.609 690.678 992.059 689.988 991.929 689.218C991.589 689.228 991.189 689.158 990.759 689.068C986.5 683.048 982.439 641.118 977.189 644.108C971.459 658.508 975.429 674.778 980.91 689.318C984.689 702.178 989.87 735.258 1009.95 726.798C1013.41 725.078 1011.27 720.608 1008.17 720.248C998.65 717.528 996.529 703.538 992.849 695.338C997.209 698.958 1017.07 704.388 1019.24 705.538C1062.32 804.418 801.849 799.228 781.37 731.058C766.769 707.508 779.37 694.748 805.4 690.968C786.269 712.228 810.49 716.948 819.699 696.098C828.509 681.168 832.519 663.028 829.509 645.848C831.059 639.818 832.37 631.758 823.349 633.378C823.04 632.578 822.549 633.208 822.74 633.778C819.449 639.018 821.74 646.548 820.57 652.598C819.58 662.498 816.769 672.198 812 680.958C803.15 682.648 794.339 684.458 785.57 686.438C780.309 675.748 746.189 697.068 737.029 699.578C615.339 735.528 522.799 831.268 490.5 952.028C483.29 968.108 475.509 984.268 469.609 1000.85C466.969 1008.03 466.969 1016.94 474.219 1021.59C438.889 1183.66 430.269 1352.52 563.74 1474.08C566.769 1487.24 564.75 1501.2 564.66 1514.6C565.779 1545.12 539.699 1649.72 569.99 1663.25C561.139 1798.75 594.33 1983.12 626.5 2113.84C628.879 2158.77 615.33 2199.64 578.859 2227.99C509.519 2279.83 480.309 2366.36 472.199 2448.82C471.049 2457.27 472.179 2465.87 474.08 2474.17C459.049 2476.97 444.98 2478.79 430.389 2484.3C349.919 2468.88 355.66 2641.77 349.5 2693.07C344.679 2768.91 347.689 2859.82 417.379 2909.48C440.809 2926.16 482.169 2942.18 505 2916.92C511.459 2909.19 514.98 2900.15 512.439 2890.27C545.169 2842.34 537.439 2781.08 539.889 2726.54C548.459 2726.84 557.799 2730.66 566.24 2728.56C572.74 2726.84 573.57 2718.5 568.07 2715.18C560.129 2710.68 549.339 2712.39 540.459 2712.09C540.73 2706.87 541.12 2701.65 541.62 2696.43C550.049 2698.49 562.129 2703.44 564.639 2691.66C565.65 2680.93 552.099 2680.11 543.66 2679.65C544.25 2675.6 544.91 2671.57 545.66 2667.55C552.12 2668.2 558.939 2672.32 565.29 2670.35C568.889 2668.93 570.139 2665.29 567.509 2662.34C562.62 2657.55 554.259 2658.51 547.79 2657.02C551.719 2637.77 558.82 2619.36 565.66 2600.95C578.04 2605.25 591.449 2608.09 604.66 2607.01C611.509 2605.57 618.99 2605.16 625.91 2606.09C633.609 2604.05 635.389 2595.82 636.4 2589.1C636.25 2588.86 636.099 2588.63 635.929 2588.42C653.719 2484.82 717.54 2395.32 789.099 2318.21C808.809 2296.15 828.139 2273.21 841.529 2247.01C868.73 2192.25 873.609 2130.64 894.419 2073.75C911.949 2022.09 935.379 1972.55 958.349 1922.94C967.559 1988.28 984.759 2052.55 986.73 2118.81C989.73 2202.64 971.259 2285.25 963.379 2368.41C951.994 2456.35 958.059 2544.73 957.337 2632.89H957.827C957.64 2654.15 957.063 2676.32 955.74 2697.52C955.79 2705.27 956.79 2712.57 955.689 2720.32C955.08 2724.61 958.16 2727.3 961.4 2727.39C973.299 2735.2 988.25 2737.97 1001.93 2741.31C1005.72 2744.21 1004.08 2751.35 1004.75 2755.72C1006.22 2780.27 1008.16 2798.79 1005.77 2823.55C992.389 2843.33 982.75 2840.17 979.029 2870.24C976.98 2901.64 972.469 2935.58 986.189 2964.08C980.049 2965.48 977.719 2984.22 978.639 2989.17C980.199 3003.16 992.529 3007.58 1004.45 3012.41C1091.56 3045.05 1276.65 3098.78 1366.16 3061.83C1372.57 3065.46 1379.72 3058.35 1381.79 3052.62C1384.53 3045.65 1382.01 3038.9 1381.5 3031.98" fill="black"/>
</svg>
