<svg width="1800" height="3200" viewBox="0 0 1800 3200" fill="none" xmlns="http://www.w3.org/2000/svg">
<path fill-rule="evenodd" clip-rule="evenodd" d="M968.042 568.159C960.675 570.292 952.768 570.483 945.259 568.28C938.448 566.281 931.455 561.882 926.442 556.062C921.989 550.891 919.105 544.608 919.219 537.901C919.232 537.135 919.506 536.495 919.927 535.999C920.38 535.465 921.014 535.098 921.693 534.939C922.391 534.775 923.128 534.833 923.757 535.119C924.326 535.377 924.813 535.816 925.118 536.457C925.888 537.469 926.655 538.466 927.426 539.435C933.62 547.084 939.618 552.799 948.932 554.849C953.985 555.962 959.032 555.469 963.663 553.771C968.62 551.954 973.102 548.76 976.613 544.671C978.2 542.824 980.073 542.07 981.905 542.057C983.982 542.043 986.034 543.007 987.579 544.549C989.099 546.065 990.116 548.124 990.209 550.279C990.29 552.17 989.673 554.145 988.032 555.907C982.626 561.711 975.621 565.964 968.042 568.159ZM967.814 472.367C975.366 476.957 986.872 487.66 978.748 499.04C969.186 509.073 955.418 497.569 948.634 492.366C942.343 488.334 935.275 498.704 941.112 503.413C990.136 539.708 1010.03 473.567 971.634 466.97C967.406 466.243 965.836 470.947 967.814 472.367ZM897.175 452.17C894.748 450.618 891.893 450.085 888.729 451.525C886.256 452.649 881.919 456.398 878.901 461.325C876.836 464.697 875.372 468.651 875.677 472.771C875.748 473.728 875.394 474.433 874.837 474.955C874.396 475.367 873.76 475.669 873.013 475.764C872.379 475.844 871.669 475.772 871.091 475.592C869.993 475.249 869.412 474.536 869.193 473.955C867.08 468.343 867.99 462.08 870.358 456.43C873.555 448.805 879.359 442.418 883.162 440.358C889.67 436.833 897.347 436.671 903.864 440.262C909.411 443.319 912.88 448.253 916.33 453.283C917.063 454.353 917.791 455.414 918.544 456.457C920.051 458.546 920.201 460.619 919.617 462.396C918.971 464.364 917.321 466.025 915.259 466.895C913.353 467.699 911.141 467.812 909.183 466.986C907.529 466.288 906.012 464.929 905.051 462.622C903.434 458.736 900.739 454.45 897.175 452.17V452.17ZM1020.44 460.814C1018.78 461.68 1017.48 461.942 1015.63 461.389C1014.61 461.083 1013.61 460.496 1012.82 459.707C1012.04 458.925 1011.47 457.953 1011.25 456.874C1010.71 454.211 1009.26 451.719 1007.18 450.095C1005.41 448.706 1003.17 447.97 1000.68 448.385C998.002 448.833 995.449 450.552 993.69 452.579C993.102 453.257 992.641 454.027 992.178 454.792C991.311 456.223 990.469 457.553 989.274 458.603C988.821 459.003 988.138 459.28 987.477 459.28C987.208 459.28 986.935 459.236 986.676 459.155C984.008 456.478 983.495 454.446 983.581 452.431C983.671 450.319 984.504 448.179 985.85 446.184C989.007 441.502 995.003 437.663 999.048 436.793C1004.59 435.603 1010.09 437.032 1014.5 440.126C1019.04 443.31 1022.41 448.254 1023.45 453.825C1023.71 455.167 1023.6 456.615 1023.09 457.871C1022.59 459.098 1021.72 460.149 1020.44 460.814ZM909.394 402.253C906.069 405.492 902.134 405.994 898.153 406.44C895.941 406.691 894.175 406.892 892.437 407.284C887.661 408.363 882.939 409.986 878.632 412.325C874.129 414.77 869.222 417.718 865.692 421.495C864.853 422.394 864.062 423.337 863.269 424.282C862.547 425.144 861.851 425.974 861.117 426.774C860.274 427.693 859.474 428.656 858.679 429.617C858.187 430.427 858.09 430.627 857.99 430.834C857.841 431.146 857.668 431.495 857.47 431.869C857.198 432.382 856.881 432.943 856.548 433.452C855.994 434.383 855.697 434.639 855.44 434.753C855.014 434.943 854.61 435.037 854.218 434.986C853.851 434.939 853.504 434.762 853.162 434.473C851.455 433.031 850.952 430.664 851.004 428.151C851.082 424.338 852.488 420.117 853.785 417.522C856.799 411.492 860.979 405.224 866.006 400.724C871.742 395.587 878.018 391.698 885.226 389.018C889.705 387.352 894.891 385.823 899.771 386.016C903.284 386.155 906.637 387.199 909.407 389.807C911.107 391.408 911.923 393.685 911.923 395.96C911.923 398.28 911.076 400.615 909.394 402.253ZM1027.2 431.918C1026.99 432.264 1026.7 432.503 1026.37 432.646C1026.03 432.797 1025.65 432.84 1025.28 432.778C1024.92 432.717 1024.57 432.552 1024.3 432.3C1024.04 432.058 1023.84 431.737 1023.75 431.345C1021.54 421.649 1017.25 414.435 1008.1 409.784C1003.6 407.495 998.429 406.041 993.53 404.882C992.106 404.545 990.602 404.327 989.087 404.106C984.339 403.412 979.557 402.619 976.462 398.781C974.597 396.469 973.814 393.513 974.256 390.809C974.673 388.263 976.161 385.929 978.865 384.53C985.597 381.049 993.964 384.465 1000.76 387.374C1001.27 387.59 1001.76 387.802 1002.25 388.007C1008.9 390.813 1014.96 394.517 1019.94 399.815C1023.9 404.018 1027.56 410.231 1029.04 416.623C1030.27 421.94 1029.98 427.369 1027.2 431.918Z" fill="black"/>
</svg>
