<svg width="1800" height="3200" viewBox="0 0 1800 3200" fill="none" xmlns="http://www.w3.org/2000/svg">
<path fill-rule="evenodd" clip-rule="evenodd" d="M981.76 532.417C982.089 532.744 981.365 533.184 981.004 532.946C976.826 530.185 970.246 531.752 966.212 533.002C966.212 533.002 964.738 576.317 966.369 577.343C968 578.369 990.987 577.76 990.987 580.33C990.987 588.731 977.163 591.885 969.659 591.385C957.845 590.6 945.668 589.064 933.87 590.308C922.072 591.552 897.008 598.416 884.179 588.93C868.877 577.616 870.946 559.022 883.678 546.883C891.703 539.232 903.513 534.641 915.158 531.24C932.198 526.263 972.357 523.05 981.76 532.417ZM950.331 564.217C944.152 566.41 913.435 575.658 906.137 577.343C914.667 576.785 943.793 576.168 950.331 573.283C951.065 570.583 951.533 563.79 950.331 564.217ZM955.021 534.191C938.302 536.666 902.195 547.83 897.008 553.773C904.89 552.643 948.866 547.83 953.827 547.83C954.548 544.332 954.07 538.2 955.021 534.191ZM960.364 466.367C968.647 470.957 981.268 481.66 972.357 493.04C961.868 503.073 946.767 491.569 939.325 486.366C932.425 482.334 924.672 492.705 931.074 497.413C984.848 533.708 1006.67 467.567 964.553 460.97C959.916 460.243 958.194 464.947 960.364 466.367ZM978.728 399.39C983.591 399.354 986.431 402.231 990.077 404.793C993.831 407.432 998.358 409.537 1002.75 411.149C1007.32 412.828 1012.22 414.161 1017.03 415.112C1022.03 416.096 1026.62 415.635 1031.58 416.468C1044.72 418.677 1041.61 438.656 1028.43 437.668C1016.57 436.779 1003.84 430.135 994.842 423.246C990.543 419.954 986.915 416.182 983.383 412.24L982.722 411.499C979.587 407.973 976.66 404.364 978.233 399.735C978.301 399.535 978.496 399.393 978.728 399.39ZM869.105 457.699C869.12 451.322 873.194 436.762 883.264 436.762C889.554 436.762 893.373 446.671 894.035 456.886L894.058 457.302C894.35 463.653 892.438 477.534 883.264 477.534C873.992 477.534 869.202 464.387 869.106 457.924L869.105 457.699ZM1017.36 457.699C1017.34 451.322 1013.27 436.762 1003.2 436.762C997.066 436.762 993.282 446.182 992.483 456.12L992.428 456.886C992.031 463.022 993.818 477.534 1003.2 477.534C1012.47 477.534 1017.26 464.387 1017.36 457.924L1017.36 457.699ZM902.057 400.342C908.337 397.871 915.534 398.573 919.315 404.467C922.894 410.045 920.458 416.768 914.789 420.2C909.222 423.571 901.749 425.404 895.348 427.332L894.641 427.547C888.437 429.45 882.229 431.006 875.821 432.222C869.833 433.358 863.8 434.199 857.732 434.87L855.91 435.067C851.177 435.565 844.575 437.242 840.315 434.786C839.936 434.569 839.791 434.12 840.019 433.76C842.499 429.845 849.082 428.285 853.306 426.302C858.73 423.754 864.077 421.041 869.375 418.282C874.731 415.492 880.073 412.656 885.372 409.776C890.876 406.785 896.204 402.644 902.057 400.342Z" fill="black"/>
</svg>
