<svg width="1800" height="3200" viewBox="0 0 1800 3200" fill="none" xmlns="http://www.w3.org/2000/svg">
<g clip-path="url(#clip0_115_12672)">
<path d="M974.222 511.453C974.367 511.536 974.463 511.552 975.061 511.771C975.713 512.007 976.358 512.208 977.051 512.298C977.709 512.384 978.38 512.399 979.03 512.529H979.037C979.065 512.539 979.081 512.578 979.104 512.595L979.111 512.598C979.232 512.65 979.457 512.632 979.588 512.659C979.755 512.693 979.903 512.818 980.068 512.864C980.367 512.947 980.712 512.987 981.02 513.055C981.335 513.124 981.664 513.257 981.978 513.321C982.625 513.449 983.299 513.47 983.954 513.551C984.402 513.606 984.843 513.689 985.301 513.727C985.623 513.754 986.004 513.727 986.328 513.767C986.884 513.835 987.436 513.948 987.992 514.01C988.123 514.024 988.257 513.976 988.386 513.995C988.65 514.036 988.913 514.092 989.179 514.119C989.283 514.129 989.389 514.092 989.494 514.107L989.505 514.11L989.508 514.113L989.512 514.116C989.535 514.132 989.549 514.168 989.576 514.18C989.639 514.208 989.746 514.153 989.812 514.171C989.9 514.196 990.056 514.295 990.134 514.31C990.524 514.388 991.072 514.364 991.477 514.413C991.535 514.42 991.579 514.472 991.637 514.482C991.791 514.514 991.954 514.45 992.11 514.465C992.193 514.474 992.264 514.524 992.346 514.531C992.535 514.55 992.787 514.472 992.977 514.512C993.267 514.57 993.55 514.571 993.848 514.63C994.096 514.679 994.383 514.576 994.635 514.607C994.742 514.621 994.847 514.66 994.955 514.67C995.099 514.685 995.28 514.624 995.425 514.652C995.507 514.669 995.583 514.712 995.665 514.719C996.131 514.759 996.367 514.657 996.849 514.754C997.274 514.839 997.762 514.626 998.187 514.71C998.799 514.833 999.314 514.685 999.921 514.728C1000.03 514.735 1000.13 514.778 1000.24 514.791C1000.81 514.861 1001.41 514.664 1001.97 514.734C1002.43 514.791 1002.84 514.781 1003.31 514.766C1003.81 514.75 1004.4 514.639 1004.89 514.713C1004.94 514.722 1004.99 514.772 1005.05 514.782C1005.31 514.834 1005.65 514.763 1005.91 514.753L1007.88 514.691C1008.03 514.686 1007.99 514.7 1008.12 514.754C1008.31 514.834 1009.92 514.695 1010.25 514.685C1010.56 514.675 1012.58 514.698 1012.77 514.604C1012.8 514.587 1012.81 514.543 1012.84 514.525C1013.01 514.443 1013.51 514.623 1013.63 514.5V514.497L1013.63 514.494V514.485C1013.63 514.471 1013.62 514.451 1013.62 514.44V514.434L1013.62 514.431V514.428H1013.63L1013.63 514.425L1013.63 514.422C1013.7 514.372 1013.94 514.453 1014.02 514.413C1014.09 514.379 1014.15 514.353 1014.23 514.335C1024.71 510.015 1029.11 501.492 1032.87 492.121C1036.63 482.693 1023.61 469.259 1016.87 465.964C1010.13 462.668 996.277 446.604 990.121 453.476C983.949 460.348 1003.11 470.56 1009.72 474.151C1016.34 477.742 1024.15 494.826 1013.69 500.722C1003.24 506.619 991.192 512.294 979.1 504.373C967.008 496.466 958.49 504.786 974.722 511.437L974.222 511.453Z" fill="black" stroke="black"/>
<path d="M976.297 405.034C988.94 402.921 986.736 374.31 974.723 374C974.077 384.64 977.494 394.276 976.297 405.034ZM947.957 375.478C953.31 401.606 928.465 392.547 911.759 391.719C895.038 390.892 877.42 383.68 862.541 398.754C847.678 413.828 872.759 410.148 888.126 407.99C903.493 405.832 927.898 415.512 942.871 409.128C957.844 402.744 963.859 380.281 947.957 375.478ZM1047.15 381.389C1035.03 376.764 1023.78 389.015 1012.87 389.118C1001.96 389.222 991.098 405.33 1001.98 408.951C1012.84 412.557 1023.56 397.985 1032.95 399.094C1042.32 400.187 1060.78 386.591 1047.15 381.389ZM1004.64 449.369C1019.36 447.862 1015.23 439.113 1031.29 435.965C1047.34 432.818 1036.87 423.507 1024.63 429.714C1012.38 435.906 1006.75 436.882 1004.64 449.369ZM873.956 444.936C880.632 451.394 903.855 443.901 911.397 448.217C918.939 452.547 943.658 457.379 939.691 446.783C935.723 436.187 916.278 438.315 907.02 436.069C897.762 433.823 881.419 439.35 873.956 444.936Z" fill="black" stroke="black"/>
<path d="M985.744 555.773C968.992 552.123 954.002 563.842 944.414 574.615C934.841 585.389 930.968 605.472 947.61 610.778C964.252 616.083 978.596 602.99 987.712 593.088C996.813 583.187 1003.36 559.615 985.744 555.773Z" fill="black" stroke="black"/>
</g>
<defs>
<clipPath id="clip0_115_12672">
<rect width="194" height="238" fill="white" transform="translate(858 374)"/>
</clipPath>
</defs>
</svg>
