<svg width="1800" height="3200" viewBox="0 0 1800 3200" fill="none" xmlns="http://www.w3.org/2000/svg">
<path fill-rule="evenodd" clip-rule="evenodd" d="M941.587 571.927C934.864 569.184 928.866 564.61 924.481 558.766C922.957 556.735 922.561 554.59 922.881 552.628C923.241 550.421 924.546 548.422 926.326 547.081C928.112 545.735 930.345 545.072 932.504 545.41C934.381 545.704 936.248 546.731 937.727 548.862L938.035 549.288C940.642 552.815 944.04 555.709 947.91 557.574C951.641 559.372 955.814 560.211 960.132 559.723C968.356 558.794 974.024 554.346 980.049 548.307C980.796 547.544 981.543 546.758 982.294 545.959C982.768 545.234 983.426 544.769 984.157 544.524C984.968 544.253 985.886 544.269 986.726 544.562C987.537 544.845 988.262 545.381 988.747 546.095C989.209 546.773 989.471 547.61 989.386 548.574C988.835 554.833 985.562 560.419 980.914 564.805C975.752 569.677 968.909 573.047 962.466 574.229C955.368 575.531 948.136 574.598 941.587 571.927V571.927ZM965.814 475.367C973.366 479.957 984.872 490.66 976.748 502.04C967.186 512.073 953.418 500.569 946.634 495.366C940.343 491.334 933.275 501.704 939.112 506.413C988.136 542.708 1008.03 476.567 969.634 469.97C965.406 469.243 963.836 473.947 965.814 475.367ZM877.963 433.146C878.798 422.79 894.57 420.438 896.139 430.686C897.544 439.866 895.89 448.299 891.755 456.564C887.804 464.46 877.874 460.777 877.123 453.587C876.116 443.949 877.444 439.589 877.963 433.146ZM998.027 428.561C1000.23 425.681 1003.4 423.715 1007.2 424.826C1019.09 428.299 1015.59 445.172 1011.41 453.385C1009.14 457.845 1001.81 458.976 998.501 455.049C993.101 448.645 990.515 435.856 997.38 429.548C997.566 429.222 997.773 428.893 998.027 428.561ZM891.588 387.83L893.465 387.502C899.273 386.497 906.494 385.532 910.603 390.201C912.782 392.677 913.532 397.279 910.603 399.649C905.451 403.819 899.755 402.203 893.581 402.556C888.493 402.848 883.603 403.69 878.702 405.091C867.95 408.164 859.189 413.774 850.006 419.934C848.801 420.742 847.571 419.201 848.146 418.074C853.447 407.691 863.72 399.162 874.01 393.963C879.502 391.188 885.512 388.886 891.588 387.83ZM987.193 383.179L988.63 383.473C1004.27 386.742 1024.58 393.271 1031.99 408.631C1032.27 410.803 1031.97 411.268 1031.73 411.572L1031.65 411.673C1031.45 411.933 1031.29 412.291 1030.35 412.587C1030.09 412.525 1029.82 412.459 1029.56 412.389C1026.16 411.499 1023.48 410.274 1020.88 409.002L1018.06 407.613C1014.79 406.01 1011.49 404.465 1007.99 403.324C1000.53 400.89 992.854 399.175 985.06 398.26C983.37 398.061 981.744 397.491 980.46 396.514C979.242 395.587 978.311 394.302 977.887 392.595C977.337 390.386 977.495 388.714 978.68 386.721C979.572 385.224 980.847 384.187 982.311 383.591C983.804 382.984 985.503 382.841 987.193 383.179Z" fill="black"/>
</svg>
