<svg width="1800" height="3200" viewBox="0 0 1800 3200" fill="none" xmlns="http://www.w3.org/2000/svg">
<g clip-path="url(#clip0_115_12672)">
<path d="M1224.44 499.114C1218.56 494.78 1209.82 510.257 1203.95 513.061C1198.06 515.85 1192.7 523.103 1185.66 528.08C1178.61 533.044 1175.91 537.536 1167.38 544.53C1158.83 551.511 1166.32 553.914 1173.68 547.391C1181.06 540.883 1187.05 537.478 1193.29 532.443C1199.54 527.422 1207.62 521.658 1212.77 518.783C1217.94 515.922 1231.21 504.092 1224.44 499.114ZM1194.17 582.079C1200.97 588.43 1211.99 582.551 1221.64 581.765C1231.28 580.978 1238.78 576.844 1249.38 576.043C1259.99 575.242 1261.18 558.663 1244.89 565.229C1228.61 571.795 1210.38 574.727 1194.17 582.079Z" fill="black" stroke="black"/>
<path d="M1137.26 524.163C1143.7 523.38 1146.55 514.729 1151.09 509.145C1155.62 503.562 1157.49 497.619 1162.51 491.51C1167.53 485.401 1160.36 477.188 1155.15 489.008C1149.95 500.82 1142.06 512.033 1137.26 524.163Z" fill="black" stroke="black" stroke-width="0.699312"/>
</g>
<defs>
<clipPath id="clip0_115_12672">
<rect width="120" height="102" fill="white" transform="translate(1136 483)"/>
</clipPath>
</defs>
</svg>
