<svg width="1800" height="3200" viewBox="0 0 1800 3200" fill="none" xmlns="http://www.w3.org/2000/svg">
<g clip-path="url(#clip0_115_12672)">
<path d="M920.096 390L914.09 396.007L908.084 402.014L894.917 408.232L881.751 414.45L873.033 418.818L864.315 423.189L858.667 426.753L853.018 430.319V432.959H855.842L866.793 428.446L877.742 423.932L884.823 422.431L891.905 420.93L897.517 420.902L903.133 420.872L908.479 418.437L913.824 416.001L918.802 410.48L923.779 404.958L924.628 401.582L925.473 398.207L924.619 394.808L923.766 391.409L921.931 390.704L920.096 390ZM971.9 390.187L970.48 393.304L969.06 396.421L970.602 402.149L972.146 407.879L978.459 414.192L984.77 420.507L994.068 422.828L1003.36 425.145L1011.38 428.289L1019.4 431.434L1019.65 431.528L1019.89 431.623L1023.32 430.319L1026.75 429.016V424.953L1015.98 419.633L1005.2 414.313L1000.94 411.358L996.68 408.403L986.986 399.296L977.295 390.187H974.595H971.9ZM914.589 428.949L893.491 436.805L872.396 444.663L860.368 448.299L848.341 451.938L846.67 453.304L845 454.672V459.534L846.279 460.323L847.558 461.114L853.963 457.873L860.368 454.63L865.326 453.912L870.287 453.195L873.036 457.64L875.784 462.089L878.823 464.08L881.863 466.072L884.478 466.683L887.096 467.293L891.105 466.644L895.115 465.994L898.456 464.299L901.797 462.602L905.62 458.583L909.442 454.559L914.307 444.762L919.17 434.964L924.876 433.588L930.582 432.211L928.952 430.58L927.322 428.949H920.955H914.589ZM969.953 430.171L967.988 431.492L966.022 432.814L966.65 433.22L967.28 433.628L971.158 435.633L975.037 437.638L976.842 443.652L978.642 449.667L983.204 455.842L987.767 462.018L993.877 464.976L999.984 467.931L1003.94 467.065L1007.89 466.196L1012.95 460.606L1018 455.014L1024.71 454.972L1031.43 454.928L1033.6 453.888L1034.98 453.228C1034.99 452.216 1035 451.15 1035 450.199L1033.72 449.709L1032.01 449.051L1023.7 446.899L1015.39 444.751L998.315 438.157L981.236 431.56L975.596 430.865L969.953 430.171ZM920.673 452.34L916.275 459.692L911.877 467.043L906.553 473.249L901.227 479.454L895.41 482.272L889.594 485.088H876.074L870.293 483.05L864.511 481.007L862.096 478.823L859.684 476.64L858.917 477.405L858.15 478.172L860.355 481.538L862.559 484.902L866.114 487.232L869.668 489.56L875.041 491.244L880.414 492.929L887.835 493.02L895.258 493.108L902.095 489.701L908.93 486.294L912.454 481.673L915.974 477.052L919.977 468.503L923.975 459.955L924.247 456.146L924.515 452.34H922.595H920.673ZM971.957 455.682V463.227L974.035 469.322L976.112 475.421L980.976 481.105L985.841 486.787L992.598 489.936L999.353 493.081L1005.5 493.094L1011.65 493.108L1016.19 490.083L1020.74 487.059L1023.15 482.134L1025.56 477.21L1025.14 470.79L1024.71 464.37L1022.24 470.056L1019.77 475.742L1015.87 479.026L1011.97 482.308L1007.46 483.154L1002.95 484L998.272 481.778L993.592 479.557L987.555 473.605L981.52 467.653L977.741 461.672L973.962 455.687L972.959 455.685L971.957 455.682ZM917.165 484.994L914.559 486.388L911.959 487.783L910.217 490.171L908.479 492.56L903.269 496.485L898.061 500.41L885.994 504.442L873.93 508.479L873.319 510.348L872.709 512.215L881.406 511.517L890.103 510.818L898.382 506.403L906.665 501.992L911.913 496.024L917.165 490.059V487.526V484.994ZM971.999 486.098L971.163 488.273L970.331 490.448L977.157 496.857L983.985 503.269V510.69L980.077 514.595L976.172 518.504H967.653L961.726 512.489L955.795 506.474H953.782L952.179 508.078L950.575 509.682V517.909L952.752 521.015L954.926 524.124L959.1 525.938L963.271 527.756L971.086 527.808L978.904 527.861L983.606 525.629L988.311 523.397L990.818 519.28L993.33 515.164L993.334 508.748L993.339 502.332L991.337 498.457L989.333 494.583L984.877 491.184L980.419 487.783L976.21 486.941L971.999 486.098ZM994.676 494.158V498.047L997.683 499.495L1000.69 500.947L1003.61 501.037L1006.53 501.128L1010.29 499.558L1014.05 497.992L1006.7 497.039L999.353 496.087L997.014 495.123L994.676 494.158ZM931.09 550.583L923.339 552.604L915.585 554.622L909.749 558.044L903.913 561.464L899.847 566.094L895.783 570.726V576.015L897.44 578.671L899.097 581.325H900.184L906.715 575.217L913.244 569.109L919.548 566.247L925.852 563.386L936.548 563.477L947.247 563.568L954.869 565.784L962.49 568.001L973.502 573.327L984.513 578.652H995.919L997.302 576.067L998.685 573.481V568.197L994.697 564.839L990.708 561.484L983.004 558.567L975.298 555.647L963.271 553.135L951.243 550.616L941.167 550.602L931.09 550.583ZM947.234 574.447L943.525 575.861L939.816 577.277L939.018 579.357L938.216 581.44L938.728 581.952L939.24 582.464L944.612 581.027L949.984 579.594L953.955 581.744L957.925 583.892L958.927 583.945L959.93 583.999V580.404L957.503 578.206L955.077 576.01L951.155 575.229L947.234 574.447Z" fill="black"/>
</g>
<defs>
<clipPath id="clip0_115_12672">
<rect width="190" height="194" fill="white" transform="translate(845 390)"/>
</clipPath>
</defs>
</svg>
