<svg width="1800" height="3200" viewBox="0 0 1800 3200" fill="none" xmlns="http://www.w3.org/2000/svg">
<path fill-rule="evenodd" clip-rule="evenodd" d="M1065.09 446.282C1055.56 510.771 989.002 517.903 977.177 453.881C979.075 453.05 980.44 451.414 980.155 448.238C980.088 434.286 984.419 419.54 997.005 411.781C1010.01 403.775 1025.23 402.981 1040.28 403.183C1069.01 402.499 1068.4 426.506 1065.09 446.282M966.758 418.235C957.744 417.855 946.34 418.173 938.265 423.665C936.045 417.687 930.277 411.304 924.449 407.891C946.111 408.525 968.409 406.393 990.233 404.738C985.009 408.299 980.149 413.649 976.99 419.834C974.059 418.271 969.861 418.417 966.758 418.235M927.026 453.119C902.031 539.155 839.64 501.655 832.838 490.629C820.569 472.383 818.261 428.029 828.948 416.17C844.246 405.446 865.903 408.206 883.975 407.943C917.176 408.391 940.756 418.323 927.026 453.119M1094.6 413.548C1087.81 412.66 1080.56 412.481 1074.24 415.471C1072.3 407.208 1066.19 400.3 1059.3 397.26C1058.47 396.214 1058.59 395.652 1055.75 395.809C1038.25 390.551 1018.67 393.333 1001.86 398.725C975.309 400.961 947.452 402.724 920.677 405.805C895.595 394.541 819.902 392.89 815.198 420.653C809.281 419.768 799.204 415.111 794.232 421.428C757.761 415.245 720.076 423.838 683.447 427.665C674.227 429.363 669.478 447.661 679.944 447.411C685.828 445.814 679.763 436.017 687.686 435.28C723.027 431.42 757.595 425.944 793.298 425.303C792.056 431.468 816.912 431.869 817.279 428.269C817.332 428.296 817.388 428.314 817.442 428.338C811.3 451.228 816.844 484.17 827.944 498.364C843.496 516.95 882.541 522.282 899.854 510.324C922.187 499.287 945.42 443.885 938.894 425.479C950.738 421.725 962.447 422.852 974.739 424.764C971.925 432.713 967.067 452.281 974.056 453.978C972.773 492.828 1008.13 517.069 1040.72 501.132C1068.94 487.889 1078.8 445.971 1075.35 420.528C1078.86 427.314 1108.35 419.926 1094.6 413.548" fill="black"/>
</svg>
