<svg width="1800" height="3200" viewBox="0 0 1800 3200" fill="none" xmlns="http://www.w3.org/2000/svg">
<path fill-rule="evenodd" clip-rule="evenodd" d="M1094.62 557.844C1090.65 551.982 1081.11 509.442 1075.01 502.899C1075.47 477.769 1082.42 390.762 1062.58 351.65C1066.75 347.429 1077.84 311.074 1075.01 297.331C1084.36 268.549 1024.31 222.836 1001.45 210.483C895.23 153.524 741.308 216.397 693.001 321.912C663.972 385.457 663.437 456.603 660.155 524.978C659.767 539.614 658.422 554.364 658.437 568.982C660.536 581.827 670.721 594.908 663 605.589C654.471 611.488 637.233 625.86 644.908 634.01C649.406 637.755 656.591 635.582 661.472 639.183C663.957 640.573 665.507 643.62 668.413 644.083C694.959 643.075 713.692 642.989 740.32 641.913C751.977 641.531 769.727 646.462 783.107 636.646C829.845 662.642 810.295 624.927 819.746 598.075C848.526 607.806 905.856 638.837 936.533 639.839C961.462 642.92 984.773 628.402 1009.28 631.707C1039.73 643.018 1075.41 645.533 1103.3 626.395C1110.26 621.383 1118 627.189 1126.77 621.776C1143.82 613.623 1103.22 566.889 1094.62 557.844Z" fill="white"/>
<path fill-rule="evenodd" clip-rule="evenodd" d="M1059.82 348.313C1059.44 346.142 1062.44 344.523 1063.59 346.723C1072 362.704 1075.36 381.212 1078.34 398.864C1081.35 416.702 1083.34 434.614 1083.45 452.722C1083.53 466.651 1082.26 480.741 1079.89 494.68L1080.18 495.672V495.672C1080.71 497.494 1081.25 499.314 1081.79 501.133L1082.61 503.861C1084.2 509.099 1085.7 514.362 1087.33 519.587C1090.73 530.492 1094.31 541.427 1098.7 551.98C1102.98 562.278 1108.18 572.21 1114.37 581.492C1120.33 590.44 1129.8 598.005 1134 607.943C1135.46 611.406 1133.3 615.985 1129.25 615.432C1128.99 615.749 1128.59 615.979 1128.05 616.027C1124.91 616.301 1121.96 616.039 1118.83 615.745C1117.08 615.581 1117.08 613.191 1118.83 613.027C1120.16 612.902 1121.46 612.792 1122.75 612.717C1113.79 607.408 1107.4 597.04 1102.29 588.553C1095.72 577.649 1090.76 565.736 1086.72 553.688C1082.56 541.318 1079.62 528.69 1077.26 515.868C1076.99 514.392 1076.73 512.915 1076.48 511.436C1073.5 524.129 1069.65 536.59 1065.09 548.566L1064.46 550.232C1053.95 577.466 1039.72 604.961 1016.06 622.962C1014.98 623.778 1013.89 624.553 1012.78 625.311L1014.13 626.082C1015.47 626.847 1016.79 627.581 1018.08 628.184C1022.86 630.415 1028.05 632.116 1033.18 633.321C1043.79 635.812 1054.93 635.098 1065.75 635.445C1069.3 635.559 1071.32 640.879 1067.69 642.607C1055.74 648.298 1042.83 647.091 1030.49 643.087C1024.39 641.104 1018.66 638.328 1013.36 634.705C1011.17 633.208 1008.63 631.361 1006.48 629.225C982.813 642.467 953.397 643.949 927.055 639.213C913.366 636.751 900.101 632.256 888.43 624.567C877.204 617.173 869.202 607.811 863.489 595.682C862.982 594.607 864.391 593.267 865.256 594.318C883.201 616.113 914.083 625.208 941.251 626.938C955.747 627.862 970.576 627.094 984.513 622.757C997.734 618.641 1009.08 611.097 1018.55 601.064C1037.75 580.727 1049.25 553.061 1057.51 526.732C1066.5 498.089 1070.78 467.953 1071.67 437.977C1072.11 422.79 1071.55 407.475 1069.16 392.456C1066.8 377.561 1062.41 363.145 1059.82 348.313ZM790.772 219.282C792.043 218.636 792.938 220.317 791.86 221.144C769.483 238.305 749.443 260.065 733.223 283.096C703.31 325.573 684.126 374.727 675.292 425.803C670.076 455.966 668.714 486.586 669.235 517.151C669.441 529.292 670.135 541.397 670.906 553.505L671.777 566.927C672.181 573.18 672.519 579.38 672.258 585.664L672.187 587.116C671.773 594.428 672.492 601.799 670.658 608.932C669.717 612.59 664.558 613.166 662.69 609.973C662.324 609.348 661.982 608.703 661.65 608.052C657.272 615.192 651.602 621.575 645.311 627.277C648.318 626.637 651.354 626.229 654.471 626.602C659.412 627.194 663.844 629.102 666.98 632.446C670.093 631.043 673.294 630.077 676.975 630.057C679.686 630.043 681.719 633.248 680.172 635.629C677.086 640.381 672.78 643.045 667.887 645.678C664.419 647.544 660.281 645.948 659 642.258L658.927 642.034C657.486 637.366 649.822 638.12 646.206 638.842L645.142 639.059C638.411 640.46 631.838 642.252 624.981 640.404C620.558 639.211 619.402 632.553 623.666 630.343C637.136 623.363 648.444 613.987 660.065 604.573C657.499 598.282 656.042 591.253 654.362 584.856C651.997 575.852 651.306 566.164 650.452 556.915C648.829 539.33 648.21 521.554 648.384 503.9C648.973 444.272 659.171 384.459 685.22 330.464C696.632 306.811 711.624 284.924 729.345 265.551C746.961 246.292 767.536 231.084 790.772 219.282ZM769.917 511.296C769.226 510.338 770.575 509.071 771.521 509.692C792.002 523.145 806.215 543.573 815.386 566.014C824.464 588.231 830.038 615.444 821.085 638.612C819.66 642.302 812.835 643.672 812.136 638.612C809.015 616.016 808.53 593.388 801.667 571.42C794.863 549.643 783.221 529.701 769.917 511.296ZM754.036 584.652C754.148 584.253 754.8 584.322 754.772 584.752C754.259 592.72 753.911 600.785 752.909 608.709C752.422 612.56 751.778 616.386 751.23 620.228C750.668 624.168 750.753 628.146 748.462 631.511C745.426 635.972 737.36 634.717 737.631 628.578C737.818 624.343 739.764 621.625 741.587 617.908C742.757 615.525 743.776 613.062 744.758 610.587L746.218 606.875C749.12 599.514 751.897 592.277 754.036 584.652ZM717.361 563.545C717.485 562.918 718.496 563.069 718.466 563.694C717.919 574.972 716.647 586.123 714.655 597.236C713.747 602.301 712.688 607.339 711.568 612.361L711.084 614.513C709.886 619.803 709.113 626.022 706.429 630.748C703.747 635.471 697.379 632.041 698.204 627.28C699.168 621.722 702.579 616.131 704.562 610.793C706.392 605.865 707.992 600.85 709.487 595.811C712.634 585.204 715.215 574.398 717.361 563.545ZM785.658 594.855L785.896 594.611C786.828 593.598 788.218 594.273 788.663 595.342C790.485 599.723 789.573 604.889 789.443 609.54L789.419 610.554C789.322 615.265 789.39 619.678 787.253 624.028C784.659 629.309 777.824 626.029 777.295 621.331C776.717 616.204 779.142 611.185 780.708 606.383C781.703 603.331 782.428 600.157 783.941 597.387C782.647 597.61 781.355 598.057 780.172 598.38C779.642 598.523 779.442 597.745 779.948 597.565C781.904 596.872 784.112 596.352 785.658 594.855V594.855ZM1058.32 610.402C1057.69 609.703 1058.47 608.772 1059.28 609.15C1069.02 613.699 1078.13 616.658 1088.88 617.627C1093.54 618.047 1093.56 625.363 1088.88 624.939C1077.66 623.929 1065.91 618.9 1058.32 610.402ZM715.641 456.709C724.216 437.42 751.344 420.309 769.535 438.247C769.876 438.582 769.529 439.313 769.034 439.108C757.719 434.419 743.867 440.383 736.036 448.913C729.823 455.679 726.09 464.367 725.349 473.524C724.608 482.689 726.799 492.255 732.886 499.344C736.079 503.063 740.391 506.583 745.465 507.03C750.588 507.481 754.858 503.873 759.701 502.893C763.352 502.155 766.108 504.446 766.466 508.045C767.255 515.988 759.347 521.319 752.492 522.614C745.118 524.006 737.592 522.485 731.238 518.489C710.716 505.583 706.289 477.748 715.641 456.709ZM908.187 267.646C911.916 264.082 918.259 267.625 916.883 272.709C913.957 283.529 907.738 292.674 900.848 301.354C894.219 309.705 887.117 317.73 879.505 325.199C871.943 332.619 863.727 339.485 855.092 345.618L852.491 347.46C846.371 351.775 839.889 356.137 833.039 359.244C831.385 373.494 828.149 387.554 823.253 401.015C818.538 413.977 812.538 426.504 805.268 438.227L804.224 439.906C797.543 450.613 789.51 462.578 778.174 468.447C777.834 468.624 777.493 468.732 777.157 468.795C779.693 470.486 781.836 472.613 783.11 475.669C784.506 479.015 781.588 482.172 778.791 483.277C772.876 485.614 767.106 481.658 761.789 477.438C761.564 477.944 761.352 478.455 761.17 478.97C759.981 482.34 759.631 485.784 756.565 488.02C755.108 489.083 753.313 488.132 752.396 486.928C749.39 482.978 752.502 477.597 755.145 474.369C755.511 473.923 755.889 473.499 756.278 473.092C755.161 472.271 754.071 471.543 753.015 470.984C746.806 467.696 737.602 467.113 734.027 474.392C733.753 474.951 732.892 474.662 732.892 474.084C732.901 465.143 742.06 460.287 750.008 459.627C755.815 459.146 761.431 461.182 766.658 463.553L767.634 464.001C769.579 464.904 771.583 465.756 773.501 466.709C773.189 465.886 773.194 464.918 773.685 463.958C779.696 452.219 790.018 442.673 797.462 431.801C804.844 421.015 811.182 409.472 816.241 397.419C821.151 385.72 824.998 373.654 827.688 361.347C826.802 361.53 825.803 360.741 825.866 359.816C826.016 357.578 827.111 355.562 829.034 354.703C831.152 343.127 832.233 331.355 832.17 319.488C832.165 318.568 833.498 318.601 833.576 319.488C834.512 330.039 834.588 340.693 833.801 351.285C838.803 346.683 844.078 342.308 848.894 337.584C856.141 330.476 863.152 323.178 869.915 315.609C876.815 307.887 883.337 299.881 889.301 291.41L892.422 286.968C897.22 280.158 902.15 273.419 908.187 267.646ZM898.777 191.62C939.933 189.051 983.887 194.109 1020.86 213.428C1041.16 224.037 1056.85 240.072 1068.06 260.027C1074.76 271.943 1079.84 285.138 1081.76 298.704C1083.74 312.643 1081.42 325.072 1072.52 336.152C1068.98 340.552 1063.03 335.637 1063.9 331.135C1069.23 303.591 1060.59 276.377 1045.26 253.574C1023.02 220.484 984.177 205.785 946.36 199.228C927.78 196.008 908.935 194.662 890.085 195.317C875.714 195.817 860.972 197.156 847.334 201.991C846.759 202.195 846.53 201.299 847.084 201.088C863.352 194.875 881.512 192.698 898.777 191.62ZM959.815 253.903C961.934 252.56 964.526 253.938 965.254 256.117C967.822 263.799 962.44 273.948 958.84 280.596C954.766 288.119 949.527 295.153 944.117 301.76C933.294 314.974 919.069 326 903.459 332.93C902.503 333.355 901.389 332.201 902.266 331.385C914.344 320.138 925.295 308.08 934.775 294.553C939.433 287.906 943.318 280.894 947.028 273.691C950.348 267.245 953.47 257.925 959.815 253.903ZM1029.03 262.953C1030.39 258.225 1038.1 259.03 1037.78 264.137C1036.95 277.33 1030.73 290.573 1023.97 301.754C1017 313.267 1008.18 323.527 998.076 332.388C997.578 332.825 996.896 332.152 997.347 331.659C1006.07 322.111 1013.11 311.235 1018.33 299.399C1023.54 287.58 1025.51 275.248 1029.03 262.953ZM990.703 260.817C992.178 256.706 999.238 257.011 998.805 261.914C997.615 275.392 989.705 289.517 982.379 300.649C974.605 312.46 964.682 322.865 953.592 331.604C953.177 331.931 952.59 331.389 952.995 331.007C962.956 321.622 971.034 310.781 977.429 298.689C980.693 292.519 983.431 286.094 985.593 279.457C987.593 273.317 988.532 266.869 990.703 260.817Z" fill="black"/>
</svg>
