<svg width="1800" height="3200" viewBox="0 0 1800 3200" fill="none" xmlns="http://www.w3.org/2000/svg">
<path fill-rule="evenodd" clip-rule="evenodd" d="M1093.55 470.86C1099.74 426.157 1086.51 383.016 1069.38 342.16C1068.44 339.672 1066.94 337.517 1065.02 335.985C1016.66 238.508 945.598 229.681 846.459 236.394C843.53 236.329 843.356 236.381 841.132 235.386C840.764 195.788 795.539 174.813 761.124 187.878C608.492 258.807 656.486 458.492 686.859 588.857C697.695 639.322 708.534 689.784 719.372 740.247C719.736 741.935 720.503 743.394 721.523 744.624C719.949 745.221 718.374 745.781 716.829 746.307C713.303 747.507 714.704 752.764 718.374 751.912C721.971 751.077 725.437 749.958 728.866 748.739C734.212 749.899 738.694 746.406 742.891 743.62C792.037 724.186 812.669 660.315 825.275 613.262C876.526 649.422 958.419 676.504 1017.02 643.988C1071.93 610.922 1091.7 541.947 1087.8 481.068C1091.81 479.224 1093.42 475.204 1093.53 471.013H1093.55C1093.55 470.962 1093.55 470.911 1093.55 470.86V470.86Z" fill="white"/>
<path fill-rule="evenodd" clip-rule="evenodd" d="M747.041 191.602C758.372 184.262 772.915 181.53 786.265 182.065C793.385 182.35 800.032 184.125 806.596 186.791C812.68 189.263 818.044 192.814 823.968 195.52C824.328 195.684 824.056 196.189 823.716 196.12C816.701 194.704 808.464 195.559 801.351 196.573L800.644 196.675C793.653 197.69 786.539 198.215 779.648 199.826C766.954 202.793 755.147 209.258 748.18 220.503C739.083 235.189 736.751 254.199 737.724 271.143C738.216 279.716 739.906 288.15 742.538 296.323C744.118 301.228 747.789 306.163 749.504 311.31C750.809 308.874 752.156 306.462 753.551 304.079C747.196 301.084 745.414 292.76 745.085 285.248C744.106 284.302 743.476 282.933 743.455 281.676C743.399 278.297 744.194 275.238 745.546 272.439C746.318 264.511 747.954 256.607 750.77 249.178C761.823 220.011 790.982 193.723 824.049 196.32C833.137 197.034 841.98 200.893 846.679 209.097C850.454 215.685 850.479 223.632 847.875 230.639C847.103 232.719 846.099 234.597 844.919 236.31C848.492 235.404 852.071 234.535 855.644 233.674C868.04 230.686 880.499 228.345 893.191 227.043C910.476 225.271 928.117 227.952 943.956 234.851C948.3 235.968 952.623 237.168 956.92 238.45C975.829 244.088 995.229 251.452 1010.5 264.321C1017.53 270.242 1022.56 277.13 1026.64 284.694C1041.93 298.325 1056.55 313.777 1066.87 331.453C1088.13 367.872 1093.21 412.921 1094.08 454.324C1094.89 492.358 1091.55 530.782 1084.42 568.153C1081.18 585.113 1075.95 600.875 1065.37 614.784C1053.58 630.273 1037.87 642.476 1020.23 650.664C984.327 667.334 939.888 669.759 904.988 649.106C894.491 642.895 903.943 626.704 914.546 632.755C949.001 652.416 992.973 647.925 1026.12 627.081C1040.13 618.276 1052.2 606.235 1059.87 591.49C1065.46 580.72 1067.87 568.37 1069.95 556.345L1071.05 549.913C1077.48 512.935 1080.38 475.006 1078.84 437.493C1077.29 400.073 1071.36 359.543 1050.16 327.73C1038.98 310.95 1024.73 296.25 1009.75 282.846C1008.7 281.904 1007.64 280.966 1006.59 280.031C1000.74 276.514 994.671 273.443 988.702 270.822L987.432 270.273C983.998 268.809 979.197 266.919 974.742 265.407C968.374 263.246 961.903 261.326 955.405 259.596C951.999 258.689 948.577 257.857 945.146 257.062C946.342 258.159 947.531 259.266 948.699 260.401C954.233 265.778 958.623 272.168 963.87 277.806C964.463 278.442 963.715 279.37 962.961 278.983C954.982 274.889 946.134 272.239 937.803 268.922C929.926 265.786 922.271 262.176 914.534 258.716C912.596 257.848 910.664 256.921 908.737 256.004C901.128 256.082 893.519 256.261 885.927 256.694C895.105 263.227 903.487 270.948 910.43 279.415C911.003 280.112 910.482 281.229 909.518 280.982C894.984 277.26 881.162 271.791 867.347 266.059L860.738 263.308V263.308C855.88 263.062 851.015 262.947 846.149 263.019L843.791 263.058C838.682 263.156 833.584 263.358 828.521 264.132C827.317 264.315 826.137 264.489 824.965 264.649C817.84 267.557 810.984 271.063 804.815 275.684L806.422 275.589V275.589C816.176 275.034 826.121 275.874 835.567 278.392C853.921 283.287 869.582 295.074 880.978 310.103C881.319 310.553 880.656 311.179 880.209 310.873C865.872 301.058 849.243 296.114 832.206 293.429C823.971 292.13 815.49 291.683 807.176 292.33C800.292 292.865 793.171 295.29 786.322 294.113C784.455 296.438 782.662 298.833 780.936 301.281C781.843 301.223 782.754 301.17 783.671 301.127C793.507 300.665 803.524 301.296 813.128 303.56C832.311 308.085 848.341 319.601 863.005 332.244C863.295 332.494 862.921 332.94 862.607 332.76C846.704 323.582 828.22 320.839 810.205 319.183C801.133 318.349 791.959 317.971 782.867 318.695C778.702 319.026 774.583 319.713 770.43 320.14C770.094 320.175 769.745 320.184 769.399 320.2C766.389 325.876 763.66 331.654 761.198 337.415C768.712 335.399 776.819 334.341 784.577 334.863C800.335 335.924 815.965 343.149 828.544 352.39C828.938 352.679 828.718 353.449 828.183 353.247C814.491 348.074 800.918 348.032 786.629 350.028C779.93 350.964 773.299 352.234 766.827 354.226C763.573 355.228 760.356 356.321 757.268 357.76C755.866 358.412 754.501 359.172 753.121 359.889C752.017 363.637 751.03 367.42 750.14 371.226C773.496 372.543 795.499 383.567 814.648 396.219C815.111 396.525 814.822 397.377 814.25 397.161C802.819 392.848 790.384 390.854 778.259 389.693C767.657 388.678 757.253 389.23 746.712 389.526C746.147 393.531 745.69 397.548 745.359 401.573C747.054 402.048 748.717 402.56 750.316 403.041C755.575 404.621 760.824 406.748 765.731 409.214C775.699 414.223 783.776 420.994 791.903 428.521C792.327 428.914 791.885 429.772 791.31 429.539C781.877 425.726 771.57 423.284 761.64 421.123C756.501 420.005 751.36 418.973 746.185 418.026C745.684 417.934 745.175 417.857 744.667 417.781C744.618 426.957 745.137 436.136 746.281 445.241L746.503 446.947C747.123 451.555 746.616 456.012 743.565 459.195C747.785 456.39 752.613 454.447 757.964 453.702C772.055 451.741 785.103 457.371 793.97 468.261C794.385 468.77 793.745 469.438 793.241 468.99C784.636 461.333 771.375 459.978 760.688 463.583C750.794 466.92 743.356 474.887 740.375 484.856C737.207 495.45 738.658 507.146 744.435 516.59C747.313 521.295 751.47 525.501 756.672 527.57C757.314 527.826 757.968 528.039 758.629 528.224C761.769 527.076 765.148 527.596 768.377 529.051L768.796 529.248V529.248C770.856 529.236 772.907 529.173 774.9 529.191C778.779 529.228 780.644 533.346 779.016 536.411C779.939 538.102 780.615 540.002 781.426 541.659C782.891 544.649 784.425 547.62 785.967 550.572C788.148 553.074 790.231 555.664 791.645 558.684C792.225 559.923 792.773 561.265 793.193 562.611C794.405 564.434 795.637 566.247 796.899 568.051C800.979 573.879 805.276 579.4 810.041 584.691C812.905 587.871 816.2 590.71 819.232 593.758C820.151 593.88 821.052 594.506 821.336 595.406L821.584 596.267V596.267C822.561 597.368 823.496 598.502 824.338 599.71C826.206 602.389 825.694 605.107 824.053 607.066C826.652 623.282 824.882 640.534 821.405 656.258C819.157 666.418 816.532 676.569 813.009 686.37C811.218 691.352 809.049 696.138 806.052 700.514C804.409 702.912 802.269 705.705 799.869 707.987C799.504 710.643 799.03 713.277 798.351 715.859C790.3 746.456 757.344 755.771 729.75 759.679C724.424 760.432 719.153 759.146 716.252 754.185C715.582 753.04 715.132 751.805 714.89 750.536C713.688 750.216 712.532 749.653 711.495 748.844C711.322 750.761 711.122 752.685 710.869 754.63C710.238 759.492 703.675 760.954 702.03 755.826C695.088 734.184 691.317 711.365 686.56 689.126C681.813 666.934 676.512 644.86 671.607 622.702L665.396 594.737C650.242 526.261 636.048 456.909 639.532 386.482C641.434 348.038 648.488 309.694 663.586 274.168C676.163 244.573 697.389 211.324 731.678 205.273C731.914 205.232 732.124 205.256 732.32 205.306C736.392 200.011 741.257 195.348 747.041 191.602ZM767.731 563.827C770.496 573 772.47 582.404 773.544 592.001C775.333 607.996 774.446 624.381 773.669 640.419C772.954 655.153 771.257 670.015 768.368 684.483C765.595 698.375 761.249 711.995 754.788 724.632C753.743 726.676 752.62 728.666 751.44 730.618C755.013 729.427 758.239 728.041 761.599 726.119C765.828 723.699 769.698 720.579 771.815 717.288C775.213 712.009 776.353 706.144 776.85 699.852C778.128 683.67 778.719 667.44 779.534 651.231L779.715 647.701C781.033 622.375 782.761 596.403 780.18 571.05C776.549 570.096 773.273 568.223 770.25 565.873C769.416 565.225 768.574 564.539 767.731 563.827ZM740.116 533.159C740.879 540.863 741.609 548.568 742.27 556.279C744.615 583.65 746.064 611.173 744.731 638.639C744.037 652.942 742.643 667.285 740.233 681.406C739.147 687.771 737.834 694.134 736.367 700.43L735.872 702.526C734.383 708.762 733.434 716.556 728.666 721.091L728.702 722.032V722.032C732.049 716.952 735.145 711.241 737.362 705.924C747.241 682.235 749.046 656.447 750.831 631.188C751.931 615.621 752.746 600.034 754.019 584.48L754.637 576.995C755.347 568.284 755.957 559.637 755.874 550.934C753.971 548.097 752.425 545.114 751.465 542.052C751.311 541.559 751.205 541.061 751.131 540.563C747.107 538.656 743.318 536.053 740.116 533.159ZM794.191 587.362C796.176 593.967 797.796 600.656 798.95 607.373C800.788 618.065 801.891 628.824 802.376 639.619L803.39 635.805C805.943 626.266 808.656 616.714 812.019 607.457C806.7 603.733 802.256 597.885 798.39 592.997C796.945 591.171 795.544 589.286 794.191 587.362ZM718.021 293.623C715.977 300.221 714.19 306.894 712.344 313.546C708.006 329.172 705.19 345.226 703.236 361.31C695.439 425.528 701.933 490.006 710.426 553.804C713.945 580.238 717.771 606.633 721.055 633.098C721.142 630.501 721.215 627.904 721.262 625.31C722.26 569.136 712.805 513.748 709.019 457.864L708.792 454.458C707.076 428.329 706.026 401.712 709.132 375.678C710.73 362.278 713.546 349.164 717.293 336.216L719.524 328.61C721.031 323.496 722.634 318.246 724.535 313.155C724.281 312.667 724.039 312.175 723.814 311.682C721.183 305.898 719.352 299.818 718.021 293.623ZM724.608 217.924C704.982 243.227 688.513 270.106 678.549 301.022C655.745 371.778 660.836 447.439 674.051 519.561C680.278 553.543 688.308 587.129 695.635 620.875C687.792 560.276 677.678 499.81 676.068 438.628C675.189 405.236 676.916 371.688 683.067 338.812L683.431 336.879C686.067 322.985 689.333 308.264 696.018 295.778C699.648 288.998 703.655 282.671 708.407 276.615C710.411 274.061 712.661 272.013 715.048 270.14C714.348 252.697 716.986 233.782 724.608 217.924ZM756.628 487.521C766.392 487.905 776.147 490.627 783.836 496.973C789.851 501.936 781.273 510.324 775.307 505.501C768.819 500.257 763 494.3 756.084 489.53C755.26 488.961 755.486 487.476 756.628 487.521ZM740.43 461.506C738.259 462.625 736.102 462.851 733.643 462.247C733.553 462.225 733.466 462.2 733.382 462.173L732.879 462.01C733.094 464.338 733.32 466.666 733.544 468.994C735.528 466.2 737.829 463.67 740.43 461.506ZM730.711 321.015C729.847 328.235 729.284 335.49 728.984 342.756C728.693 349.835 728.571 356.935 728.538 364.038L728.529 367.082L728.542 367.024C731.899 352.702 736.647 338.607 742.711 325.119C741.667 325.293 740.607 325.265 739.563 325.139C737.175 324.85 734.885 323.791 732.836 322.552C732.089 322.1 731.388 321.573 730.711 321.015ZM830.306 237.33C826.133 239.216 822.103 241.384 817.915 243.227C809.61 246.883 801.484 251.133 793.798 255.958C786.02 260.841 778.527 265.982 771.636 272.072C770.829 272.786 770.029 273.508 769.23 274.229C769.069 275.804 768.952 277.385 768.899 278.979C768.87 279.836 768.869 280.732 768.88 281.653C781.883 265.546 797.604 252.838 817.548 244.844C821.005 243.458 824.519 242.224 828.065 241.082C828.909 239.91 829.666 238.666 830.306 237.33ZM829.935 221.879C827.616 218.801 820.95 219.052 816.747 219.738C809.951 220.848 803.965 223.224 798.14 226.664C791.255 230.728 785.316 236.234 780.669 242.71C782.956 241.42 785.286 240.203 787.665 239.073L789.295 238.303C798.306 234.079 808.066 230.063 817.922 228.754C822.482 228.148 827.386 227.271 831.993 227.765C831.766 225.526 831.1 223.426 829.935 221.879Z" fill="black"/>
</svg>
