<svg width="1800" height="3200" viewBox="0 0 1800 3200" fill="none" xmlns="http://www.w3.org/2000/svg">
<path fill-rule="evenodd" clip-rule="evenodd" d="M1091.87 331.624C1072.17 212.447 921.707 190.96 823.663 216.044C821.856 193.12 807.414 172.864 789.392 159.54C712.836 104.451 622.202 197.981 640.347 278.589C643.602 303.008 663.122 330.873 690.433 326.694C656.104 391.661 642.689 522.664 718.326 563.16C725.623 568.353 726.834 578.9 732.45 585.663C741.567 596.57 780.518 610.463 801.59 599.329C808.211 605.413 815.85 611.333 824.781 613.438C870.919 650.37 938.346 658.703 994.528 643.464C1029.14 637.59 1065.02 621.976 1082.83 590.075C1097.92 565.796 1090.97 537.349 1084.05 511.652C1081.06 497.516 1079.11 483.267 1077.92 468.898C1080.37 466.033 1080.51 462.055 1081.12 458.432C1083.78 445.591 1089.58 433.674 1092.49 420.87C1098.98 391.804 1097.85 360.75 1091.87 331.624" fill="white"/>
<path fill-rule="evenodd" clip-rule="evenodd" d="M1090.29 392.319C1089.16 406.689 1083.06 419.619 1077.97 433.011C1078.52 425.087 1078.26 416.841 1078.82 408.613C1072.89 357.09 1002.82 343.554 975.619 304.595C976.649 302.395 977.02 282.724 972.964 288.256C957.231 357.101 863.72 391.64 799.698 391.773C794.856 387.783 785.253 391.998 787.067 399.952C796.641 441.923 798.737 485.828 792.589 528.475C789.692 543.534 789.203 561.654 780.168 574.63C770.578 583.751 782.107 584.483 788.452 582.424C790.221 584.911 792.088 587.326 793.962 589.732C784.848 596.028 771.55 592.594 762.117 588.403C751.624 582.849 745.626 572.086 738.023 563.459C733.872 555.104 727.576 550.302 719.482 545.777C674.453 515.173 675.616 448.039 682.08 399.518C700.916 255.132 861.172 185.465 989.783 235.625C1059.24 253.386 1091.78 325.198 1090.29 392.319M671.389 310.576C643.922 283.222 649.451 235.402 666.717 203.868C701.315 137.981 799.584 140.122 811.351 219.984C761.238 237.151 718.952 273.962 693.776 320.443C685.579 319.567 677.655 315.916 671.389 310.576M1091.87 331.646C1072.17 212.469 921.708 190.982 823.663 216.067C821.857 193.142 807.415 172.886 789.392 159.561C712.836 104.473 622.202 198.003 640.347 278.611C643.602 303.03 663.122 330.895 690.433 326.716C656.104 391.683 642.69 522.686 718.326 563.182C725.623 568.376 726.834 578.923 732.45 585.684C741.567 596.592 780.518 610.486 801.59 599.351C806.6 605.498 835.037 624.192 832.964 605.867C830.872 600.93 824.408 599.642 820.104 597.202C811.058 592.208 803.199 585.17 797.024 576.903C816.419 522.215 814.941 461.322 804.076 405.012C869.006 401.746 945.408 373.286 974.047 310.791C993.407 356.271 1053.44 362.124 1068.61 412.973C1069.53 439.68 1063.8 465.991 1067.95 492.711C1069.17 518.883 1083.01 544.881 1075.01 570.881C1052.66 627.579 972.218 635.899 919.071 633.529C906.447 632.487 895.97 625.665 885.592 619.188C879.372 616.236 871.968 622.411 875.779 629.002C890.33 649.307 920.259 651.082 943.241 650.35C1002.88 646.814 1089.08 629.193 1092.18 555.545C1090.21 526.35 1078.75 498.41 1077.92 468.92C1080.37 466.055 1080.51 462.077 1081.12 458.454C1083.78 445.612 1089.58 433.696 1092.49 420.892C1098.98 391.826 1097.86 360.773 1091.87 331.646" fill="black"/>
</svg>
