<svg width="1800" height="3200" viewBox="0 0 1800 3200" fill="none" xmlns="http://www.w3.org/2000/svg">
<path fill-rule="evenodd" clip-rule="evenodd" d="M907.801 198.706C952.573 198.706 1006.29 220.411 1010.86 220.845L1010.98 220.851C1013.38 220.851 1022.77 228.005 1039.15 242.311L1021.41 276.905L1022.85 278.276C1029.72 284.861 1035.58 290.863 1040.21 295.595C1078 334.229 1084.79 485.919 1075.89 538.818C1066.98 591.717 1050.48 643.48 973.685 643.48C896.887 643.48 811.447 597.303 798.285 582.922C789.511 573.336 779.655 568.743 768.718 569.144C768.268 568.577 767.822 568.011 767.38 567.447L765.771 567.219C750.633 565.027 739.787 562.076 733.233 558.368C720.429 551.124 706.357 513.045 706.357 504.657C706.357 496.352 685.344 435.94 684.924 429.547L684.918 429.37C684.918 424.025 657.467 399.458 657.467 391.656C657.467 383.854 651.934 384.327 657.467 356.833L659.074 348.756C664.963 319.484 676.487 271.013 720.429 249.95C768.718 226.805 862.577 198.706 907.801 198.706Z" fill="white"/>
<path fill-rule="evenodd" clip-rule="evenodd" d="M712.976 248.863C737.059 223.301 873.78 183.763 942.952 192.144L945.027 192.413C950.547 193.113 955.987 194.173 961.356 195.613C978.71 199.666 996.636 205.803 1010.97 216.054C1022.95 224.44 1060.71 238.135 1049.58 260.073C1053.71 267.892 1055.25 277.552 1052.46 285.253C1052.11 287.913 1051.29 290.363 1050.24 292.903C1059.05 305.914 1066.03 320.628 1071.69 334.623C1081.56 369.844 1087.71 406.498 1088.61 442.433C1091.6 510.705 1084.11 592.256 1024.65 636.404C988.731 664.379 932.463 665.319 892.096 630.633C889.805 627.922 879.032 620.606 882.627 619.323C883.697 620.453 884.797 621.553 885.917 622.633C885.866 622.513 885.856 622.393 885.877 622.263L884.823 621.309C882.84 619.474 880.27 616.812 883.197 617.333C883.326 617.483 883.467 617.613 883.606 617.763C884.226 618.135 884.694 618.457 885.059 618.741L885.246 618.892L885.188 618.831C883.502 617.033 882.491 615.2 885.012 616.371L885.346 616.533C886.467 617.713 887.606 618.843 888.766 619.943C888.747 619.813 888.766 619.683 888.837 619.543L887.755 618.498C886.7 617.464 886.861 617.459 887.377 616.623C885.133 613.478 889.322 615.346 889.616 616.573C892.237 615.953 894.538 620.873 896.226 621.473C970.225 678.363 1077.61 627.884 1075.87 469.359L1075.85 466.257C1075.34 415.568 1071.07 363.469 1050.11 317.583C1048.07 313.163 1045.79 308.863 1043.28 304.703C1041.55 301.583 1039.7 298.543 1037.71 295.583C1032.14 295.133 1026.64 294.113 1021.22 292.533C1019.36 292.063 1017.52 291.543 1015.68 290.933C988.797 292.399 962.516 293.994 935.561 295.506L927.141 296.03C904.307 297.498 880.692 299.85 862.266 313.973C844.186 326.831 844.104 352.186 828.627 366.303C806.557 381.282 806.396 394.789 802.146 416.863C802.461 433.503 813.999 457.68 792.826 464.683C796.398 469.776 791.419 467.329 791.027 465.543C790.987 465.553 790.947 465.563 790.917 465.563C794.1 471.48 789.421 467.754 789.007 465.853C788.757 465.783 788.507 465.603 788.257 465.353C791.464 470.537 786.28 466.907 786.587 465.963C780.39 456.438 767.636 454.959 758.646 457.483C758.536 457.823 758.137 457.853 757.887 457.673C719.66 465.957 729.523 545.093 768.697 537.443C770.374 537.101 770.334 537.906 770.667 537.983C769.762 535.607 772.313 536.574 772.286 537.073L772.441 537.065C772.564 537.055 772.514 537.041 772.606 537.073C771.731 532.214 776.655 539.254 776.266 539.543C776.417 539.453 776.587 539.403 776.737 539.383L776.567 538.922C775.75 536.745 775.82 537.65 775.826 536.403C775.212 534.862 775.167 535.536 775.311 534.532C777.469 532.86 778.106 537.932 778.826 538.303C777.592 536.583 778.573 535.178 779.737 536.112C788.56 554.67 799.957 572.107 814.686 585.843C816.297 587.113 817.927 588.363 819.616 589.543C825.881 595 835.491 598.509 841.356 603.343C841.356 603.423 841.317 603.523 841.257 603.623L841.391 603.744V603.744L841.527 603.873L843.567 604.853C844.167 605.363 844.707 605.933 845.186 606.563C845.697 607.153 846.146 607.803 846.527 608.493C846.717 609.333 846.297 609.683 845.497 609.323C845.146 609.203 844.797 609.063 844.447 608.933C844.467 608.963 844.476 608.983 844.497 609.003C844.612 609.177 845.388 610.977 844.493 610.684L844.387 610.643C843.896 610.463 843.407 610.263 842.927 610.073C843.497 610.783 844.016 611.553 844.476 612.203C844.967 612.713 845.266 613.313 845.387 613.993C845.366 614.373 845.157 614.533 844.777 614.483C844.197 614.293 843.627 614.093 843.056 613.883L843.218 614.193C843.622 614.986 844.195 616.317 843.177 615.873C842.306 615.603 841.467 615.293 840.627 614.953C840.556 615.093 840.417 615.143 840.137 615.013C837.467 614.063 834.887 612.903 832.417 611.533C830.247 609.953 828.056 608.403 825.877 606.833C823.826 605.603 821.846 604.233 819.957 602.693C807.311 594.525 796.24 584.149 787.457 572.593C772.768 585.314 743.399 573.161 725.232 563.203C709.163 554.303 702.847 537.847 701.214 520.105C697.819 496.219 678.299 488.043 679.657 435.633C679.627 435.643 679.596 435.643 679.556 435.643C678.846 435.433 678.157 435.153 677.507 434.793C676.837 434.473 676.207 434.093 675.616 433.633L674.886 432.623V432.623C674.507 432.413 674.167 432.193 673.907 431.973L673.772 432.147C673.345 432.662 673.632 431.887 673.657 431.733L672.389 430.008C669.382 425.903 666.083 421.297 663.396 417.613L663.311 417.763C663.25 417.876 663.218 417.957 663.247 417.993C656.852 408.805 650.838 397.707 649.167 386.963C647.194 378.687 647.965 370.159 649.686 362.493C657.065 335.648 681.237 274.9 712.976 248.863ZM886.524 620.116L886.123 619.759L886.475 620.201C886.66 620.429 886.849 620.634 887.157 620.843C887.137 620.773 887.137 620.703 887.146 620.623C886.942 620.467 886.733 620.297 886.524 620.116ZM942.646 205.633C895.738 201.6 849.601 211.934 804.839 224.443L801.751 225.33C776.299 232.593 749.386 239.128 727.877 254.673C697.826 277.69 682.308 314.306 668.766 348.113C656.941 373.231 662.986 401.554 680.806 419.093C682.66 401.664 685.821 384.745 690.761 367.962C691.792 365.34 691.012 364.481 693.234 364.139C696.59 409.367 680.061 442.783 712.771 496.385C726.964 521.677 710.534 540.183 750.614 553.492L751.698 553.906C760.049 557.057 769.167 559.544 777.346 557.783L776.613 556.591C775.866 555.364 775.639 554.768 776.726 554.243C776.697 554.183 776.657 554.123 776.616 554.053C775.737 552.393 774.887 550.713 774.076 549.013C773.747 549.123 773.417 549.203 773.076 549.293C773.297 549.703 773.326 550.113 772.707 550.253C770.503 551.009 768.24 551.312 765.924 551.17L765.427 551.133C762.81 550.973 761.161 550.496 759.686 550.053C759.197 549.973 758.707 549.893 758.226 549.793C753.481 548.741 748.458 546.065 745.207 543.413C708.149 522.365 711.979 450.716 757.657 443.943C758.594 398.831 780.051 322.723 815.661 279.736C847.849 240.195 935.723 223.057 996.859 229.1C997.75 229.395 998.641 229.693 999.532 229.994C1008.96 230.832 1017.95 235.034 1027.39 236.986C1020.61 231.907 1012.93 228.524 1005.01 225.649C989.23 215.998 971.142 210.776 953.667 207.093C950.047 206.203 946.377 205.713 942.646 205.633ZM755.566 480.183C758.022 478.849 757.741 480.137 758.306 479.763C775.972 478.322 795.021 493.789 804.896 506.683C804.116 507.493 802.006 505.093 801.636 504.713C801.586 504.763 801.526 504.803 801.466 504.823L801.741 505.211C805.744 510.955 797.809 504.196 797.066 502.803C796.936 502.873 796.806 502.913 796.656 502.883C797.285 503.5 799.206 505.109 799.536 506.253L800.045 506.677C804.848 510.789 804.449 513.883 798.997 508.043C799.126 508.313 799.176 508.563 799.086 508.763L799.274 508.888C801.955 510.762 804.16 515.984 798.556 510.623C799.139 514.539 793.003 506.97 792.806 507.023C782.188 498.688 766.555 490.582 753.236 489.493L752.778 489.44C750.334 489.126 749.178 488.401 750.036 486.803C747.026 486.087 747.731 484.605 749.156 484.653C747.033 483.257 748.944 481.922 750.176 482.443C749.329 480.098 752.726 481.66 753.036 481.333C754.799 478.614 755.274 480.882 755.566 480.183ZM718.536 334.833C727.021 331.725 752.084 341.029 750.079 353.351C748.885 356.18 744.951 357.801 742.186 356.204L738.577 353.78C732.297 349.574 726.633 345.886 719.89 342.218C716.22 340.397 714.64 336.531 718.536 334.833ZM766.811 316.522L763.534 314.389C745.85 302.816 720.851 285.279 765.186 303.423C770.239 305.59 776.953 306.872 779.71 311.684C784.041 320.553 772.643 321.149 766.811 316.522ZM768.798 264.593C767.379 259.208 785.036 265.527 790.176 267.193L790.959 267.488C795.959 269.351 801.691 271.08 804.681 275.395C808.185 281.357 801.093 282.592 796.7 279.899C787.693 274.013 777.818 269.572 768.798 264.593ZM813.699 239.508C803.76 228.654 830.359 239.052 834.343 241.938L834.457 242.023C837.43 244.116 836.827 248.624 834.034 249.948C826.087 250.099 820.239 243.475 813.699 239.508ZM858.925 227.617C843.125 216.262 863.938 221.663 871.167 226.113C876.094 230.458 871.019 237.793 858.925 227.617Z" fill="black"/>
</svg>
