<svg width="1800" height="3200" viewBox="0 0 1800 3200" fill="none" xmlns="http://www.w3.org/2000/svg">
<path fill-rule="evenodd" clip-rule="evenodd" d="M1068.87 328.178C1058.57 290.992 1019.19 274.766 983.729 272.191C887.715 262.21 789.985 315.734 747.419 402.525C713.346 468.428 712.279 537.658 785.521 575.287C789.521 577.492 793.698 579.849 797.964 581.989C801.67 585.435 805.487 588.746 809.653 591.526C849.536 617.752 898.487 629.095 945.925 626.635C1015.97 625.223 1040.97 577.696 1056.27 516.747C1072.41 456.068 1081.43 390.226 1068.87 328.178V328.178Z" fill="white"/>
<path fill-rule="evenodd" clip-rule="evenodd" d="M1114.84 678.684C1111.57 668.794 1107.47 659.204 1103.64 649.514C1102.83 644.684 1102.29 639.814 1102.15 634.904C1101.62 617.364 1104.9 599.674 1108.58 582.594C1116.06 547.884 1123.99 513.534 1127.97 478.184C1135.08 414.954 1130.85 349.204 1102.09 291.484C1077.17 241.484 1034.94 200.594 980.393 185.274C964.267 180.743 947.67 178.244 930.959 177.246C928.89 176.917 926.824 176.595 924.768 176.285C901.524 172.781 877.994 171.035 854.5 172.546C815.54 175.053 776.944 186.249 744.496 208.393C711.827 230.69 688.615 261.954 677.814 300.087C666.578 339.757 667.531 382.72 648.128 419.912C642.396 430.9 635.705 441.346 629.324 451.966C612.393 470.857 594.011 491.858 589.983 517.833C585.013 549.934 603.483 577.064 620.963 602.114C636.763 624.734 658.203 655.974 641.943 683.824C634.273 696.964 621.983 706.794 612.753 718.774C603.183 731.214 595.713 745.494 591.853 760.754C584.603 789.413 591.273 819.284 610.663 841.684C620.763 853.344 633.733 861.054 647.773 867.064C662.143 873.204 676.183 879.034 688.063 889.484C693.493 894.254 698.463 899.484 703.163 904.964C707.543 911.814 712.643 918.214 718.393 924.074C724.723 930.524 737.123 921.694 731.313 914.104C730.883 913.544 730.463 912.994 730.033 912.434C725.783 906.894 721.513 901.354 717.043 895.994C703.713 874.873 698.583 849.014 705.213 824.344C706.933 817.934 709.353 811.854 712.364 806.114C713.003 807.784 713.703 809.434 714.443 811.064C717.323 817.384 721.364 824.873 726.503 831.274C726.703 835.663 727.364 840.014 728.643 844.274C736.563 870.684 763.043 883.714 786.923 893.854C789.263 894.854 791.573 895.814 793.843 896.764C800.083 899.373 806.683 890.484 802.793 885.123C801.773 883.714 800.783 882.274 799.843 880.814C788.643 863.474 783.313 842.734 786.333 822.074C789.513 800.224 802.393 782.144 815.183 764.794C827.743 747.734 841.233 730.324 846.853 709.514C853.073 686.524 847.413 663.604 837.813 642.444C829.023 623.081 817.314 605.234 807.495 586.404C810.857 589.757 814.326 593 817.9 596.128C821.919 599.646 826.048 603.672 830.811 606.152C834.333 607.985 837.861 603.597 835.072 600.63C831.406 596.732 826.715 593.72 822.644 590.241C818.736 586.902 814.941 583.429 811.24 579.862C806.683 575.471 802.348 570.873 798.168 566.136C794.823 557.615 792.067 548.865 789.823 539.984C786.773 527.964 783.953 515.174 784.173 502.714C784.393 489.934 791.033 480.984 799.873 472.404C803.617 468.771 807.397 465.181 811.17 461.584C819.206 455.685 826.786 449.095 834.149 442.523C847.269 430.812 859.959 418.433 872.078 405.692C875.329 402.274 878.553 398.818 881.737 395.322C892.862 383.906 903.472 371.986 913.473 359.654C923.413 356.034 932.963 351.244 941.923 345.604C938.023 349.554 934.083 353.454 930.163 357.384C921.433 366.144 912.364 374.944 902.243 382.083C901.203 382.824 901.833 384.394 903.114 384.144C915.983 381.574 928.023 377.294 939.263 370.474C950.693 363.534 960.763 354.104 970.163 344.644C975.483 342.244 980.614 339.154 985.303 336.114C985.553 335.954 985.803 335.784 986.053 335.623C981.433 350.264 974.654 366.844 960.203 372.064C959.733 372.234 959.763 373.014 960.323 372.984C972.497 372.27 982.281 366.793 990.005 358.81C996.217 354.34 1002.15 349.603 1007.8 344.446C1013.28 339.45 1018.47 334.092 1023.4 328.544C1016.51 342.193 1008.8 355.539 1001.18 368.734C1000.78 369.434 1001.62 370.384 1002.34 369.894C1018.41 359.014 1030.6 344.974 1040.57 328.373C1042.05 325.929 1043.45 323.445 1044.82 320.942C1043.79 324.859 1042.66 328.751 1041.45 332.623C1039.26 339.632 1037.1 346.657 1034.91 353.662C1033.73 357.439 1032.29 361.13 1030.71 364.758C1029.58 367.354 1028.09 369.945 1027.86 372.792C1027.85 372.981 1028.05 373.105 1028.22 373.064C1034.63 371.462 1040.59 364.154 1045.16 359.627C1047.7 357.106 1050.09 354.339 1052.28 351.421C1052.68 368.228 1052.96 385.037 1052.59 401.894C1051.9 432.854 1049.9 463.804 1047.34 494.663C1045.08 521.944 1043.41 550.574 1028.19 574.284C1016.41 592.634 997.313 605.333 976.563 611.484C974.733 612.034 972.893 612.524 971.043 612.964C941.003 620.094 911.083 612.014 884.523 597.734C876.543 593.444 869.723 605.083 877.423 609.873C906.243 627.814 942.773 633.924 975.393 625.884C974.364 664.413 993.353 700.964 1012.24 733.644C1022.81 751.934 1033.39 770.104 1040.86 789.934C1047.2 806.774 1051.51 824.244 1052.96 842.214C1054.68 863.394 1052.99 884.694 1050.03 905.694C1049.87 906.833 1049.71 907.984 1049.54 909.123C1048.88 913.634 1052.93 917.413 1057.32 915.104C1076.73 904.904 1085.1 883.163 1090.19 863.064C1094.95 844.234 1098.18 825.034 1099.98 805.704C1102.62 812.994 1104.76 820.464 1106.42 828.083C1106.65 829.174 1106.87 830.264 1107.09 831.354C1108.35 837.724 1117.99 837.274 1119.53 831.354C1119.81 830.284 1120.08 829.214 1120.33 828.134C1128.28 795.984 1130.42 762.454 1126.22 729.583C1124.01 712.294 1120.32 695.234 1114.84 678.684" fill="black"/>
</svg>
