<svg width="1800" height="3200" viewBox="0 0 1800 3200" fill="none" xmlns="http://www.w3.org/2000/svg">
<path fill-rule="evenodd" clip-rule="evenodd" d="M1048.41 310.222C1044.55 286.862 1057.23 282.016 1048.41 259.811C1028.83 218.667 975.468 220.44 936.308 217.277C892.63 215.603 848.422 221.369 808.156 238.875C798.538 243.056 789.287 247.973 780.419 253.56C772.751 258.391 773.805 267.577 778.64 272.588C743.775 321.96 763.716 388.232 735.897 440.202C730.758 449.491 723.961 457.821 719.494 467.487C712.704 482.18 712.269 503.233 727.667 512.99C749.354 524.631 761.456 501.584 772.112 534.993C825.33 651.483 932.329 658.044 1033.9 597.31C1042.69 592.422 1051.66 586.897 1058.3 579.217C1073.36 562.266 1071.59 538.428 1071.92 517.259C1072.11 504.854 1072.14 492.447 1072.02 480.039C1071.54 429.781 1054.88 360.065 1048.41 310.222Z" fill="white"/>
<path fill-rule="evenodd" clip-rule="evenodd" d="M832.067 170.508C893.397 142.688 962.958 132.138 1029.86 139.058C1062.88 142.468 1095.46 149.784 1126.48 161.669L1129.19 162.719C1136.85 165.666 1145.1 168.59 1150.92 174.588C1157.69 181.558 1159.59 192.098 1154.75 200.708C1150.99 207.398 1144.23 212.197 1137.02 214.758C1139.56 216.838 1141.97 219.158 1144.23 221.748C1148.04 226.088 1148.33 232.277 1144.23 236.558C1136.33 244.808 1126.08 250.777 1115.04 253.638C1116.28 259.628 1115.61 266.258 1112.95 272.228C1105.31 289.365 1083.81 291.407 1067.27 290.389L1066.77 290.358L1065.85 300.888C1065.36 306.498 1062 310.848 1056.3 311.708C1056.1 311.738 1055.9 311.758 1055.7 311.777C1064.72 344.398 1070.17 378.027 1075.2 411.458C1077.83 428.909 1080.18 446.4 1082.43 463.903L1083.18 469.738C1085.58 488.608 1088.58 507.668 1089.62 526.678C1090.55 543.928 1087.26 560.398 1076.63 574.318C1067.09 586.798 1054.08 596.148 1040.09 603.088C1008.48 618.777 975.208 630.458 940.248 635.878L937.916 636.236C924.421 638.296 910.517 640.032 897.168 636.298C885.439 633.018 873.138 624.558 875.788 610.968C876.678 606.378 883.098 606.178 885.298 609.728L885.805 610.541C888.444 614.727 891.335 618.617 895.939 620.777C901.328 623.318 907.578 624.027 913.468 624.098C929.918 624.288 947.048 620.188 962.888 616.078C992.468 608.399 1022.85 595.878 1047.08 576.908C1057.39 568.848 1065.67 558.768 1068.59 545.798C1072.2 529.808 1068.88 512.328 1067.24 496.258C1063.86 463.098 1059.85 430 1055.61 396.939L1054.76 390.328C1051.19 362.688 1047.44 335.038 1045.66 307.238C1044.92 306.228 1044.42 305.078 1044.22 303.818L1043.94 302.008V302.008C1043.7 300.458 1043.66 299.038 1043.83 297.728C1043.84 292.708 1043.98 287.718 1044.27 282.697C1044.32 281.798 1044.36 280.898 1044.39 280.008C1039.17 281.158 1033.91 282.088 1028.63 282.878C991.508 288.468 953.808 289.868 916.388 287.088C897.718 285.697 879.189 283.308 860.718 280.318C851.317 278.798 841.948 277.118 832.608 275.238C825.858 273.888 819.248 272.058 812.608 270.338C805.758 280.308 802.058 292.578 802.778 304.628C803.588 318.378 812.748 330.848 810.178 344.898C807.766 358.047 796.5 362.124 785.378 365.38L780.648 366.747C777.009 367.809 774.366 368.834 773.708 373.208C772.578 380.718 773.968 389.168 774.258 396.718C774.608 405.648 775.067 414.578 775.278 423.508C775.388 428.128 775.567 432.768 775.558 437.388C775.548 440.668 775.058 442.908 773.788 445.027C774.768 446.258 775.647 447.588 776.428 448.998C776.678 449.458 776.058 449.947 775.689 449.568C774.698 448.538 773.647 447.608 772.538 446.777C771.978 447.468 771.328 448.168 770.567 448.918L770.508 448.838V448.838C768.128 451.208 764.348 451.438 761.397 448.918L760.622 448.247C758.462 446.353 756.978 444.777 756.378 441.648C756.348 441.488 756.317 441.328 756.298 441.168C750.808 440.978 745.228 442.277 740.288 445.008C732.458 449.338 726.948 455.508 723.689 463.128C724.988 464.648 726.508 466.008 728.278 467.148C728.528 467.318 728.308 467.688 728.038 467.558C726.228 466.708 724.608 465.658 723.158 464.428C721.988 467.428 721.168 470.648 720.668 474.058C718.908 486.098 722.048 500.808 732.928 507.668C737.638 510.638 743.018 512.248 748.598 512.268C751.317 512.277 753.668 511.818 756.308 511.168C758.098 510.728 759.878 510.088 761.748 510.088C763.348 510.088 764.828 510.488 766.198 511.288L765.818 511.321C764.894 511.408 765.072 511.447 766.358 511.447C770.358 511.618 772.647 515.678 770.808 519.208L770.566 519.753C770.516 519.863 770.472 519.954 770.439 520.027L770.293 520.963C770.279 521.052 770.264 521.144 770.248 521.238L770.192 521.427C770.182 521.458 770.171 521.488 770.158 521.518L776.157 530.666C783.512 541.857 791.031 553.006 799.588 563.228C805.588 570.398 811.948 577.428 818.668 583.938C824.708 589.788 831.948 592.608 838.788 597.208C842.439 599.648 843.508 604.758 840.189 608.048C830.448 617.718 816.658 610.038 808.668 602.178C801.108 594.728 794.578 585.768 788.948 576.798C778.958 560.848 771.008 543.888 767.528 525.478C766.078 526.808 764.228 527.638 762.358 528.288C758.608 529.588 754.478 530.128 750.518 530.268C742.928 530.518 735.328 528.678 728.498 525.418C700.708 512.168 696.628 472.488 713.618 449.088C711.327 442.444 710.047 435.235 708.657 429.088L708.025 426.341C700.998 395.648 696.282 363.333 708.738 333.258C710.338 329.378 712.138 325.598 714.268 321.978C715.978 319.068 718.918 315.968 719.728 312.658C721.528 305.388 710.418 297.748 707.178 291.978C703.368 285.208 702.828 277.218 708.018 271.027C708.678 270.248 709.397 269.527 710.178 268.898C705.258 259.978 705.028 248.758 711.508 239.958C715.768 234.158 722.268 230.098 729.368 228.868C733.708 228.118 738.928 228.398 743.698 229.738C769.817 205.488 799.618 185.228 832.067 170.508ZM731.767 473.938C738.738 467.788 746.438 464.568 755.938 465.378C765.488 466.197 776.988 470.148 782.597 478.338C787.028 484.808 777.998 494.298 771.498 489.438C765.578 485.008 761.627 480.008 754.278 477.628C747.677 475.498 739.507 474.128 732.597 475.348C731.837 475.478 731.078 474.538 731.767 473.938Z" fill="black"/>
</svg>
