<svg width="1800" height="3200" viewBox="0 0 1800 3200" fill="none" xmlns="http://www.w3.org/2000/svg">
<path fill-rule="evenodd" clip-rule="evenodd" d="M1062.53 441.003C1060.38 422.088 1063.16 382.552 1063.35 380.15C1064.53 364.965 1057.41 305.002 1043.96 310.527C1021.4 292.666 991.351 288.722 963.251 286.838C904.884 282.924 842.791 291.909 797.721 331.189C775.432 351.588 753.733 381.257 755.477 412.149C735.226 441.431 706.677 481.598 731.909 515.831C740.485 526.768 754.117 530.841 764.891 539.124C786.563 556.604 800.159 581.69 822.036 599.066C879.997 651.149 978.414 662.029 1035.36 602.789C1079.39 559.885 1072.27 495.699 1064.53 441.003C1059.32 404.23 1066.73 477.904 1062.53 441.003Z" fill="white"/>
<path fill-rule="evenodd" clip-rule="evenodd" d="M885.28 206.625C900.89 203.475 916.919 201.515 932.86 202.105L934.089 202.153C946.083 202.632 961.273 203.693 971.736 210.667C972.338 210.063 973.306 209.753 974.184 210.172C986.618 216.107 1000.29 220.398 1013.39 224.662C1026.42 228.905 1039.94 231.706 1053.6 232.835C1058.74 233.26 1063.13 238.809 1059.88 243.786C1059.11 244.972 1058.35 246.17 1057.6 247.371C1058.86 247.24 1060.11 247.105 1061.37 246.978C1065.5 246.562 1069.63 250.973 1069.39 254.997C1069.23 257.528 1068.96 260.029 1068.56 262.5C1070.13 262.467 1071.69 262.703 1073.21 263.342C1080.86 266.575 1080.33 275.694 1079.76 282.632C1078.96 292.26 1075.36 302.458 1068.68 309.664C1073.67 314.849 1077.2 321.041 1079.31 328.395C1080.84 333.765 1081.69 339.485 1081.27 345.075L1081.14 346.749C1080.62 352.815 1079.58 359.531 1075.22 363.895C1072.98 366.145 1070.22 366.965 1067.59 366.705C1069.18 380.685 1070.2 394.745 1071.16 408.755L1071.61 415.451C1073.75 447.831 1075.36 480.422 1074.94 512.855C1074.55 543.165 1068.56 572.585 1049.97 597.195C1033.04 619.605 1008.73 636.125 981.23 642.405C966.41 645.795 951.28 646.035 936.28 643.875C929.009 642.825 921.69 641.215 914.789 638.675C907.15 635.855 901.66 631.705 896.52 625.485C894.089 622.535 895.259 616.255 900.1 616.845C907.421 617.733 914.105 618.803 921.124 620.968L922.129 621.285C929.12 623.525 936.36 625.195 943.669 625.905C958.64 627.355 973.839 625.895 988.18 621.355C1011.53 613.955 1031.64 597.465 1044.53 576.745C1059.83 552.185 1061.56 524.305 1061.34 496.065C1061.1 465.077 1060.09 434.07 1058.45 403.114L1058.17 397.955C1057.3 382.025 1056.46 366.085 1055.72 350.145C1055.49 345.145 1055.14 340.105 1054.51 335.115C1048.74 331.735 1043.57 327.075 1040.2 321.325C1033.43 324.125 1026.31 326.145 1019.76 327.755C1004.58 331.487 988.831 332.393 973.386 330.056C969.22 331.777 964.971 333.29 960.657 334.592C959.491 335.109 958.325 335.617 957.16 336.115C946.759 340.565 936.209 344.335 925.23 347.095L922.533 347.768C916.755 349.192 910.479 350.595 904.33 351.035C903.32 351.425 902.23 351.755 901.039 352.045C895.44 353.405 889.629 353.835 883.89 353.355C878.299 352.885 874.259 347.235 877.339 341.945C879.589 338.085 881.86 334.235 884.15 330.395C876.18 333.715 867.95 336.475 859.65 338.815C851.27 341.175 842.77 343.165 834.259 344.995C829.709 345.965 825.14 346.825 820.6 347.795C817.35 348.485 812.36 348.845 809.709 350.985C806.78 353.335 805.95 358.815 804.839 362.195C803.379 366.585 802.009 370.995 800.759 375.455C798.27 384.355 796.23 393.385 794.65 402.505C793.07 411.635 792.009 420.855 791.419 430.105C790.83 439.345 791.089 448.645 790.14 457.845C789.629 462.725 784.39 465.235 780.52 461.825C780.066 461.425 779.608 461.021 779.155 460.612L778.48 459.995C775.169 456.995 771.959 453.815 769.31 450.235C768.83 449.575 768.37 448.885 767.94 448.185C767.87 448.185 767.81 448.165 767.74 448.115L767.005 447.562C758.918 441.543 745.406 433.694 737.52 443.695C735.007 446.881 733.72 450.938 732.653 454.851L730.779 461.856C729.567 466.428 728.426 471.026 727.759 475.705C726.249 486.185 727.009 498.265 734.22 506.665C737.1 510.025 741.07 512.425 745.499 513.055C747.97 513.395 750.41 512.975 752.86 512.665C755.35 512.355 757.749 512.855 760.24 512.615C764.2 512.225 765.93 516.965 764.45 519.945C763.65 521.545 762.709 522.925 761.64 524.095C762.499 524.835 763.32 525.635 764.11 526.475C766.45 527.225 768.549 528.835 770.12 530.965C771.39 532.685 772.049 534.555 772.16 536.525C772.299 537.015 772.419 537.515 772.53 538.025L774.675 541.507C775.147 542.271 775.617 543.025 776.089 543.765C781.549 552.365 787.61 559.645 795.14 566.505C802.39 573.105 810.259 579.015 817.07 586.095L817.872 586.936C824.222 593.627 830.915 601.726 828.43 611.455C827.79 613.955 824.299 615.755 822.02 614.065C814.69 608.625 810.999 600.005 804.78 593.405C798.379 586.605 791.289 580.495 784.87 573.715C778.799 567.315 774.009 560.065 770.4 552.085C768.959 553.675 766.86 554.805 763.95 555.245C758.95 555.995 754.289 553.065 752.11 548.735C750.709 549.355 749.28 549.915 747.839 550.355C740.259 552.675 735.49 544.245 738.35 538.015C739.879 534.675 741.789 531.775 744.16 529.335C736.749 528.315 729.209 524.485 724.339 519.705C712.12 507.695 710.44 489.645 713.19 473.595C714.65 465.085 717.169 456.475 720.44 448.485C721.009 447.095 721.62 445.695 722.289 444.315C721.919 444.305 721.539 444.145 721.299 443.835C719.089 440.815 716.4 438.345 714.759 434.965C713.249 431.865 711.57 428.725 710.379 425.495C707.93 418.885 706.73 411.425 705.93 404.435C704.28 390.125 704.919 375.905 707.11 361.685C710.839 337.465 719.847 314.287 733.118 293.949C732.395 293.569 731.703 293.111 731.058 292.569L730.739 292.291L730.221 291.823C726.434 288.396 726.761 281.973 730.221 278.502L731.314 277.407C732.697 276.032 733.891 274.943 736.126 273.446C736.456 273.225 736.793 273.017 737.134 272.823C735.964 270.661 735.558 268.133 736.373 265.344C739.213 255.628 753.193 255.972 762.054 260.209C771.857 251.46 782.727 243.865 794.509 237.715C822.57 223.075 854.299 212.865 885.28 206.625ZM740.23 462.525C745.47 460.815 752.43 464.405 757.14 466.565C763.11 469.305 768.19 473.355 773.11 477.635C775.56 479.775 775.999 483.275 775.39 486.265C775.329 486.565 775.27 486.875 775.199 487.185C774.549 490.375 770.989 492.885 767.839 492.795C761.249 492.615 758.11 486.925 754.379 482.105C753.94 482.885 753.39 483.605 752.709 484.145L752.249 484.505C750.701 485.684 748.995 486.626 746.949 486.535C745.499 486.465 744.11 486.095 742.829 485.425C739.629 483.735 738.22 479.595 739.089 476.225C739.629 474.105 740.869 472.445 742.489 471.295L741.885 470.882C740.593 469.983 739.415 469.035 738.496 467.636L738.289 467.305H738.369C737.369 465.585 738.02 463.245 740.23 462.525Z" fill="black"/>
</svg>
